<svg id="Layer_1" data-name="Layer 1" xmlns="http://www.w3.org/2000/svg" viewBox="0 0 260.8 175.02"><defs><style>.cls-1{fill:none;}.cls-2{fill:#26358b;}.cls-3{fill:gold;}.cls-10,.cls-4,.cls-5,.cls-6,.cls-7,.cls-8,.cls-9{isolation:isolate;}.cls-4{font-size:13.26px;}.cls-10,.cls-4,.cls-5,.cls-7,.cls-8,.cls-9{fill:#1d1d1b;font-family:TrebuchetMS, Trebuchet MS;}.cls-5{font-size:13.26px;}.cls-10,.cls-7,.cls-8,.cls-9{font-size:17.45px;}.cls-8{letter-spacing:-0.02em;}.cls-9{letter-spacing:-0.06em;}.cls-10{letter-spacing:-0.04em;}</style></defs><title>Artboard 1 copy 4</title><rect id="Artboard1" class="cls-1" x="2.57" y="-404.24" width="255.29" height="595.15"/><g id="Layer-1"><rect class="cls-2" x="60.63" y="17.46" width="134.21" height="89.47"/><path class="cls-3" d="M124.93,37.27l2.82-2.07,2.84,2.07-1.08-3.34,2.87-2.06h-3.54l-1.09-3.4-1.08,3.4h-3.54L126,33.93Z"/><path class="cls-3" d="M110.27,41.21l2.83-2.07,2.83,2.07-1.08-3.35,2.88-2.06h-3.55l-1.08-3.39L112,35.8h-3.54l2.87,2.06Z"/><path class="cls-3" d="M102.38,43.16l-1.09,3.39H97.75l2.87,2.06L99.55,52l2.83-2.06L105.21,52l-1.08-3.34L107,46.55h-3.55Z"/><path class="cls-3" d="M98.44,64.53l2.83,2.06-1.07-3.33,2.87-2.08H99.53l-1.09-3.39-1.08,3.4H93.81l2.88,2.08-1.08,3.33Z"/><path class="cls-3" d="M103.46,75.86l-1.08-3.38-1.09,3.39H97.75l2.87,2.07-1.07,3.35,2.83-2.08,2.83,2.08-1.08-3.35L107,75.86Z"/><path class="cls-3" d="M114.2,86.61l-1.08-3.39L112,86.61h-3.54l2.87,2.07L110.29,92,113.12,90,116,92l-1.07-3.33,2.87-2.07Z"/><path class="cls-3" d="M128.84,90.5l-1.09-3.38-1.07,3.38h-3.55L126,92.57l-1.07,3.34,2.83-2.07,2.83,2.07-1.08-3.34,2.88-2.07Z"/><path class="cls-3" d="M143.48,86.61l-1.09-3.39-1.08,3.39h-3.54l2.87,2.07L139.57,92,142.39,90,145.23,92l-1.08-3.33L147,86.61Z"/><path class="cls-3" d="M154.23,75.86l-1.09-3.38-1.09,3.39h-3.54l2.88,2.07-1.08,3.35,2.83-2.08L156,81.28l-1.08-3.35,2.88-2.07Z"/><path class="cls-3" d="M161.66,61.14h-3.54L157,57.76,156,61.14H152.4l2.88,2.07-1.08,3.34L157,64.48l2.83,2.07-1.07-3.34,2.87-2.07Z"/><path class="cls-3" d="M150.31,51.91l2.83-2.07L156,51.91l-1.08-3.34,2.88-2.06h-3.54l-1.09-3.39-1.09,3.39h-3.54l2.88,2.06Z"/><path class="cls-3" d="M142.44,32.41l-1.09,3.4h-3.54l2.87,2.07-1.08,3.34,2.84-2.07,2.83,2.07-1.07-3.34,2.87-2.07h-3.55l-1.08-3.39Z"/><text class="cls-4" transform="translate(103.69 147.56)">Euroopa</text><text class="cls-5" transform="translate(62.62 163.47)">R</text><text class="cls-5" transform="translate(69.79 163.47)">egionaalarengu Fond</text><g class="cls-6"><text class="cls-7" transform="translate(69.98 128.79)">E</text><text class="cls-7" transform="translate(80.25 128.79)">U</text></g><text class="cls-7" transform="translate(92.49 128.79)">R</text><g class="cls-6"><text class="cls-7" transform="translate(103.42 128.79)">O</text><text class="cls-7" transform="translate(116.1 128.79)">O</text></g><text class="cls-8" transform="translate(128.79 128.79)">P</text><text class="cls-9" transform="translate(137.36 128.79)">A</text><text class="cls-10" transform="translate(153.8 128.79)">L</text><g class="cls-6"><text class="cls-7" transform="translate(163.33 128.79)">I</text><text class="cls-7" transform="translate(169.11 128.79)">I</text></g><text class="cls-8" transform="translate(174.9 128.79)">T</text></g></svg>