<svg id="Layer_1" data-name="Layer 1" xmlns="http://www.w3.org/2000/svg" viewBox="0 0 260.8 94.02"><defs><style>.cls-1{fill:none;}.cls-2{fill:#1d1d1b;}.cls-3{fill:#86bc25;}.cls-4{fill:#f8af00;}.cls-5{fill:#e5007c;}.cls-6{fill:#a6d5f4;}.cls-7{fill:#b7b16c;}.cls-8{fill:#fff;}</style></defs><title>Artboard 1 copy 2</title><rect id="Artboard1" class="cls-1" x="3.29" y="-212.18" width="255.29" height="595.15"/><g id="Layer-1"><path class="cls-2" d="M68.77,45.79A24.8,24.8,0,1,1,44,21a24.79,24.79,0,0,1,24.79,24.8"/><path class="cls-2" d="M234.32,54.92c-1.82-.28-2.24-.53-2.24-1.4,0-1.08.85-1.37,2-1.37a30.5,30.5,0,0,1,3.21.29l0-1.19a22.87,22.87,0,0,0-3.33-.36c-1.67,0-3.31.67-3.31,2.69,0,1.8,1,2.24,3.24,2.59,1.84.29,2.31.51,2.31,1.47,0,1.25-.8,1.58-2.31,1.58-.94,0-3-.31-3-.31l-.08,1.19a25.92,25.92,0,0,0,3.24.35c2.22,0,3.58-.72,3.58-2.87,0-1.78-.88-2.27-3.31-2.66m-7.63,3.62a6.39,6.39,0,0,1-2.51.68c-1.73,0-2-.83-2-3.36V51.08h-1.36v4.79c0,3.41.53,4.58,3.11,4.58a6.83,6.83,0,0,0,2.71-.77v.59h1.36V51.08h-1.36v7.46Zm-7.75-7.46H217.4l-2.74,3.62-1.42.07v-7.7h-1.38v13.2h1.38V56.13l1.44-.07,2.75,4.21H219l-3.12-5,3.07-4.23Zm-13,3.84c-1.82-.28-2.24-.53-2.24-1.4,0-1.08.84-1.37,2-1.37a30.49,30.49,0,0,1,3.22.29l0-1.19a22.87,22.87,0,0,0-3.33-.36c-1.67,0-3.31.67-3.31,2.69,0,1.8,1,2.24,3.24,2.59,1.83.29,2.31.51,2.31,1.47,0,1.25-.81,1.58-2.31,1.58-.94,0-3-.31-3-.31l-.07,1.19a25.93,25.93,0,0,0,3.23.35c2.23,0,3.59-.72,3.59-2.87,0-1.78-.89-2.27-3.31-2.66m-11.65.22c0-2.15.88-3,2.46-3s2.31.81,2.31,3Zm2.46-4.25c-2.33,0-3.86,1.35-3.86,4.84,0,3.12.9,4.72,3.66,4.72a31.76,31.76,0,0,0,3.56-.29l0-1.12s-2,.16-3.36.16c-1.82,0-2.41-1-2.43-2.94h6.08l.08-1.07c0-3-1.27-4.3-3.7-4.3m-5.24.19H190l-2.74,3.62-1.41.07v-7.7h-1.38v13.2h1.38V56.13l1.43-.07L190,60.27h1.56l-3.13-5,3.07-4.23Zm-13,3.84c-1.82-.28-2.24-.53-2.24-1.4,0-1.08.84-1.37,2-1.37a30.49,30.49,0,0,1,3.22.29l0-1.19a22.87,22.87,0,0,0-3.33-.36c-1.67,0-3.31.67-3.31,2.69,0,1.8,1,2.24,3.24,2.59,1.84.29,2.31.51,2.31,1.47,0,1.25-.8,1.58-2.31,1.58-.94,0-3-.31-3-.31L175,60.1a25.92,25.92,0,0,0,3.24.35c2.22,0,3.58-.72,3.58-2.87,0-1.78-.88-2.27-3.31-2.66m-7.62,3.62a6.47,6.47,0,0,1-2.52.68c-1.73,0-1.95-.83-1.95-3.36V51.08H165v4.79c0,3.41.54,4.58,3.11,4.58a6.91,6.91,0,0,0,2.72-.77v.59h1.36V51.08h-1.36v7.46Zm-10.28,0a7,7,0,0,1-2.61.68c-1.08,0-2.09-.5-2.09-3.44,0-2.41.61-3.6,2.53-3.6a18.61,18.61,0,0,1,2.17.2v6.16Zm0-7.38a15.65,15.65,0,0,0-2.24-.24c-2.81,0-3.84,1.6-3.84,4.82,0,4,1.51,4.74,3.29,4.74a6.66,6.66,0,0,0,2.79-.79v.61H162V47.4h-1.38v3.73Zm-9.85,9.14h1.36V51.08h-1.36Zm0-11.27h1.36V47.4h-1.36Zm-5.05,2.08h-1.38v9.19h1.38V53.6a10.31,10.31,0,0,1,3.2-1.27V50.89a8.66,8.66,0,0,0-3.2,1.4V51.08Zm-6,7.62a10.76,10.76,0,0,1-3,.56c-.82,0-1.3-.59-1.3-1.66s.46-1.5,1.57-1.61l2.73-.22Zm1.36-.29V53.89c0-2.08-1-3-2.91-3a28.24,28.24,0,0,0-3.62.37l.06,1.2s2.17-.24,3.51-.24a1.45,1.45,0,0,1,1.6,1.67v.75l-2.91.28c-1.89.17-2.79.95-2.79,2.72s.9,2.81,2.5,2.81a10,10,0,0,0,3.4-.7,2.68,2.68,0,0,0,2.17.7l0-1.19c-.59-.07-1-.26-1.06-.85m-12.54-7.52a9.09,9.09,0,0,0-2.83.63V46.85h-1.37V60.27h1.37V52.7a8.67,8.67,0,0,1,2.63-.54c1.66,0,1.93.9,1.93,3.33v4.78h1.38v-4.8c0-3.32-.57-4.58-3.11-4.58m-12.8,4.25c0-2.15.87-3,2.46-3s2.31.81,2.31,3Zm2.46-4.25c-2.34,0-3.86,1.35-3.86,4.84,0,3.12.9,4.72,3.66,4.72a31.76,31.76,0,0,0,3.56-.29l0-1.12s-2,.16-3.36.16c-1.82,0-2.41-1-2.42-2.94h6.08l.07-1.07c0-3-1.27-4.3-3.69-4.3m-9.12,4c-1.82-.28-2.24-.53-2.24-1.4,0-1.08.84-1.37,2-1.37a30.49,30.49,0,0,1,3.22.29l0-1.19a22.87,22.87,0,0,0-3.33-.36c-1.67,0-3.31.67-3.31,2.69,0,1.8,1,2.24,3.24,2.59,1.84.29,2.31.51,2.31,1.47,0,1.25-.8,1.58-2.31,1.58-.94,0-3-.31-3-.31l-.08,1.19a25.92,25.92,0,0,0,3.24.35c2.22,0,3.58-.72,3.58-2.87,0-1.78-.88-2.27-3.31-2.66m-6.81,4.24c-1.22,0-1.33-.54-1.33-2.55V52.33h2.91V51.08h-2.91V48.27H99.57v2.81H98.26v1.25h1.31v4.78c0,2.64.66,3.36,2.55,3.36a16,16,0,0,0,1.86-.2l-.08-1.2s-1.12.09-1.63.09m-7.48-.62a6.47,6.47,0,0,1-2.52.68c-1.73,0-2-.83-2-3.36V51.08H89v4.79c0,3.41.54,4.58,3.11,4.58a6.91,6.91,0,0,0,2.72-.77v.59h1.36V51.08H94.79v7.46Zm-8.2-11.06H85L81.7,53.3l-2.07.08v-5.9H78.21V60.27h1.42V54.72l2.11-.08,3.38,5.63h1.67L83,53.87l3.64-6.39Zm62-7.32a6.39,6.39,0,0,1-2.51.68c-1.73,0-1.95-.82-1.95-3.36V32.7h-1.36v4.8c0,3.4.53,4.58,3.1,4.58a6.78,6.78,0,0,0,2.72-.78v.59H150V32.7h-1.36v7.46ZM139.77,28.7h-1.36V41.89h1.36Zm-5.9,11.63a10.92,10.92,0,0,1-3,.55c-.83,0-1.31-.59-1.31-1.65s.46-1.51,1.58-1.62l2.72-.22ZM131,36.54c-1.89.17-2.79,1-2.79,2.72s.9,2.82,2.49,2.82a9.91,9.91,0,0,0,3.4-.7,2.71,2.71,0,0,0,2.17.7l.06-1.2c-.59-.07-1-.26-1.07-.85V35.51c0-2.07-.95-3-2.9-3a28,28,0,0,0-3.62.37l.06,1.19s2.16-.24,3.5-.24c1,0,1.6.52,1.6,1.67v.76l-2.9.28Zm-4.72,2.67c0-1.78-.89-2.28-3.31-2.67-1.82-.27-2.24-.53-2.24-1.39,0-1.09.84-1.38,2-1.38a30.49,30.49,0,0,1,3.22.29l0-1.19a23.49,23.49,0,0,0-3.33-.35c-1.68,0-3.31.66-3.31,2.68,0,1.8,1,2.24,3.23,2.59,1.84.3,2.32.52,2.32,1.47,0,1.25-.81,1.58-2.32,1.58-.93,0-3-.31-3-.31l-.07,1.2a25.93,25.93,0,0,0,3.23.35c2.23,0,3.59-.72,3.59-2.87m-13,1.63a11,11,0,0,1-2-.2V34.5a6.49,6.49,0,0,1,2.55-.71c1.33,0,2.11.88,2.11,3.36,0,2.68-.66,3.69-2.68,3.69m4.08-3.65c0-3.29-1-4.67-3.32-4.67a6.22,6.22,0,0,0-2.74.83V32.7h-1.38V46h1.38v-4.1a11.09,11.09,0,0,0,2,.21c2.85,0,4-1.29,4-4.89m-12,3.14a10.82,10.82,0,0,1-3,.55c-.83,0-1.31-.59-1.31-1.65s.47-1.51,1.59-1.62l2.71-.22Zm-2.9-3.78c-1.89.16-2.79,1-2.79,2.71s.9,2.82,2.5,2.82a9.91,9.91,0,0,0,3.4-.7,2.67,2.67,0,0,0,2.16.7l.06-1.2c-.59-.07-1-.26-1.06-.85V35.51c0-2.07-1-3-2.91-3a28.24,28.24,0,0,0-3.62.37l.06,1.19s2.17-.24,3.51-.24c1,0,1.59.52,1.59,1.67v.76l-2.9.28Zm-6.69,3.78a10.92,10.92,0,0,1-3,.55c-.83,0-1.31-.59-1.31-1.65s.46-1.51,1.58-1.62l2.72-.22ZM97.1,40V35.51c0-2.07-.95-3-2.9-3a28,28,0,0,0-3.62.37l0,1.19s2.17-.24,3.51-.24c1,0,1.6.52,1.6,1.67v.76l-2.9.28c-1.89.16-2.79,1-2.79,2.71s.9,2.82,2.49,2.82a10,10,0,0,0,3.41-.7,2.67,2.67,0,0,0,2.16.7l.06-1.2c-.59-.07-1-.26-1.07-.85m-11-5.27H79.63V29.1H78.21V41.89h1.42V36.12h6.46v5.77h1.4V29.1h-1.4Z"/><path class="cls-3" d="M48.11,33.38c0,2.06-1.29,3.88-4.16,5.82.67.46,1.38.88,2.1,1.29,2.17-1.61,4.32-3.91,4.32-7.11,0-3.55-3.39-6.19-6.42-6.19s-6.42,2.64-6.42,6.19a2.46,2.46,0,0,0,0,.26c.73-.18,1.48-.33,2.26-.45a4.16,4.16,0,0,1,8.3.19"/><path class="cls-4" d="M48.09,33.17a28.36,28.36,0,0,0-4-.29c-6.34,0-13.4,2.18-14.63,6.32-.47,1.58-.23,3.94,3.17,6.58.38-.29.8-.59,1.25-.88.22-.15.47-.31.73-.46-1.53-1.08-3.5-2.85-3-4.59.77-2.59,6.36-4.7,12.46-4.7a26.65,26.65,0,0,1,3.6.24,4.72,4.72,0,0,0,.46-2c0-.07,0-.14,0-.21"/><path class="cls-5" d="M54.07,44.9a52.51,52.51,0,0,0-4.68-2.62c-3.67-1.9-7.76-4-9.11-6.86a22.45,22.45,0,0,0-2.28.44c1.47,3.82,6.15,6.27,10.34,8.43,1.65.86,3.21,1.67,4.49,2.5,1.57,1,4.11,3,3.53,5-.76,2.56-6.28,4.64-12.31,4.64a26.18,26.18,0,0,1-3.78-.27,4.76,4.76,0,0,0-.47,2.05c0,.06,0,.12,0,.18a28.21,28.21,0,0,0,4.24.31c6.27,0,13.26-2.15,14.48-6.27.53-1.76.18-4.5-4.46-7.52"/><path class="cls-6" d="M38,55.71c-3.62-.88-6.12-2.48-6.45-4.19-.27-1.38,1-3.06,3.54-4.73,1.27-.83,2.84-1.64,4.49-2.5,1.46-.76,3-1.54,4.38-2.4a23.77,23.77,0,0,1-2.09-1.4c-1.09.62-2.22,1.21-3.34,1.79a51.13,51.13,0,0,0-4.68,2.62C29.52,47.72,29,50.29,29.32,52c.52,2.66,3.56,4.86,8.23,6A7.18,7.18,0,0,1,38,55.71"/><path class="cls-7" d="M49.93,55.75c-1.45-3.84-6.16-6.3-10.36-8.47-1-.51-1.93-1-2.81-1.5-.65.37-1.21.7-1.68,1-.18.11-.34.23-.51.34,1.21.73,2.55,1.43,4,2.16,3.68,1.91,7.78,4,9.13,6.89a22.8,22.8,0,0,0,2.27-.43"/><path class="cls-3" d="M48.1,58.41A4.37,4.37,0,0,1,44,62.12c-1.88,0-4.16-1.75-4.16-3.93s1.29-3.88,4.17-5.82c-.61-.42-1.29-.85-2.09-1.3-2.16,1.6-4.34,3.9-4.34,7.12,0,3.55,3.39,6.2,6.42,6.2s6.42-2.65,6.42-6.2c0-.07,0-.14,0-.21-.73.17-1.5.32-2.27.43"/><path class="cls-8" d="M58.63,39.55c-.52-2.67-3.59-4.86-8.26-6a6.81,6.81,0,0,1-.45,2.23c3.65.87,6.15,2.46,6.49,4.17.28,1.41-1,3.11-3.57,4.79-1.29.84-2.84,1.65-4.49,2.5-1.47.76-3,1.55-4.39,2.4.73.45,1.43.91,2.09,1.4,1.09-.61,2.22-1.21,3.34-1.79a52.78,52.78,0,0,0,4.69-2.61c4.36-2.85,4.89-5.45,4.55-7.13"/></g></svg>