<svg id="Layer_1" data-name="Layer 1" xmlns="http://www.w3.org/2000/svg" viewBox="0 0 260.8 94.02"><defs><style>.cls-1{fill:none;}.cls-2{fill:#26358b;}.cls-3{fill:#69abde;}.cls-4{fill:#e3003a;}.cls-5{fill:#fff;}</style></defs><title>Artboard 1 copy 3</title><rect id="Artboard1" class="cls-1" x="2.57" y="-306.06" width="255.29" height="595.15"/><g id="Layer-1"><path class="cls-2" d="M105.73,66.82a5.95,5.95,0,0,1,0-11.89,6,6,0,0,1,4.48,1.82l-.88,1a5,5,0,0,0-3.62-1.57,4.5,4.5,0,0,0-4.45,4.73,4.54,4.54,0,0,0,4.45,4.77A5,5,0,0,0,109.47,64l.86.83a6,6,0,0,1-4.6,2"/><path class="cls-2" d="M118.45,61.91c-.14-1.54-1-2.89-2.72-2.89A2.92,2.92,0,0,0,113,61.91ZM116,65.72a3.52,3.52,0,0,0,2.68-1.2l.79.71a4.39,4.39,0,0,1-3.5,1.59,4.44,4.44,0,0,1-.16-8.87c2.51,0,4,2,4,4.5a2.89,2.89,0,0,1,0,.4H113a3,3,0,0,0,3,2.87"/><path class="cls-2" d="M123.21,66.63h-1.27v-8.5h1.27v1.48A3.2,3.2,0,0,1,126.12,58a3.1,3.1,0,0,1,3.25,3.4v5.28h-1.26v-5a2.27,2.27,0,0,0-2.36-2.56,2.5,2.5,0,0,0-2.54,2.66v4.87Z"/><path class="cls-2" d="M133.77,64.21a1.25,1.25,0,0,0,1.43,1.41,2.67,2.67,0,0,0,1.23-.29v1.09a3.28,3.28,0,0,1-1.52.35,2.16,2.16,0,0,1-2.4-2.39V59.25h-1.19V58.13h1.19V55.57h1.26v2.56h2.7v1.12h-2.7Z"/><path class="cls-2" d="M140,66.63H138.7v-8.5H140v2.22A3.6,3.6,0,0,1,143.43,58v1.36h-.09c-1.86,0-3.37,1.33-3.37,3.89Z"/><path class="cls-2" d="M145.59,64.1c0,1.08,1,1.7,2.13,1.7,1.57,0,2.85-1,2.85-2.29v-.83a9,9,0,0,0-2.5-.36c-1.6,0-2.48.69-2.48,1.78m-.15-4.34-.38-1a7.14,7.14,0,0,1,3.09-.7c2.32,0,3.62,1.18,3.62,3.41v5.2h-1.22V65.35a3.73,3.73,0,0,1-3.07,1.46c-1.58,0-3.17-.89-3.17-2.66s1.47-2.76,3.63-2.76a9.21,9.21,0,0,1,2.61.35v-.29c0-1.53-.94-2.32-2.53-2.32a6,6,0,0,0-2.58.63"/><rect class="cls-2" x="154.58" y="54.63" width="1.26" height="11.99"/><path class="cls-2" d="M171.89,63.39c0-1.26-1-2-3-2H165.2v4.06h3.87c1.74,0,2.82-.77,2.82-2.07m-.64-5.21c0-1.15-.9-1.89-2.54-1.89H165.2v4h3.41c1.56,0,2.64-.7,2.64-2.07m1.32-.18a2.79,2.79,0,0,1-1.83,2.68c1.37.41,2.47,1.2,2.47,2.79,0,2-1.66,3.16-4.18,3.16h-5.11V55.12h4.9c2.27,0,3.75,1.12,3.75,2.88"/><path class="cls-2" d="M176.21,64.1c0,1.08,1,1.7,2.14,1.7,1.56,0,2.84-1,2.84-2.29v-.83a8.86,8.86,0,0,0-2.5-.36c-1.59,0-2.48.69-2.48,1.78m-.15-4.34-.37-1a7.07,7.07,0,0,1,3.09-.7c2.31,0,3.61,1.18,3.61,3.41v5.2h-1.22V65.35a3.71,3.71,0,0,1-3.07,1.46c-1.58,0-3.17-.89-3.17-2.66s1.48-2.76,3.63-2.76a9.1,9.1,0,0,1,2.61.35v-.29c0-1.53-.93-2.32-2.53-2.32a6,6,0,0,0-2.58.63"/><rect class="cls-2" x="185.2" y="54.63" width="1.27" height="11.99"/><path class="cls-2" d="M191.11,64.21a1.25,1.25,0,0,0,1.43,1.41,2.74,2.74,0,0,0,1.24-.29v1.09a3.32,3.32,0,0,1-1.53.35,2.16,2.16,0,0,1-2.4-2.39V59.25h-1.18V58.13h1.18V55.57h1.26v2.56h2.7v1.12h-2.7v5Z"/><path class="cls-2" d="M196.16,58.13h1.26v8.5h-1.26Zm-.08-3.25h1.44v1.39h-1.44Z"/><path class="cls-2" d="M204.19,66.82a4.44,4.44,0,1,1,3.4-7.36l-.83.89a3.43,3.43,0,0,0-2.58-1.28,3.14,3.14,0,0,0-3.05,3.3,3.18,3.18,0,0,0,3.13,3.32,3.51,3.51,0,0,0,2.6-1.27l.8.76a4.36,4.36,0,0,1-3.47,1.64"/><path class="cls-3" d="M104.62,26.38H100V40.7c1.51-.29,3.07-.56,4.66-.83V26.38Z"/><path class="cls-3" d="M133.12,35.27h3.81V31.34h-3.81V27.19h-4.6v4.15h-1.94v3.93h1.94v1.78l4.6-.32Z"/><path class="cls-3" d="M147.56,34.73a3.08,3.08,0,0,1,2.6,1.28c1.53,0,3.07-.06,4.62-.08A7.26,7.26,0,0,0,147.56,31a7.82,7.82,0,0,0-7.48,5.31c1.57-.08,3.15-.14,4.74-.19a3.21,3.21,0,0,1,2.74-1.43"/><path class="cls-3" d="M167.09,36a6.17,6.17,0,0,1,1.33-.14h.24V31c-2.73-.12-4.24,1.33-5.18,3.57V31.34h-4.6v4.58h.25c2.67,0,5.33,0,8,.07"/><path class="cls-3" d="M181.07,35.85h.24V31c-2.72-.12-4.24,1.33-5.17,3.57V31.34h-4.61V36.1q3.6.1,7.11.27a5.31,5.31,0,0,1,2.43-.52"/><path class="cls-3" d="M191.27,34.73a3.29,3.29,0,0,1,3.28,2.73c1.51.14,3,.29,4.46.45-.61-3.79-3.09-6.87-7.74-6.87a7.83,7.83,0,0,0-7.57,5.6c1.49.09,3,.19,4.42.3a3.31,3.31,0,0,1,3.15-2.21"/><path class="cls-3" d="M205.87,38.66v0a3.95,3.95,0,0,1,7.89,0v0a3.87,3.87,0,0,1-.18,1.2c1.61.27,3.19.55,4.73.84V31.34h-4.6v2.12A6.6,6.6,0,0,0,208.47,31a7.11,7.11,0,0,0-7.19,7.13c1.55.18,3.08.36,4.59.56v-.06"/><path class="cls-3" d="M115.24,35.31a3.1,3.1,0,0,1,2.62,0,3,3,0,0,1,1.85,2.55c1.46-.16,2.94-.3,4.44-.44A7.87,7.87,0,0,0,120,32a7,7,0,0,0-7,0,8.13,8.13,0,0,0-4.33,7.26c1.51-.21,3-.42,4.6-.62a3.21,3.21,0,0,1,1.9-3.29"/><path class="cls-2" d="M104.62,47.56V39.87c-1.59.26-3.15.54-4.66.83v6.86Z"/><path class="cls-2" d="M133.24,47.84a6.83,6.83,0,0,0,3.63-.94V43.21a4.72,4.72,0,0,1-2.27.57c-1,0-1.48-.52-1.48-1.57V36.73c-1.55.1-3.08.21-4.6.33V43c0,3.76,1.91,4.88,4.72,4.88"/><path class="cls-2" d="M139.54,39.54a8.57,8.57,0,0,0,15.1,5.36L152,42.57a5.34,5.34,0,0,1-3.94,1.67,3.76,3.76,0,0,1-4-3.18H155.4c0-.43.06-.85.06-1.21a11.16,11.16,0,0,0-.68-3.91l-4.62.07a4.63,4.63,0,0,1,.82,2.17h-6.93a5.17,5.17,0,0,1,.77-2c-1.59.05-3.17.12-4.74.19a9.19,9.19,0,0,0-.54,3.13v.06Z"/><path class="cls-2" d="M163.48,47.56v-6c0-3.27,1.35-5.1,3.61-5.58-2.63-.05-5.29-.08-8-.08h-.25V47.56Z"/><path class="cls-2" d="M176.13,47.56v-6c0-2.7.92-4.41,2.51-5.21-2.34-.11-4.71-.19-7.11-.27V47.56Z"/><path class="cls-2" d="M183.25,39.54a8.57,8.57,0,0,0,15.11,5.36l-2.64-2.33a5.32,5.32,0,0,1-3.93,1.67,3.78,3.78,0,0,1-4-3.18h11.29c0-.43.06-.85.06-1.21a11.29,11.29,0,0,0-.16-1.94c-1.46-.16-2.95-.31-4.46-.45a4.17,4.17,0,0,1,.14.72h-6.93a5.62,5.62,0,0,1,.36-1.24c-1.46-.11-2.93-.21-4.42-.3a9.18,9.18,0,0,0-.45,2.84Z"/><path class="cls-2" d="M201.26,38.66c0,4.82,3.42,7.58,7.21,7.58a6.38,6.38,0,0,0,5.3-2.64v.79c0,2.91-1.49,4.42-4.64,4.42a10.62,10.62,0,0,1-5.48-1.49l-1.57,3.46a15.51,15.51,0,0,0,7.17,1.69c3.15,0,5.48-.67,7-2.18,1.36-1.36,2.06-3.48,2.06-6.39V40.7c-1.54-.29-3.11-.57-4.73-.84a3.82,3.82,0,0,1-3.78,2.56,3.71,3.71,0,0,1-3.93-3.7c-1.51-.2-3-.38-4.59-.56,0,.15,0,.29,0,.45v0Z"/><path class="cls-2" d="M119.77,38.64v8.92h4.6V39.48a9.93,9.93,0,0,0-.22-2.06c-1.5.14-3,.28-4.44.44a4.75,4.75,0,0,1,.06.78"/><path class="cls-2" d="M108.74,39.54v8h4.6v-9c-1.56.2-3.09.41-4.6.63v.31Z"/><path class="cls-3" d="M64.33,48.55c-9.46,0-17.13-3.84-17.13-8.57s7.67-8.56,17.13-8.56S81.46,35.25,81.46,40s-7.67,8.57-17.13,8.57m0-22.15c-15,0-27.16,6.08-27.16,13.58S49.33,53.57,64.33,53.57,91.5,47.49,91.5,40,79.33,26.4,64.33,26.4"/><path class="cls-2" d="M64.33,33.48c-7.19,0-13,2.91-13,6.5s5.83,6.51,13,6.51,13-2.91,13-6.51-5.83-6.5-13-6.5"/><path class="cls-2" d="M91.5,40a7,7,0,0,0-.2-1.65l-10,.61a4.55,4.55,0,0,1,.12,1,5.87,5.87,0,0,1-2.18,4.19,17.8,17.8,0,0,1-7.71,3.58l4.24,4.54C81,51.1,85.23,49.11,88,46.65h0l0,0,0,0h0A9.18,9.18,0,0,0,91.5,40"/><path class="cls-2" d="M37.17,40c0-2.38,1.23-4.62,3.39-6.57l8.8,2.41A5.64,5.64,0,0,0,47.2,40,4.64,4.64,0,0,0,47.33,41l-10,.61a6.62,6.62,0,0,1-.2-1.66"/><path class="cls-2" d="M69.52,26.65A39.53,39.53,0,0,1,84.2,30.72l-7.35,3.42a25,25,0,0,0-9.25-2.57l1.92-4.92Z"/><path class="cls-4" d="M64.33,32.52c3.33,0,6,2.09,6,5.42a6,6,0,0,1-.15,1.35c0,.16-.08.31-.12.46-.58,1.32-2.93,2.32-5.75,2.32s-5.17-1-5.74-2.32c-.05-.15-.09-.3-.13-.46a6,6,0,0,1-.15-1.35c0-3.33,2.7-5.42,6-5.42"/><path class="cls-5" d="M63.36,29.12a1,1,0,1,1,1.94,0v4.81a1,1,0,1,1-1.94,0Z"/></g></svg>