<svg id="Layer_1" data-name="Layer 1" xmlns="http://www.w3.org/2000/svg" xmlns:xlink="http://www.w3.org/1999/xlink" viewBox="0 0 260.8 94.02"><defs><style>.cls-1{fill:none;}.cls-2{clip-path:url(#clip-path);}.cls-3{fill:url(#linear-gradient);}.cls-4{clip-path:url(#clip-path-2);}.cls-5{fill:url(#linear-gradient-2);}.cls-6{clip-path:url(#clip-path-3);}.cls-7{fill:url(#linear-gradient-3);}.cls-8{clip-path:url(#clip-path-4);}.cls-9{fill:url(#linear-gradient-4);}.cls-10{clip-path:url(#clip-path-5);}.cls-11{fill:url(#linear-gradient-5);}.cls-12{fill:#69696f;}</style><clipPath id="clip-path"><path class="cls-1" d="M84.87,24.74c.82-.35,4.89-4.64,7.07-3.93,3,1,1.21,12.54.26,16.52a36.14,36.14,0,0,1-4.82,11.48c-1.69,2.36-3.29,1.45-4,.81.47.49,1.23,1.3,1.74,1.86.77.86,2.59,0,3.29-.66,1-1,3.2-2,7-13.29,3.66-11,2.21-14,2.21-14l-.28-3.09-2.11-.85-3.74-.19s-7.4,5.69-6.57,5.34Zm-1.5,24.88L83,49.2A4,4,0,0,0,83.37,49.62Z"/></clipPath><linearGradient id="linear-gradient" x1="-290" y1="493.52" x2="-289" y2="493.52" gradientTransform="matrix(2.84, -32.46, -32.46, 0, 16932.05, -9361.3)" gradientUnits="userSpaceOnUse"><stop offset="0" stop-color="#f19400"/><stop offset="1" stop-color="#ffeb00"/></linearGradient><clipPath id="clip-path-2"><path class="cls-1" d="M100.88,20.21c.74-.32,4.12-2.86,6.09-2.25,2.92.91,1.16,10,.31,13.58a38.58,38.58,0,0,1-4.46,10.33c-2.07,2.88-2.53.27-2.53.27a4.22,4.22,0,0,0,.8,2.13c.7.77,2.34,0,3-.59s3.39-3,6.5-12c3.41-9.86,1.75-12.6,1.75-12.6l-.55-2.69-1.39-.94-3.57-.09s-6.66,5.12-5.91,4.81Z"/></clipPath><linearGradient id="linear-gradient-2" y1="493.54" y2="493.54" gradientTransform="matrix(2.55, -29.18, -29.18, 0, 15249.45, -8419.18)" xlink:href="#linear-gradient"/><clipPath id="clip-path-3"><path class="cls-1" d="M93.2,15.61c-7.57,0-15.32,10.45-20.75,22.61C65.39,54,63.66,72.48,63.66,72.48l3.44,0s2.1-18.14,9-32.25S91,19.76,94.2,19.85a4,4,0,0,1,3.25,3.63l.13-2.16c.32-1.31-.83-5.71-4.38-5.71Z"/></clipPath><linearGradient id="linear-gradient-3" x1="-290" y1="493.51" x2="-289" y2="493.51" gradientTransform="matrix(29.46, 0, 2.58, -29.46, 7337.86, 14584.24)" gradientUnits="userSpaceOnUse"><stop offset="0" stop-color="#e1061b"/><stop offset="1" stop-color="#ec7509"/></linearGradient><clipPath id="clip-path-4"><path class="cls-1" d="M87.19,33.77c-8.63,15.1-4.89,19.33-2.1,19.36,2.38,0,5-4.05,5-4.06-.27.35-1.8,2.31-3.61,2.42s-.44-8.16,4.82-17.31C97.75,23,106.9,15.73,109.86,16.36c1.61.34,1.44.45,2.56,3.65l0-.07c.08-2.82,0-7-3.28-7.44a4.53,4.53,0,0,0-.74-.05c-5.35,0-13,6.9-21.25,21.32Z"/></clipPath><linearGradient id="linear-gradient-4" y1="493.51" y2="493.51" gradientTransform="matrix(28.19, 0, 2.47, -28.19, 7040.04, 13943.13)" xlink:href="#linear-gradient-3"/><clipPath id="clip-path-5"><path class="cls-1" d="M103,28.12c-7.44,13.73-4.38,17.4-1.86,17.43,2.2,0,4.53-3.58,4.74-3.91-.16.24-1.52,2.29-3.44,2.43-2.32.17,0-7.39,4.62-15.58,5.09-9.06,9.88-12.3,15.77-15.34L123.17,9C117.85,10.88,109.53,16,103,28.12Zm2.88,13.51h0Zm0,0h0Z"/></clipPath><linearGradient id="linear-gradient-5" y1="493.51" y2="493.51" gradientTransform="matrix(22.1, 0, 1.93, -22.1, 5555.36, 10935.98)" xlink:href="#linear-gradient-3"/></defs><title>Artboard 1 copy</title><rect id="Artboard1" class="cls-1" x="3.29" y="-101.77" width="255.29" height="595.15"/><g id="Layer-1"><g class="cls-2"><path class="cls-3" d="M81.66,52.34,84.54,19.4h15.1L96.76,52.34Z"/></g><g class="cls-4"><path class="cls-5" d="M98,45l2.59-29.64h13.94L111.93,45Z"/></g><g class="cls-6"><path class="cls-7" d="M68.64,15.61H98.28l-5,56.89H63.66Z"/></g><g class="cls-8"><path class="cls-9" d="M81.75,12.45h31.36l-3.56,40.71H78.19Z"/></g><g class="cls-10"><path class="cls-11" d="M98.4,9h24.77L120,45.57H95.2Z"/></g><path class="cls-12" d="M87.08,80A5.67,5.67,0,0,1,87,81.06a2.08,2.08,0,0,1-.28.66,2.25,2.25,0,0,1-2.09,1,2.21,2.21,0,0,1-2.08-1,2,2,0,0,1-.28-.86c0-.18,0-.49,0-.94V76.65h1.19v3.17a6.89,6.89,0,0,0,0,.8,1.66,1.66,0,0,0,.23.75,1.09,1.09,0,0,0,1,.51,1.15,1.15,0,0,0,1.18-.79A4.13,4.13,0,0,0,86,79.8V76.65h1.06V80Z"/><path class="cls-12" d="M92,82.62H90.91V80.18a1.75,1.75,0,0,0-.13-.8.74.74,0,0,0-.69-.36.84.84,0,0,0-.9.59,2,2,0,0,0-.08.7v2.31H88V78.35h1.13v.58a1.92,1.92,0,0,1,1.46-.68,1.29,1.29,0,0,1,1.34.8A3.41,3.41,0,0,1,92,80.2v2.42Z"/><path class="cls-12" d="M94,82.62H92.87V78.36H94ZM94.07,77a.65.65,0,0,1-.18.46.62.62,0,0,1-.46.19.63.63,0,0,1-.45-.18.6.6,0,0,1-.2-.44.65.65,0,0,1,.18-.48.62.62,0,0,1,.48-.19.58.58,0,0,1,.45.19.61.61,0,0,1,.18.45"/><path class="cls-12" d="M98.88,78.45l-1.83,4.17h-.78l-1.7-4.14,1.12-.2,1.1,3,1.18-3,.91.17Z"/><path class="cls-12" d="M101.89,80v-.21c0-.64-.32-1-.82-1s-.92.39-1,1.18Zm1,.42-.11.07-.12.08h-2.56a1.42,1.42,0,0,0,.37,1,1.24,1.24,0,0,0,.94.37,2.13,2.13,0,0,0,1.11-.34l.31.59a3.32,3.32,0,0,1-1.66.48,2.16,2.16,0,0,1-1.55-.58,2.26,2.26,0,0,1-.71-1.72,2.12,2.12,0,0,1,.63-1.59,2.09,2.09,0,0,1,1.52-.58,1.59,1.59,0,0,1,1.59.94,3.29,3.29,0,0,1,.24,1.26"/><path class="cls-12" d="M106.54,78.64l-.42.81a1.46,1.46,0,0,0-.53-.18.68.68,0,0,0-.67.51,3.5,3.5,0,0,0-.11,1v1.82h-1.12V78.35h1.12v.75l.16-.27c.23-.39.49-.58.78-.58a1.22,1.22,0,0,1,.79.39"/><path class="cls-12" d="M109.54,81.44a1.12,1.12,0,0,1-.45.92,1.8,1.8,0,0,1-1.15.36,2.23,2.23,0,0,1-1.42-.49l.37-.6a1.5,1.5,0,0,0,.91.43.68.68,0,0,0,.44-.14.49.49,0,0,0,.17-.38l-.14-.37a4,4,0,0,0-.6-.5,4.14,4.14,0,0,1-.62-.51,1.11,1.11,0,0,1-.29-.73,1,1,0,0,1,.41-.85,1.61,1.61,0,0,1,1-.33,2.28,2.28,0,0,1,1.22.35l-.34.54a1.19,1.19,0,0,0-.71-.24A.58.58,0,0,0,108,79l-.15.3c0,.17.19.4.59.69a5,5,0,0,1,.87.76,1,1,0,0,1,.22.67"/><path class="cls-12" d="M111.39,82.62h-1.13V78.36h1.13Zm.07-5.58a.62.62,0,0,1-.19.46.58.58,0,0,1-.45.19.65.65,0,0,1-.46-.18.63.63,0,0,1-.19-.44.65.65,0,0,1,.18-.48.62.62,0,0,1,.48-.19.58.58,0,0,1,.45.19.61.61,0,0,1,.18.45"/><path class="cls-12" d="M115.13,82.45a2.8,2.8,0,0,1-1.16.27,1.21,1.21,0,0,1-1.09-.5,2.05,2.05,0,0,1-.21-1.1V78.93h-.6v-.58h.6v-1l1.12-.24v1.27h1.12v.58h-1.12v2a2.06,2.06,0,0,0,.14.89.46.46,0,0,0,.46.25,1.21,1.21,0,0,0,.54-.14Z"/><path class="cls-12" d="M119.5,78.45l-2.07,4.7a3.3,3.3,0,0,1-.76,1.21,2,2,0,0,1-1.32.39h-.27V84h.22a1.5,1.5,0,0,0,.62-.11,1.1,1.1,0,0,0,.41-.4,7.67,7.67,0,0,0,.54-1.15l-1.65-3.84,1.1-.21,1.1,3,1.2-3,.88.17Z"/><path class="cls-12" d="M124.54,80.46a2.07,2.07,0,0,0-.28-1.17.88.88,0,0,0-.78-.42.86.86,0,0,0-.76.43,2.1,2.1,0,0,0-.29,1.16,2.26,2.26,0,0,0,.28,1.2.88.88,0,0,0,.79.44.86.86,0,0,0,.77-.44,2.27,2.27,0,0,0,.27-1.2m1.17,0a2.22,2.22,0,0,1-.62,1.63,2.11,2.11,0,0,1-1.59.64,2.17,2.17,0,0,1-1.61-.63,2.22,2.22,0,0,1-.63-1.63,2.16,2.16,0,0,1,.63-1.59,2.24,2.24,0,0,1,1.62-.62,2.15,2.15,0,0,1,1.58.63,2.17,2.17,0,0,1,.62,1.57"/><path class="cls-12" d="M129.12,76.55l-.2.55a1.47,1.47,0,0,0-.44-.08.5.5,0,0,0-.55.38,1.53,1.53,0,0,0,0,.45v.51h1v.57h-1v3.69h-1.12V78.93h-.69v-.57h.69V78a1.64,1.64,0,0,1,.34-1.11,1.49,1.49,0,0,1,1.15-.48,2,2,0,0,1,.86.19"/><path class="cls-12" d="M133.92,80.26l-.78-2.3-.87,2.3ZM136,82.62h-1.28L134.16,81H132l-.63,1.63h-1l2.44-6h.92Z"/><path class="cls-12" d="M139.7,80.43a2,2,0,0,0-.28-1.1.89.89,0,0,0-.76-.41.92.92,0,0,0-.8.44,1.92,1.92,0,0,0-.31,1.16,1.86,1.86,0,0,0,.3,1.12.92.92,0,0,0,.8.42.9.9,0,0,0,.83-.57,2.28,2.28,0,0,0,.22-1.06m1.19,0a2.4,2.4,0,0,1-.58,1.66,1.82,1.82,0,0,1-1.45.67,1.7,1.7,0,0,1-1.31-.67v2.7h-1.1v-6.4h1.1V79a1.77,1.77,0,0,1,1.46-.73,1.74,1.74,0,0,1,1.36.59,2.25,2.25,0,0,1,.52,1.55"/><path class="cls-12" d="M144.76,80.43a1.89,1.89,0,0,0-.28-1.1.87.87,0,0,0-.76-.41.92.92,0,0,0-.8.44,2,2,0,0,0-.3,1.16,1.86,1.86,0,0,0,.29,1.12.92.92,0,0,0,.8.42.9.9,0,0,0,.83-.57,2.28,2.28,0,0,0,.22-1.06m1.2,0a2.45,2.45,0,0,1-.58,1.66,1.84,1.84,0,0,1-1.46.67,1.68,1.68,0,0,1-1.3-.67v2.7h-1.1v-6.4h1.1V79a1.83,1.83,0,0,1,2.81-.14,2.26,2.26,0,0,1,.53,1.55"/><rect class="cls-12" x="146.58" y="76.36" width="1.13" height="6.26"/><path class="cls-12" d="M150,82.62h-1.13V78.36H150Zm.08-5.58a.66.66,0,0,1-.19.46.6.6,0,0,1-.45.19.65.65,0,0,1-.46-.18.59.59,0,0,1-.19-.44.65.65,0,0,1,.18-.48.62.62,0,0,1,.48-.19.58.58,0,0,1,.45.19.61.61,0,0,1,.18.45"/><path class="cls-12" d="M153.66,80v-.21c0-.64-.32-1-.83-1s-.91.39-.94,1.18Zm1,.42-.11.07-.11.08h-2.56a1.38,1.38,0,0,0,.37,1,1.24,1.24,0,0,0,.94.37,2.13,2.13,0,0,0,1.11-.34l.31.59a3.32,3.32,0,0,1-1.66.48,2.14,2.14,0,0,1-1.55-.58,2.23,2.23,0,0,1-.71-1.72,2.12,2.12,0,0,1,.63-1.59,2.09,2.09,0,0,1,1.52-.58,1.59,1.59,0,0,1,1.59.94,3.12,3.12,0,0,1,.23,1.26"/><path class="cls-12" d="M158.52,80.43a1.84,1.84,0,0,0-.3-1.1,1,1,0,0,0-.8-.41.91.91,0,0,0-.77.4,1.9,1.9,0,0,0-.29,1.11,2.08,2.08,0,0,0,.3,1.18.87.87,0,0,0,.76.45.92.92,0,0,0,.8-.45,2.08,2.08,0,0,0,.3-1.18m1.09,2.19h-1.09V82a1.89,1.89,0,0,1-1.44.73,1.7,1.7,0,0,1-1.42-.68,2.43,2.43,0,0,1-.49-1.56,2.28,2.28,0,0,1,.57-1.59,1.83,1.83,0,0,1,1.44-.64,1.62,1.62,0,0,1,1.34.66V76.36h1.09v6.26Z"/><path class="cls-12" d="M166.23,81.05a1.49,1.49,0,0,1-.58,1.2,2.34,2.34,0,0,1-1.5.47,3.08,3.08,0,0,1-1.78-.56l.45-.72a2,2,0,0,0,1.23.48,1,1,0,0,0,.68-.22.7.7,0,0,0,.27-.57,1.56,1.56,0,0,0-.66-1c-.21-.18-.52-.45-1-.79a1.66,1.66,0,0,1-.74-1.29,1.29,1.29,0,0,1,.54-1.07,2.29,2.29,0,0,1,1.39-.41,2.63,2.63,0,0,1,1.52.48l-.46.66a1.73,1.73,0,0,0-1-.34.86.86,0,0,0-.55.17.54.54,0,0,0-.21.45c0,.23.18.5.54.8l.92.77a2,2,0,0,1,.87,1.51"/><path class="cls-12" d="M170.38,82.31a2.76,2.76,0,0,1-1.47.41,2.18,2.18,0,0,1-1.61-.62,2.1,2.1,0,0,1-.64-1.6,2.14,2.14,0,0,1,.67-1.61,2.33,2.33,0,0,1,1.7-.64,2.45,2.45,0,0,1,1.29.35l-.33.6a1.94,1.94,0,0,0-.82-.2,1.22,1.22,0,0,0-1,.4,1.49,1.49,0,0,0-.36,1,1.58,1.58,0,0,0,.37,1.1,1.2,1.2,0,0,0,1,.42,1.91,1.91,0,0,0,.9-.27l.3.61Z"/><path class="cls-12" d="M172,82.62h-1.13V78.36H172Zm.08-5.58a.62.62,0,0,1-.19.46.61.61,0,0,1-.45.19.65.65,0,0,1-.46-.18.59.59,0,0,1-.19-.44.65.65,0,0,1,.18-.48.62.62,0,0,1,.48-.19.58.58,0,0,1,.45.19.61.61,0,0,1,.18.45"/><path class="cls-12" d="M175.67,80v-.21c0-.64-.32-1-.83-1s-.91.39-.94,1.18Zm1,.42-.11.07-.11.08h-2.56a1.42,1.42,0,0,0,.37,1,1.24,1.24,0,0,0,.94.37,2.13,2.13,0,0,0,1.11-.34l.31.59a3.35,3.35,0,0,1-1.66.48,2.14,2.14,0,0,1-1.55-.58,2.26,2.26,0,0,1-.71-1.72,2.12,2.12,0,0,1,.63-1.59,2.07,2.07,0,0,1,1.52-.58,1.57,1.57,0,0,1,1.58.94,3,3,0,0,1,.24,1.26"/><path class="cls-12" d="M181.53,82.62H180.4V80.18a1.75,1.75,0,0,0-.13-.8.74.74,0,0,0-.69-.36.86.86,0,0,0-.91.59,2.37,2.37,0,0,0-.07.7v2.31h-1.14V78.35h1.14v.58a1.9,1.9,0,0,1,1.45-.68,1.31,1.31,0,0,1,1.35.8,3.41,3.41,0,0,1,.13,1.15v2.42Z"/><path class="cls-12" d="M185.88,82.31a2.82,2.82,0,0,1-1.48.41,2.21,2.21,0,0,1-1.61-.62,2.14,2.14,0,0,1-.64-1.6,2.17,2.17,0,0,1,.67-1.61,2.36,2.36,0,0,1,1.7-.64,2.46,2.46,0,0,1,1.3.35l-.33.6a1.94,1.94,0,0,0-.82-.2,1.22,1.22,0,0,0-1,.4,1.49,1.49,0,0,0-.36,1,1.62,1.62,0,0,0,.36,1.1,1.24,1.24,0,0,0,1,.42,1.85,1.85,0,0,0,.89-.27Z"/><path class="cls-12" d="M189,80v-.21c-.05-.64-.32-1-.83-1s-.91.39-.95,1.18Zm1,.42-.11.07-.11.08h-2.57a1.46,1.46,0,0,0,.37,1,1.25,1.25,0,0,0,.94.37,2.08,2.08,0,0,0,1.11-.34l.32.59a3.35,3.35,0,0,1-1.66.48,2.17,2.17,0,0,1-1.56-.58,2.25,2.25,0,0,1-.7-1.72,2.12,2.12,0,0,1,.63-1.59,2.07,2.07,0,0,1,1.52-.58,1.57,1.57,0,0,1,1.58.94,3,3,0,0,1,.24,1.26"/><path class="cls-12" d="M193.25,81.44a1.1,1.1,0,0,1-.46.92,1.78,1.78,0,0,1-1.15.36,2.22,2.22,0,0,1-1.41-.49l.36-.6a1.53,1.53,0,0,0,.92.43.68.68,0,0,0,.44-.14.48.48,0,0,0,.16-.38l-.13-.37a5.4,5.4,0,0,0-.6-.5,3.67,3.67,0,0,1-.62-.51,1.07,1.07,0,0,1-.3-.73,1,1,0,0,1,.42-.85,1.6,1.6,0,0,1,1-.33,2.23,2.23,0,0,1,1.22.35l-.33.54a1.22,1.22,0,0,0-.72-.24.6.6,0,0,0-.38.12l-.14.3c0,.17.19.4.58.69a5.19,5.19,0,0,1,.88.76,1.1,1.1,0,0,1,.22.67"/><path class="cls-12" d="M100.64,72.39H97.37V59.73h-.05c-1.78,4.52-3.64,8.61-5.47,12.66H90.09c-1.75-4-3.51-8.14-5.2-12.66h0V72.39H82.23V56.16h4c1.67,4,4.36,10.34,5,12.43h0c.77-2.18,3.69-8.44,5.54-12.43h3.81Z"/><path class="cls-12" d="M110.47,65.2c.11-1.76-.52-3-2-3-1.77,0-2.56,1.42-2.53,3Zm-4.62,1.67a3.49,3.49,0,0,0,3.39,3.81,5.79,5.79,0,0,0,3.1-.93l.88,1.62a9.11,9.11,0,0,1-4.54,1.3,5.94,5.94,0,0,1-6.12-6.31,5.64,5.64,0,0,1,5.91-5.84c3.62,0,5.12,2.89,4.89,6.35Z"/><path class="cls-12" d="M119.06,60.8h3v1.57h-3v5.71c0,1.9.58,2.71,1.61,2.71a3,3,0,0,0,1.48-.39l.53,1.53a6.66,6.66,0,0,1-3,.74c-2.55,0-3.66-1.35-3.66-3.71V62.37h-1.62V60.8H116V58l3.08-.7V60.8Z"/><path class="cls-12" d="M127,62.84h0l.62-.91c.37-.48,1-1.41,2-1.41a3,3,0,0,1,2.08,1l-1.16,2.14a2.73,2.73,0,0,0-1.46-.4c-1.06,0-2.11.86-2.11,3.37v5.72H124V60.8H127Z"/><path class="cls-12" d="M140.14,66.46c0-1.93-.67-4.22-2.83-4.22s-2.8,2.29-2.8,4.22.6,4.5,2.8,4.5,2.83-2.47,2.83-4.5m-8.9,0a6.09,6.09,0,1,1,6.07,6.21,5.85,5.85,0,0,1-6.07-6.21"/><path class="cls-12" d="M167.24,66.46c0-1.93-.67-4.22-2.83-4.22s-2.8,2.29-2.8,4.22.6,4.5,2.8,4.5,2.83-2.47,2.83-4.5m-8.91,0a6.09,6.09,0,1,1,6.08,6.21,5.87,5.87,0,0,1-6.08-6.21"/><rect class="cls-12" x="172.55" y="55.35" width="3.08" height="17.04"/><path class="cls-12" d="M181.41,72.39h-3.09V60.8h3.09ZM178,57.32a1.82,1.82,0,0,1,1.79-1.78A1.87,1.87,0,1,1,178,57.32"/><path class="cls-12" d="M188.36,66.23a2.71,2.71,0,0,0-2.27,2.66,1.56,1.56,0,0,0,1.39,1.72c1.23,0,2.83-1.53,2.6-4.94l-1.72.56Zm1,5a5.28,5.28,0,0,1-3,1.39,3.33,3.33,0,0,1-3.32-3.53c0-2.2,1.61-3.45,4.3-4.22l2.73-.8A2.1,2.1,0,0,0,188,62.37a4.44,4.44,0,0,0-3.06,1.19l-1-1.46a6.54,6.54,0,0,1,4.45-1.58c2.14,0,4.75.7,4.75,4.31v4.73a7.21,7.21,0,0,0,.49,2.83h-3.27a3.74,3.74,0,0,1-.3-1.69l-.69.58Z"/><path class="cls-12" d="M150.92,70.81c-1.67,0-2.85-1.64-2.85-4.07,0-2.67,1-4.37,3-4.37,1.77,0,2.65,2,2.65,4s-.7,4.45-2.76,4.45m.9-10.29a4.59,4.59,0,0,0-3.7,1.88h-.05V60.8H145v15h3.09V71a4.52,4.52,0,0,0,3.47,1.71c3.32,0,5.41-3.27,5.41-6.33,0-2.55-1.49-5.82-5.13-5.82"/></g></svg>