<svg id="Layer_1" data-name="Layer 1" xmlns="http://www.w3.org/2000/svg" viewBox="0 0 260.8 94.02"><defs><style>.cls-1{fill:none;}.cls-2{fill:#010101;}.cls-3{fill:#b01a1a;}</style></defs><title>Artboard 1</title><rect id="Artboard1" class="cls-1" x="2.57" y="-3.58" width="255.29" height="595.15"/><g id="Layer-1"><path class="cls-2" d="M94,48c-1.7.14-1.87.25-1.87,2v8.39c0,1.76.17,1.87,1.87,2V61H88.18v-.61c1.76-.14,1.93-.25,1.93-2V54.28H83.23v4.13c0,1.76.17,1.87,1.85,2V61H79.44v-.61c1.65-.14,1.82-.25,1.82-2V50c0-1.76-.17-1.87-1.89-2V47.4H85V48c-1.57.14-1.74.25-1.74,2v3.34h6.88V50c0-1.74-.17-1.87-1.78-2V47.4H94Z"/><path class="cls-2" d="M100.65,56c-.44.23-1.3.63-1.76.84-.77.37-1.21.75-1.21,1.53A1.49,1.49,0,0,0,99.12,60a2.48,2.48,0,0,0,1.53-.67Zm1.6,5.28a1.62,1.62,0,0,1-1-.42,1.8,1.8,0,0,1-.5-.9,6.71,6.71,0,0,1-2.43,1.32,2.58,2.58,0,0,1-2.58-2.58,2,2,0,0,1,1.67-2.05,16,16,0,0,0,3.27-1.39v-.42c0-1.46-.67-2.3-1.67-2.3a1.14,1.14,0,0,0-.91.4,3.42,3.42,0,0,0-.6,1.4.63.63,0,0,1-.67.52,1.06,1.06,0,0,1-1-.92c0-.33.27-.56.69-.88a9.51,9.51,0,0,1,3.21-1.47,2.79,2.79,0,0,1,1.76.57,3,3,0,0,1,1,2.62V58.6c0,.94.35,1.23.71,1.23a2,2,0,0,0,.76-.2l.21.56Z"/><path class="cls-2" d="M110.17,56c-.44.23-1.3.63-1.76.84-.78.37-1.22.75-1.22,1.53A1.5,1.5,0,0,0,108.64,60a2.48,2.48,0,0,0,1.53-.67Zm1.6,5.28a1.62,1.62,0,0,1-1-.42,1.8,1.8,0,0,1-.5-.9,6.66,6.66,0,0,1-2.44,1.32,2.59,2.59,0,0,1-2.58-2.58,2,2,0,0,1,1.68-2.05,16,16,0,0,0,3.27-1.39v-.42c0-1.46-.67-2.3-1.68-2.3a1.12,1.12,0,0,0-.9.4,3.55,3.55,0,0,0-.61,1.4.62.62,0,0,1-.67.52,1.06,1.06,0,0,1-1-.92c0-.33.27-.56.69-.88a9.51,9.51,0,0,1,3.21-1.47,2.79,2.79,0,0,1,1.76.57,3,3,0,0,1,1,2.62V58.6c0,.94.35,1.23.71,1.23a1.9,1.9,0,0,0,.75-.2l.21.56Z"/><path class="cls-2" d="M117.68,59.44a2.88,2.88,0,0,0,1.9.82c1.66,0,2.77-1.49,2.77-3.84s-1.3-3.5-2.72-3.5a3.69,3.69,0,0,0-1.95.81Zm1.84-7.51a2.2,2.2,0,0,1,1-.34,3.77,3.77,0,0,1,3.73,4c0,3.14-2.49,5.18-5.22,5.7a3.54,3.54,0,0,1-1.4-.35v2.74c0,1.51.14,1.64,1.76,1.77V66h-5.12v-.58c1.34-.13,1.51-.26,1.51-1.6V54.36c0-1.32-.1-1.38-1.36-1.53v-.52a20.15,20.15,0,0,0,3.21-.93V53Z"/><path class="cls-2" d="M131.45,54.36c-.42-1.24-1.13-2.07-2.16-2.07a1.3,1.3,0,0,0-1.3,1.38c0,.88.76,1.36,1.72,1.78,1.62.67,2.68,1.41,2.68,2.9,0,1.95-1.8,2.93-3.5,2.93a4.34,4.34,0,0,1-2.45-.71,10.77,10.77,0,0,1-.36-2.54l.59-.08c.38,1.36,1.32,2.62,2.6,2.62a1.41,1.41,0,0,0,1.43-1.41c0-.88-.55-1.36-1.64-1.88S126.4,56,126.4,54.36s1.28-2.77,3.25-2.77a4.43,4.43,0,0,1,1.9.38,17.14,17.14,0,0,1,.47,2.24Z"/><path class="cls-2" d="M138.93,56c-.43.23-1.3.63-1.76.84-.77.37-1.21.75-1.21,1.53A1.49,1.49,0,0,0,137.4,60a2.48,2.48,0,0,0,1.53-.67Zm1.6,5.28a1.62,1.62,0,0,1-1-.42,1.8,1.8,0,0,1-.5-.9,6.71,6.71,0,0,1-2.43,1.32A2.58,2.58,0,0,1,134,58.7a2,2,0,0,1,1.67-2.05,16,16,0,0,0,3.27-1.39v-.42c0-1.46-.67-2.3-1.67-2.3a1.14,1.14,0,0,0-.91.4,3.42,3.42,0,0,0-.6,1.4.63.63,0,0,1-.67.52,1.06,1.06,0,0,1-1-.92c0-.33.27-.56.69-.88A9.61,9.61,0,0,1,138,51.59a2.79,2.79,0,0,1,1.76.57,3,3,0,0,1,1,2.62V58.6c0,.94.35,1.23.71,1.23a2,2,0,0,0,.76-.2l.21.56Z"/><path class="cls-2" d="M143,61v-.56c1.32-.15,1.49-.26,1.49-1.64V49c0-1.38-.13-1.45-1.43-1.57v-.5a19.55,19.55,0,0,0,3.26-.74V58.83c0,1.38.16,1.51,1.5,1.64V61Z"/><path class="cls-2" d="M159.29,60.53a26.77,26.77,0,0,0-3.21.75l-.14-.12V59.71a16,16,0,0,1-1.45,1,3.22,3.22,0,0,1-1.66.54c-1.47,0-2.62-.9-2.62-3.1V54.05c0-1.16-.08-1.24-1.28-1.45v-.53a27.62,27.62,0,0,0,3.19-.37c-.06.69-.08,1.7-.08,3.08v2.85c0,1.79.88,2.29,1.78,2.29a3,3,0,0,0,2.12-1V54.05c0-1.18-.11-1.26-1.58-1.45v-.53a24,24,0,0,0,3.42-.37v7c0,1.07.17,1.22,1,1.28l.54,0v.55Z"/><path class="cls-2" d="M172.52,61.07c-.9-1-2.2-2.72-3.31-4.15-.26-.33-.42-.46-.61-.46a1,1,0,0,0-.3.06v2.31c0,1.38.17,1.51,1.49,1.63V61H165v-.57c1.38-.12,1.51-.27,1.51-1.63V49c0-1.34-.11-1.45-1.36-1.57v-.51a19.36,19.36,0,0,0,3.18-.73V56a2.3,2.3,0,0,0,1.3-.73A15,15,0,0,0,171,53.37c.4-.6.34-.79-.63-.9v-.56l4.32-.19v.55A4,4,0,0,0,172,53.48a21.53,21.53,0,0,0-1.74,2c.44.67,2.51,3.15,3.21,3.9a2.85,2.85,0,0,0,2,1.13V61l-3,0Z"/><path class="cls-2" d="M178.26,56c0,2.64,1.07,4.61,2.75,4.61,1.19,0,2.22-.88,2.22-3.8,0-2.53-.94-4.46-2.68-4.46-1.22,0-2.29,1.25-2.29,3.65m7.11.31a4.66,4.66,0,0,1-4.59,5,4.56,4.56,0,0,1-4.66-4.63,4.82,4.82,0,0,1,4.68-5.06,4.57,4.57,0,0,1,4.57,4.68"/><path class="cls-2" d="M186.63,61v-.56c1.32-.15,1.48-.26,1.48-1.64V49c0-1.38-.12-1.45-1.42-1.57v-.5a19.41,19.41,0,0,0,3.25-.74V58.83c0,1.38.17,1.51,1.51,1.64V61Z"/><path class="cls-2" d="M192.24,61v-.56c1.32-.15,1.49-.26,1.49-1.64V49c0-1.38-.13-1.45-1.42-1.57v-.5a19.41,19.41,0,0,0,3.25-.74V58.83c0,1.38.16,1.51,1.51,1.64V61Z"/><path class="cls-2" d="M200.25,55c1.11,0,2.21,0,3.36-.06.35,0,.48-.11.48-.42a1.91,1.91,0,0,0-1.74-2.12c-.92,0-1.83.9-2.1,2.6m5.69,4.24a4.73,4.73,0,0,1-3.48,2.07,4.15,4.15,0,0,1-4.14-4.46,5.43,5.43,0,0,1,1.41-3.7,4.35,4.35,0,0,1,3.1-1.53A3.27,3.27,0,0,1,206,54.82c0,.42-.08.61-.5.7s-3,.25-5.39.33c0,2.75,1.61,3.92,3.08,3.92a3.45,3.45,0,0,0,2.39-1Z"/><path class="cls-2" d="M214.26,53.48a2.47,2.47,0,0,0-2-1.09c-.9,0-2.64.78-2.64,3.84,0,2.51,1.53,3.69,2.81,3.69a3.35,3.35,0,0,0,1.87-.65Zm3.42,7a23.57,23.57,0,0,0-3.42.79V59.94l-1.28.78a3.28,3.28,0,0,1-1.53.56,4.24,4.24,0,0,1-3.95-4.49,5.37,5.37,0,0,1,5.46-5.2,4.59,4.59,0,0,1,1.3.21V48.91c0-1.32-.13-1.39-1.57-1.51v-.53a21.31,21.31,0,0,0,3.41-.73V58.58c0,1.11.13,1.21.93,1.3l.65.06Z"/><path class="cls-2" d="M225.05,47.21a30.91,30.91,0,0,0-2.14,3.44h-.56a31.87,31.87,0,0,0-2.12-3.44l.53-.38a19.36,19.36,0,0,1,1.88,2,20.5,20.5,0,0,1,1.89-2Zm1.77,11.14c-.32.88-.65,1.88-1,2.68h-7l-.17-.31c1.8-2.69,3.46-5.33,5.16-8.14H222.1c-1.49,0-1.81.31-2.39,1.51l-.32.59-.54-.22c.25-.83.56-2.15.73-3.08H220c.13.34.38.46,1.18.46h4.86l.15.3c-1.7,2.71-3.34,5.33-5,8.16h2c1.57,0,2-.4,2.83-1.7l.29-.53.55.28Z"/><path class="cls-3" d="M28.68,61.34v2.49h.78a37.45,37.45,0,0,1,13.22,2.37V46.11c0-3.74,1.41-5.77,3.42-7.13a8,8,0,0,1,3.45,7.13l0,23.59a29.41,29.41,0,0,1,4.62,3.85l0-27.54c0-6.28-3.33-9.77-7-11.92a7.86,7.86,0,0,0-1-.52,10,10,0,0,0-1,.52,13.11,13.11,0,0,0-7,11.92V61.34H33.29l0-15c0-12.43,5.45-19,12.74-23.14,6.84,4.14,12.74,10.71,12.74,23.14l0,15h4.62l0-15.29c0-14.76-7.69-22.83-16.53-28a6.08,6.08,0,0,0-.83-.44,6.53,6.53,0,0,0-.82.44c-8.5,4.81-16.53,13.29-16.53,28.05Z"/><path class="cls-2" d="M82.19,33.81c0,.45,0,.93,0,1.43V37.8a8.07,8.07,0,0,0,.07,1.59c.05.09.22.14.51.14h.34v.28l-1.36,0-1.34,0v-.28h.38a.58.58,0,0,0,.38-.08.47.47,0,0,0,.12-.31c0-.35,0-.8,0-1.36V35.21c0-.51,0-1,0-1.4h-.46a7.48,7.48,0,0,0-1.23,0c-.07,0-.12.17-.15.41l-.06.6h-.28v-.54q0-.31-.06-.93l2.87,0,2.5,0c0,.51-.09,1-.09,1.47H84l0-.59a.77.77,0,0,0-.08-.36.33.33,0,0,0-.22-.07c-.33,0-.71,0-1.13,0Z"/><path class="cls-2" d="M86.25,37.27h2.27l-1.13-2.73Zm2.44.36H86.08l-.31.75a3.68,3.68,0,0,0-.3.88.18.18,0,0,0,.06.15.66.66,0,0,0,.28.07l.43.05v.28c-.28,0-.61,0-1,0s-.81,0-1.14,0v-.28h.14a.94.94,0,0,0,.4-.07c.07,0,.13-.13.2-.28.21-.43.43-.9.65-1.4L86.75,35c.34-.75.56-1.29.68-1.63h.31L90,38.66a5,5,0,0,0,.3.65.64.64,0,0,0,.17.16,1.57,1.57,0,0,0,.45.06v.28l-1.1,0-1.31,0v-.28l.44,0a.63.63,0,0,0,.29,0,.14.14,0,0,0,.06-.12,1.63,1.63,0,0,0-.13-.42Z"/><path class="cls-2" d="M93.26,39.36c.3,0,.58,0,.87,0,.56,0,1,0,1.32,0a6.38,6.38,0,0,0,.69-.13l.27-1.06h.28c-.08.57-.14,1.1-.18,1.6a8,8,0,0,1-1.11.06l-2.14,0-1.35,0v-.23a.72.72,0,0,0,.43-.34,7.76,7.76,0,0,0,.07-1.42V35.34a8.21,8.21,0,0,0-.07-1.5c0-.11-.17-.16-.37-.16h-.48V33.4l1.42,0,1.28,0v.28h-.56c-.16,0-.26,0-.3.14A5,5,0,0,0,93.26,35v2.86l0,1.28Z"/><path class="cls-2" d="M99,39.36c.3,0,.58,0,.86,0,.57,0,1,0,1.33,0a6.38,6.38,0,0,0,.69-.13l.27-1.06h.28c-.08.57-.14,1.1-.18,1.6a8,8,0,0,1-1.11.06l-2.14,0-1.35,0v-.23a.72.72,0,0,0,.43-.34,8.3,8.3,0,0,0,.06-1.42V35.34a8.8,8.8,0,0,0-.06-1.5c0-.11-.17-.16-.37-.16h-.49V33.4l1.43,0,1.28,0v.28h-.57a.29.29,0,0,0-.29.14A4.38,4.38,0,0,0,99,35v2.86l0,1.28,0,.26Z"/><path class="cls-2" d="M103.07,39.53h.28c.28,0,.45-.07.51-.2a11.58,11.58,0,0,0,.08-1.94V35.86a12.48,12.48,0,0,0-.07-2c-.05-.13-.19-.19-.44-.19h-.36V33.4c.5,0,1,0,1.49,0s.78,0,1.11,0v.28h-.35a.7.7,0,0,0-.41.08.67.67,0,0,0-.09.39c0,.32,0,.89,0,1.71v1.56a11.72,11.72,0,0,0,.07,1.93c.06.12.22.18.5.18h.3v.28c-.37,0-.78,0-1.22,0s-1,0-1.38,0Z"/><path class="cls-2" d="M108.13,34.41v3.12c0,.71,0,1.21,0,1.49a.72.72,0,0,0,.11.39.88.88,0,0,0,.44.1l.28,0v.28l-.88,0-1.27,0v-.28h.32a.66.66,0,0,0,.39-.08.51.51,0,0,0,.11-.32,12.24,12.24,0,0,0,0-1.35V35.54c0-.42,0-.84,0-1.25a.9.9,0,0,0-.07-.36.59.59,0,0,0-.18-.17.62.62,0,0,0-.33-.08h-.28V33.4l.88,0c.21,0,.45,0,.71,0,.29.36.57.72.83,1.06l.82,1,1.54,1.89c.56.68,1,1.15,1.2,1.42v-2.9a14.78,14.78,0,0,0-.06-2c0-.12-.22-.19-.52-.22l-.34,0V33.4l1.12,0c.28,0,.64,0,1.09,0v.28h-.35c-.29,0-.45.09-.49.28s0,.78,0,2v2c0,.54,0,1.2.07,2a5.4,5.4,0,0,1-.7-.14.62.62,0,0,1-.19-.14c-.34-.37-.69-.78-1-1.24Z"/><path class="cls-2" d="M116.08,34.41v3.12c0,.71,0,1.21,0,1.49a.72.72,0,0,0,.11.39.83.83,0,0,0,.43.1l.29,0v.28l-.89,0-1.27,0v-.28h.33a.66.66,0,0,0,.39-.08.51.51,0,0,0,.11-.32c0-.33,0-.78,0-1.35V35.54c0-.42,0-.84,0-1.25a.9.9,0,0,0-.07-.36,1,1,0,0,0-.18-.17.62.62,0,0,0-.33-.08h-.28V33.4l.87,0c.22,0,.45,0,.71,0,.3.36.58.72.84,1.06s.53.69.82,1l1.54,1.89c.55.68,1,1.15,1.2,1.42v-2.9a12.21,12.21,0,0,0-.07-2c0-.12-.22-.19-.52-.22l-.34,0V33.4l1.13,0c.28,0,.64,0,1.08,0v.28h-.35c-.28,0-.44.09-.48.28s0,.78,0,2v2c0,.54,0,1.2.07,2a5.76,5.76,0,0,1-.71-.14.62.62,0,0,1-.19-.14c-.33-.37-.68-.78-1-1.24Z"/><path class="cls-2" d="M124.3,37.27h2.28l-1.14-2.73Zm2.44.36h-2.61l-.31.75a3.68,3.68,0,0,0-.3.88.18.18,0,0,0,.06.15.66.66,0,0,0,.28.07l.44.05v.28c-.29,0-.62,0-1,0s-.81,0-1.13,0v-.28h.13a1,1,0,0,0,.41-.07.62.62,0,0,0,.19-.28c.22-.43.43-.9.65-1.4l1.24-2.8c.33-.75.55-1.29.67-1.63h.32l2.27,5.31a5,5,0,0,0,.3.65.55.55,0,0,0,.18.16,1.43,1.43,0,0,0,.44.06v.28l-1.1,0-1.31,0v-.28l.45,0c.16,0,.25,0,.28,0a.13.13,0,0,0,.07-.12,1.86,1.86,0,0,0-.14-.42l-.5-1.28Z"/><path class="cls-2" d="M137.79,31.94a.46.46,0,0,1,.35.14.5.5,0,0,1,.14.35.52.52,0,0,1-.14.35.5.5,0,0,1-.35.14.52.52,0,0,1-.35-.14.49.49,0,0,1-.15-.35.47.47,0,0,1,.15-.35.45.45,0,0,1,.35-.14m-1.94,0a.44.44,0,0,1,.34.14.47.47,0,0,1,.15.35.49.49,0,0,1-.15.35.48.48,0,0,1-.34.14.5.5,0,0,1-.5-.49.47.47,0,0,1,.15-.35.45.45,0,0,1,.35-.14m-2.64,1.74V33.4l1.34,0,1.31,0v.28h-.33c-.28,0-.45.06-.51.16a6.11,6.11,0,0,0-.08,1.47v1.76a5.93,5.93,0,0,0,.1,1.35,1.15,1.15,0,0,0,.55.64,2.37,2.37,0,0,0,1.18.26,2.77,2.77,0,0,0,1.29-.28,1.16,1.16,0,0,0,.53-.6,4.75,4.75,0,0,0,.17-1.55V35.2a4.25,4.25,0,0,0-.11-1.35c-.07-.11-.26-.17-.58-.17h-.23V33.4l1.19,0,1,0v.28h-.31c-.24,0-.4.07-.46.19a4.44,4.44,0,0,0-.11,1.35V36.9a7.22,7.22,0,0,1-.11,1.56,1.79,1.79,0,0,1-.42.73,2,2,0,0,1-.82.51,3.34,3.34,0,0,1-1.19.19,4.26,4.26,0,0,1-1.25-.16,2.37,2.37,0,0,1-.8-.42,1.46,1.46,0,0,1-.39-.61,4.24,4.24,0,0,1-.12-1.21V35.26a6.4,6.4,0,0,0-.08-1.43c-.05-.1-.2-.15-.47-.15Z"/><path class="cls-2" d="M142.74,39.36c.29,0,.58,0,.86,0,.56,0,1,0,1.33,0a5.79,5.79,0,0,0,.68-.13l.28-1.06h.27c-.07.57-.13,1.1-.17,1.6a8.25,8.25,0,0,1-1.12.06l-2.14,0-1.34,0v-.23a.75.75,0,0,0,.43-.34,8.3,8.3,0,0,0,.06-1.42V35.34a8.8,8.8,0,0,0-.06-1.5c0-.11-.17-.16-.37-.16H141V33.4l1.42,0,1.28,0v.28h-.56c-.16,0-.26,0-.3.14a5.3,5.3,0,0,0-.06,1.14v4.4Z"/><path class="cls-2" d="M146.72,39.53H147c.28,0,.45-.07.51-.2a11.58,11.58,0,0,0,.08-1.94V35.86a12.48,12.48,0,0,0-.07-2c-.05-.13-.19-.19-.44-.19h-.36V33.4c.5,0,1,0,1.49,0s.78,0,1.11,0v.28H149a.66.66,0,0,0-.4.08c-.06.05-.09.18-.1.39s0,.89,0,1.71v1.56a11,11,0,0,0,.08,1.93c.05.12.21.18.49.18h.3v.28c-.37,0-.78,0-1.21,0s-1,0-1.39,0v-.28Z"/><path class="cls-2" d="M153.16,36.25l3.06,2.88.28.26a.3.3,0,0,0,.17.11,1,1,0,0,0,.29,0v.28l-.65,0-.64,0-3.1-3c-.11-.1-.17-.15-.19-.15s-.1.06-.1.18v1.38a6.43,6.43,0,0,0,0,1.1c.05.1.21.16.49.16h.34v.28l-1.31,0-1.29,0v-.28h.37c.24,0,.38,0,.43-.13a4.43,4.43,0,0,0,.07-1.15v-3a6.4,6.4,0,0,0-.07-1.39c0-.11-.19-.16-.43-.16h-.37V33.4l1.2,0,1.4,0v.28h-.36a.73.73,0,0,0-.39.09.4.4,0,0,0-.1.27c0,.14,0,.54,0,1.2v1.21h.07c.24-.19.45-.38.63-.55s.47-.46.87-.87l1.28-1.33V33.4l.82,0,.75,0v.28h-.25a1.07,1.07,0,0,0-.55.13,9.31,9.31,0,0,0-1,.87l-1.7,1.57Z"/><path class="cls-2" d="M158.1,36.24a4.19,4.19,0,0,0,.34,1.76,2.63,2.63,0,0,0,.93,1.13,2.52,2.52,0,0,0,1.34.37,2.3,2.3,0,0,0,1.21-.32,2.14,2.14,0,0,0,.82-1,3.55,3.55,0,0,0,.3-1.54,3.66,3.66,0,0,0-.33-1.62,2.33,2.33,0,0,0-.91-1,2.65,2.65,0,0,0-1.35-.34,2.42,2.42,0,0,0-1.24.3,2.18,2.18,0,0,0-.82.88,2.92,2.92,0,0,0-.29,1.35m-.93.36a3.12,3.12,0,0,1,1-2.38,3.54,3.54,0,0,1,2.54-.9,3.4,3.4,0,0,1,2.44.84,2.92,2.92,0,0,1,.88,2.22,3.39,3.39,0,0,1-1,2.51,3.56,3.56,0,0,1-2.59,1,3.42,3.42,0,0,1-1.68-.39,2.79,2.79,0,0,1-1.12-1.16,3.61,3.61,0,0,1-.41-1.74"/><path class="cls-2" d="M165.63,36.24A4.19,4.19,0,0,0,166,38a2.71,2.71,0,0,0,.93,1.13,2.52,2.52,0,0,0,1.34.37,2.3,2.3,0,0,0,1.21-.32,2.14,2.14,0,0,0,.82-1,3.55,3.55,0,0,0,.3-1.54,3.66,3.66,0,0,0-.33-1.62,2.37,2.37,0,0,0-.9-1,2.72,2.72,0,0,0-1.36-.34,2.42,2.42,0,0,0-1.24.3,2.18,2.18,0,0,0-.82.88,2.92,2.92,0,0,0-.29,1.35m-.93.36a3.12,3.12,0,0,1,1-2.38,3.54,3.54,0,0,1,2.54-.9,3.4,3.4,0,0,1,2.44.84,2.92,2.92,0,0,1,.88,2.22,3.39,3.39,0,0,1-1,2.51,3.54,3.54,0,0,1-2.59,1,3.42,3.42,0,0,1-1.68-.39,2.85,2.85,0,0,1-1.12-1.16,3.61,3.61,0,0,1-.41-1.74"/><path class="cls-2" d="M174,39.36c.29,0,.58,0,.86,0,.56,0,1,0,1.32,0a6,6,0,0,0,.69-.13l.27-1.06h.28c-.07.57-.14,1.1-.18,1.6a8,8,0,0,1-1.11.06l-2.14,0-1.35,0v-.23a.72.72,0,0,0,.43-.34,6.85,6.85,0,0,0,.07-1.42V35.34a7.27,7.27,0,0,0-.07-1.5c0-.11-.16-.16-.36-.16h-.49V33.4l1.42,0,1.28,0v.28h-.56c-.16,0-.26,0-.3.14A5.3,5.3,0,0,0,174,35v4.4Z"/></g></svg>