<svg id="Layer_1" data-name="Layer 1" xmlns="http://www.w3.org/2000/svg" xmlns:xlink="http://www.w3.org/1999/xlink" viewBox="0 0 170.08 226.77"><defs><style>.cls-1{fill:none;}.cls-2{fill:#616b6f;}.cls-3{clip-path:url(#clip-path);}.cls-4{clip-path:url(#clip-path-2);}.cls-5{fill:#5f4646;}.cls-6{fill:#e39b08;}.cls-7{clip-path:url(#clip-path-3);}.cls-8{fill:#72992f;}.cls-9{fill:#6d8d2d;}.cls-10{fill:#8a5f3c;}.cls-11{fill:#744c29;}.cls-12{fill:#498031;}.cls-13{fill:#559132;}.cls-14{fill:#6c6d45;}.cls-15{fill:#5c782a;}.cls-16{fill:#92bb36;}.cls-17{fill:#90b736;}.cls-18{fill:#635746;}.cls-19{fill:#5f5d3d;}.cls-20{fill:#b2b2b4;}.cls-21{fill:#858789;}.cls-22{fill:#434d4f;}.cls-23{fill:#c7c7c8;}.cls-24{fill:#9b9c9d;}.cls-25{fill:#d9dadb;}.cls-26{fill:#b8d5dd;}.cls-27{fill:#d5e9ef;}.cls-28{fill:#c4cfdd;}.cls-29{fill:#8fa7ad;}.cls-30{fill:#ccdce5;}.cls-31{fill:#a8c2c5;}.cls-32{fill:#d3e9f5;}.cls-33{fill:#7c4d25;}.cls-33,.cls-34,.cls-36{fill-rule:evenodd;}.cls-34,.cls-40{fill:#916037;}.cls-35{fill:#e7c47e;}.cls-36,.cls-39{fill:#af7e46;}.cls-37{fill:#9b3b35;}.cls-38{fill:#fceef4;}.cls-41{fill:#cb850d;}.cls-42{fill:#595557;}.cls-43{fill:#aa9fa3;}.cls-44{fill:#aaa1a5;}.cls-45{fill:#b0aba1;}.cls-46{fill:#928877;}.cls-47{fill:#e3e6e8;}.cls-48{fill:#8da6a5;}.cls-49{fill:#a09a8e;}.cls-50{fill:#e4dad2;}.cls-51{fill:#8e8880;}.cls-52{fill:#545455;}.cls-53{fill:#809f9f;}.cls-54{fill:#6e912d;}.cls-55{fill:#84b82b;}.cls-56{fill:#76a22d;}.cls-57{fill:#95bf36;}.cls-58{fill:#eeece8;}.cls-59{fill:#aca7a4;}</style><clipPath id="clip-path"><path class="cls-1" d="M464.05,224.78a5.4,5.4,0,0,1-5.4,5.4H212.92a5.4,5.4,0,0,1-5.4-5.4V-20.89a5.39,5.39,0,0,1,5.4-5.39H458.65a5.39,5.39,0,0,1,5.4,5.39V224.78"/></clipPath><clipPath id="clip-path-2"><polyline class="cls-1" points="477.55 243.68 194.02 243.68 194.02 -39.78 477.55 -39.78 477.55 243.68"/></clipPath><clipPath id="clip-path-3"><path class="cls-1" d="M180.4,224.4a5.4,5.4,0,0,1-5.4,5.4H-70.67a5.4,5.4,0,0,1-5.4-5.4V-21.27a5.4,5.4,0,0,1,5.4-5.4H175a5.4,5.4,0,0,1,5.4,5.4V224.4"/></clipPath></defs><title>Artboard 29</title><polyline class="cls-2" points="476.7 243.48 -940.3 243.48 -940.3 -890.52 476.7 -890.52 476.7 243.48"/><g class="cls-3"><g class="cls-4"><polygon class="cls-5" points="214.21 128.14 238.03 141.88 190.4 169.37 166.58 155.63 214.21 128.14"/></g></g><polyline class="cls-6" points="194.02 243.68 -89.45 243.68 -89.45 -39.78 194.02 -39.78 194.02 243.68"/><g class="cls-7"><polyline class="cls-8" points="193.9 235.11 -89.57 235.11 -89.57 -48.35 193.9 -48.35 193.9 235.11"/><polyline class="cls-2" points="-100.88 257.72 211.61 77.31 211.61 271.29 -77.38 271.29 -100.88 257.72"/><path class="cls-9" d="M42.72,16.33c-6.19,0-11.21,1.81-11.21,4.05s5,4.05,11.21,4.05,11.2-1.81,11.2-4.05-5-4.05-11.2-4.05"/><path class="cls-10" d="M41.77-1.61l-1,21.67c0,.49.88.89,2,.89V-1.61Z"/><path class="cls-11" d="M44.69,20.06l-1-21.67h-.94V21C43.81,21,44.69,20.55,44.69,20.06Z"/><polygon class="cls-12" points="32.24 14.72 35.44 15.37 39.08 14.42 42.71 15.37 46.35 14.42 49.99 15.37 53.19 14.71 52.24 10.28 49.55 6.21 48.61 1.41 45.91 -2.66 44.97 -7.46 42.71 -11.24 40.46 -7.46 39.52 -2.67 36.83 1.41 35.88 6.2 33.18 10.29 32.24 14.72"/><polygon class="cls-13" points="33.42 5.79 36.23 6.44 39.47 5.5 42.71 6.44 45.95 5.5 49.2 6.44 52.01 5.79 51.26 1.84 48.77 -1.76 48.02 -6.08 45.52 -9.67 44.77 -13.99 42.71 -17.3 40.66 -13.99 39.91 -9.68 37.41 -6.08 36.66 -1.77 34.16 1.85 33.42 5.79"/><path class="cls-9" d="M100.62,9.9c-6.19,0-11.2,1.81-11.2,4s5,4.05,11.2,4.05,11.2-1.81,11.2-4.05-5-4-11.2-4"/><path class="cls-10" d="M99.68-5.84l-1,19.55c0,.45.89.82,2,.82V-5.84Z"/><path class="cls-11" d="M102.59,13.71l-1-19.55h-.94V14.53C101.71,14.53,102.59,14.16,102.59,13.71Z"/><polygon class="cls-12" points="90.15 8.89 93.34 9.48 96.98 8.63 100.61 9.48 104.25 8.63 107.89 9.48 111.09 8.89 110.15 4.89 107.45 1.21 106.51 -3.12 103.82 -6.79 102.87 -11.12 100.62 -14.54 98.36 -11.13 97.42 -6.8 94.73 -3.12 93.78 1.21 91.08 4.9 90.15 8.89"/><polygon class="cls-13" points="91.32 0.84 94.13 1.43 97.37 0.57 100.61 1.43 103.86 0.57 107.1 1.43 109.91 0.84 109.17 -2.73 106.67 -5.98 105.92 -9.88 103.43 -13.12 102.68 -17.02 100.62 -20.01 98.56 -17.02 97.81 -13.13 95.31 -9.88 94.57 -5.99 92.06 -2.72 91.32 0.84"/><path class="cls-8" d="M324.64,236.39c0,44-58.49,79.69-130.64,79.69S63.36,280.4,63.36,236.39,121.85,156.7,194,156.7s130.64,35.68,130.64,79.69"/><path class="cls-14" d="M152.9,205c-2.23.38-3.69,1-3.69,1.72a.31.31,0,0,0,0,.1,39.21,39.21,0,0,1,4.81.81c-.62-.41-.71-1.85-1.13-2.63m8.94-.16c-.58.76-.59,2.67-1.46,2.89l-.15,0c-.86,0-2-1.76-2.92-1.76a2.82,2.82,0,0,0-1.5.87,3.15,3.15,0,0,1-1.37.87,9.5,9.5,0,0,1,2.87,1.13h.77c4.82,0,8.71-.94,8.71-2.11,0-.84-2-1.57-4.95-1.92"/><path class="cls-15" d="M166.47,197.7c0,1.05-2.16,1.82-2.3,2.66-.17,1.06,1.52,2.58,1.16,3.34-.46.94-2.64.4-3.33,1s-.68,2.82-1.62,3.06S158.3,206,157.31,206a2.82,2.82,0,0,0-1.5.87c-.57.49-1.12,1-1.59.86-.93-.25-.86-2.47-1.6-3.07s-2.87,0-3.32-1c-.36-.76,1.34-2.27,1.17-3.33-.14-.84-2.29-1.61-2.29-2.67,0-1.28,2.2-2.46,2.4-3.81s-1.54-3.08-1.17-4.34,2.81-1.85,3.35-3c.63-1.32-.37-3.62.42-4.5,1-1.16,3-.11,4.18-.1a6.65,6.65,0,0,0,1.34-.22c1-.22,2.14-.45,2.84.34s-.23,3.17.39,4.49c.54,1.15,3,1.68,3.34,3s-1.39,3-1.19,4.35,2.39,2.54,2.39,3.82"/><path class="cls-16" d="M164.53,199.8a1.11,1.11,0,0,0-.36.56c-.15.9,1.05,2.13,1.19,2.94a1.59,1.59,0,0,0,.26-.48c.27-.76-.74-1.93-1.09-3m-.3-7a2.15,2.15,0,0,0-.15,1c.15,1,1.35,1.88,2,2.79a1.84,1.84,0,0,0,.44-1.14c-.06-.95-1.67-1.74-2.28-2.69m-.92-5.09A6.76,6.76,0,0,1,165,189a1.25,1.25,0,0,0-.08-.55c-.17-.4-.91-.53-1.58-.68m-1.5-3.82a5.46,5.46,0,0,0,.12,2.6,1.53,1.53,0,0,0,.19.3c.12-.79,1.11-2,.83-2.47-.16-.3-.63-.39-1.14-.43m-2.32-3.53c-.39,0-.66.37-1.12.51a1.51,1.51,0,0,1-.39.94l.72-.15a7.06,7.06,0,0,1,1.42-.21c0-.41.06-.75-.11-.88a.88.88,0,0,0-.52-.21"/><path class="cls-17" d="M160.12,181.49a7.06,7.06,0,0,0-1.42.21l-.72.15a1,1,0,0,0-.19,1.44c.34.58,2.5.42,2.82,1.22s-1.42,2-1.24,2.81,2.26,1.24,2.3,2.05-2,1.43-2.12,2.23c-.14,1,1.57,2.57,1.27,3.87-.26,1.14-2.51,1.92-2.74,3.09s1.54,2.73,1.48,3.8c-.09,1.55-1.52,3.52-.79,4.09a.44.44,0,0,0,.27.09c.7,0,1.85-1.41,3.32-2.11.58-.28,2.25-.15,3-1.13-.14-.81-1.34-2-1.19-2.94a1.11,1.11,0,0,1,.36-.56,1.85,1.85,0,0,1-.11-.83c.08-.74,1.06-1.5,1.65-2.3-.64-.91-1.84-1.81-2-2.79a2.15,2.15,0,0,1,.15-1,1.62,1.62,0,0,1-.21-.47c-.21-.93.89-2.31.95-3.39a6.76,6.76,0,0,0-1.66-1.23c-.53-.12-1-.25-1.15-.52a.74.74,0,0,1,0-.4,1.53,1.53,0,0,1-.19-.3,5.46,5.46,0,0,1-.12-2.6c-.7-.06-1.5,0-1.72-.33s-.07-1.39,0-2.11"/><path class="cls-14" d="M140.79,206.36c-9.5,0-17.21,1.55-17.21,3.45s7.71,3.45,17.21,3.45S158,211.71,158,209.81c0-.34-.24-.66-.69-1-4.4-.09-7.89-1-8.09-2a76.66,76.66,0,0,0-8.43-.44"/><path class="cls-18" d="M149.22,206.8c.2,1.07,3.69,1.95,8.09,2a9.5,9.5,0,0,0-2.87-1.13h-.22a.66.66,0,0,1-.19-.09,39.21,39.21,0,0,0-4.81-.81"/><path class="cls-19" d="M154,207.61a.66.66,0,0,0,.19.09h.22l-.41-.1"/><path class="cls-20" d="M153.35,205.42c0,4.28-5.62,5.34-12.56,5.34s-12.55-1.06-12.55-5.34.92-12.28,7.85-12.28S153.35,201.14,153.35,205.42Z"/><path class="cls-14" d="M151.38,215.63c-7.2,0-13,1.54-13,3.45s5.84,3.44,13,3.44,13-1.54,13-3.44-5.83-3.45-13-3.45"/><path class="cls-21" d="M164.42,214.51c0,3.47-4.92,6.28-11,6.28s-11-2.81-11-6.28,4.92-9.88,11-9.88S164.42,211,164.42,214.51Z"/><path class="cls-22" d="M74.08,226.09c0,.31-.82.56-1.83.56s-1.83-.25-1.83-.56.82-.57,1.83-.57S74.08,225.78,74.08,226.09Z"/><path class="cls-21" d="M73.22,225.72c0,.24-.43.44-1,.44s-1-.2-1-.44.43-.45,1-.45S73.22,225.47,73.22,225.72Z"/><rect class="cls-21" x="71.28" y="215.54" width="1.95" height="10.17"/><path class="cls-23" d="M73.22,215.59c0,.25-.43.45-1,.45s-1-.2-1-.45.43-.44,1-.44S73.22,215.35,73.22,215.59Z"/><path class="cls-21" d="M71.63,193.44v22.12c0,.14.28.25.62.25s.62-.11.62-.25V193.44Z"/><path class="cls-24" d="M75.21,195.51c0,1-1.36,2.17-3,2.17s-3-1.18-3-2.17,1.37-1.79,3-1.79S75.21,194.52,75.21,195.51Z"/><path class="cls-25" d="M75.2,195.36c0,.83-1.36,1.49-3,1.49s-3-.66-3-1.49,1.36-1.49,3-1.49S75.2,194.54,75.2,195.36Z"/><path class="cls-26" d="M74.88,195.05l0-.25a3.05,3.05,0,0,0-5.38,0l0,.25c0,.82,1.22,1.49,2.72,1.49S74.88,195.87,74.88,195.05Z"/><path class="cls-27" d="M72.57,194.49a1.15,1.15,0,1,1-1.13-.93A1,1,0,0,1,72.57,194.49Z"/><path class="cls-22" d="M92.47,200c0,.31-.82.56-1.83.56s-1.83-.25-1.83-.56.82-.56,1.83-.56S92.47,199.66,92.47,200Z"/><path class="cls-21" d="M91.62,199.6c0,.25-.44.45-1,.45s-1-.2-1-.45.44-.44,1-.44S91.62,199.36,91.62,199.6Z"/><rect class="cls-21" x="89.67" y="189.42" width="1.95" height="10.17"/><path class="cls-23" d="M91.62,189.48c0,.25-.44.44-1,.44s-1-.19-1-.44.44-.45,1-.45S91.62,189.23,91.62,189.48Z"/><path class="cls-21" d="M90,167.32v22.13c0,.13.28.24.62.24s.62-.11.62-.24V167.32Z"/><path class="cls-24" d="M93.6,169.39c0,1-1.36,2.17-3,2.17s-3-1.18-3-2.17,1.37-1.79,3-1.79S93.6,168.41,93.6,169.39Z"/><path class="cls-25" d="M93.6,169.25c0,.82-1.37,1.49-3,1.49s-3-.67-3-1.49,1.36-1.49,3-1.49S93.6,168.42,93.6,169.25Z"/><path class="cls-26" d="M93.27,168.94l0-.25a3,3,0,0,0-5.38,0l0,.25c0,.82,1.22,1.49,2.72,1.49S93.27,169.76,93.27,168.94Z"/><path class="cls-27" d="M91,168.37a1.14,1.14,0,1,1-1.12-.92A1,1,0,0,1,91,168.37Z"/><path class="cls-22" d="M117.06,183.32c0,.31-.82.57-1.83.57s-1.83-.26-1.83-.57.82-.56,1.83-.56S117.06,183,117.06,183.32Z"/><path class="cls-21" d="M116.2,183c0,.25-.44.45-1,.45s-1-.2-1-.45.44-.44,1-.44S116.2,182.71,116.2,183Z"/><rect class="cls-21" x="114.25" y="172.77" width="1.95" height="10.17"/><path class="cls-23" d="M116.2,172.83c0,.25-.44.45-1,.45s-1-.2-1-.45.44-.45,1-.45S116.2,172.58,116.2,172.83Z"/><path class="cls-21" d="M114.61,150.67V172.8c0,.13.28.24.62.24s.62-.11.62-.24V150.67Z"/><path class="cls-24" d="M118.19,152.75c0,1-1.37,2.16-3,2.16s-3-1.18-3-2.16,1.36-1.8,3-1.8S118.19,151.76,118.19,152.75Z"/><path class="cls-25" d="M118.18,152.6c0,.82-1.36,1.49-3,1.49s-3-.67-3-1.49,1.37-1.49,3-1.49S118.18,151.77,118.18,152.6Z"/><path class="cls-26" d="M117.86,152.29l0-.25a3,3,0,0,0-5.38,0l0,.25c0,.82,1.22,1.49,2.73,1.49S117.86,153.11,117.86,152.29Z"/><path class="cls-27" d="M115.54,151.72a1.14,1.14,0,1,1-1.12-.92A1,1,0,0,1,115.54,151.72Z"/><path class="cls-22" d="M147.11,172.41c0,.32-.82.57-1.83.57s-1.83-.25-1.83-.57.82-.56,1.83-.56S147.11,172.1,147.11,172.41Z"/><path class="cls-21" d="M146.25,172c0,.25-.44.45-1,.45s-1-.2-1-.45.44-.44,1-.44S146.25,171.8,146.25,172Z"/><rect class="cls-21" x="144.3" y="161.86" width="1.95" height="10.17"/><path class="cls-23" d="M146.25,161.92c0,.25-.44.45-1,.45s-1-.2-1-.45.44-.44,1-.44S146.25,161.67,146.25,161.92Z"/><path class="cls-21" d="M144.66,139.76v22.13c0,.13.28.24.62.24s.62-.11.62-.24V139.76Z"/><path class="cls-24" d="M148.24,141.84c0,1-1.37,2.16-3.05,2.16s-3.05-1.17-3.05-2.16,1.36-1.79,3.05-1.79S148.24,140.85,148.24,141.84Z"/><path class="cls-25" d="M148.23,141.69c0,.82-1.36,1.49-3,1.49s-3.05-.67-3.05-1.49,1.37-1.49,3.05-1.49S148.23,140.87,148.23,141.69Z"/><path class="cls-26" d="M147.91,141.38l0-.25a3.05,3.05,0,0,0-5.38,0l0,.25c0,.82,1.21,1.49,2.72,1.49S147.91,142.2,147.91,141.38Z"/><path class="cls-27" d="M145.59,140.81a1.14,1.14,0,1,1-1.12-.92A1,1,0,0,1,145.59,140.81Z"/><polyline class="cls-28" points="135.96 107.52 141.7 103.95 141.7 103.75 135.79 107.42 135.96 107.52"/><polygon class="cls-29" points="141.42 104.11 135.96 107.52 135.96 108.33 141.42 104.92 141.42 104.11"/><polyline class="cls-28" points="135.75 105.11 141.79 101.45 141.79 101.26 135.59 105.01 135.75 105.11"/><polygon class="cls-29" points="142.09 101.25 135.75 105.11 135.75 105.92 142.09 102.06 142.09 101.25"/><polygon class="cls-30" points="139.09 107.43 139.09 101.15 139.96 100.79 140.24 100.79 139.46 107.66 139.09 107.43"/><polygon class="cls-31" points="139.46 107.66 139.46 101.39 140.65 100.68 140.65 106.94 139.46 107.66"/><polygon class="cls-32" points="140.24 100.43 140.65 100.68 139.46 101.39 139.09 101.15 140.24 100.43"/><polygon class="cls-30" points="137.14 108.66 137.14 102.38 138.02 102.02 138.29 102.01 137.51 108.89 137.14 108.66"/><polygon class="cls-31" points="137.51 108.89 137.51 102.61 138.71 101.9 138.71 108.17 137.51 108.89"/><polygon class="cls-32" points="138.29 101.66 138.71 101.9 137.51 102.61 137.14 102.38 138.29 101.66"/><polygon class="cls-30" points="135.13 109.78 135.13 103.5 136 103.14 136.28 103.14 135.5 110.01 135.13 109.78"/><polygon class="cls-31" points="135.5 110.01 135.5 103.74 136.69 103.03 136.69 109.29 135.5 110.01"/><polygon class="cls-32" points="136.28 102.78 136.69 103.03 135.5 103.74 135.13 103.5 136.28 102.78"/><polyline class="cls-28" points="141.92 103.96 147.67 100.39 147.67 100.2 141.76 103.86 141.92 103.96"/><polygon class="cls-29" points="147.38 100.56 141.92 103.96 141.92 104.77 147.38 101.37 147.38 100.56"/><polyline class="cls-28" points="141.72 101.56 147.76 97.9 147.76 97.7 141.55 101.46 141.72 101.56"/><polygon class="cls-29" points="148.06 97.7 141.72 101.56 141.72 102.37 148.06 98.51 148.06 97.7"/><polygon class="cls-30" points="145.05 103.88 145.05 97.6 145.93 97.24 146.21 97.23 145.42 104.11 145.05 103.88"/><polygon class="cls-31" points="145.42 104.11 145.42 97.84 146.62 97.12 146.62 103.39 145.42 104.11"/><polygon class="cls-32" points="146.21 96.88 146.62 97.12 145.42 97.84 145.05 97.6 146.21 96.88"/><polygon class="cls-30" points="143.1 105.1 143.1 98.83 143.98 98.46 144.26 98.46 143.47 105.34 143.1 105.1"/><polygon class="cls-31" points="143.47 105.34 143.47 99.06 144.67 98.35 144.67 104.62 143.47 105.34"/><polygon class="cls-32" points="144.26 98.11 144.67 98.35 143.47 99.06 143.1 98.83 144.26 98.11"/><polygon class="cls-30" points="141.09 106.23 141.09 99.95 141.97 99.59 142.25 99.58 141.46 106.46 141.09 106.23"/><polygon class="cls-31" points="141.46 106.46 141.46 100.18 142.66 99.47 142.66 105.74 141.46 106.46"/><polygon class="cls-32" points="142.25 99.23 142.66 99.47 141.46 100.18 141.09 99.95 142.25 99.23"/><polyline class="cls-28" points="148.01 100.56 153.75 97 153.75 96.8 147.84 100.46 148.01 100.56"/><polygon class="cls-29" points="153.47 97.16 148.01 100.56 148.01 101.37 153.47 97.97 153.47 97.16"/><polyline class="cls-28" points="147.8 98.16 153.84 94.5 153.84 94.3 147.64 98.06 147.8 98.16"/><polygon class="cls-29" points="154.15 94.3 147.8 98.16 147.8 98.97 154.15 95.11 154.15 94.3"/><polygon class="cls-30" points="151.13 100.48 151.13 94.2 152.01 93.84 152.29 93.84 151.5 100.71 151.13 100.48"/><polygon class="cls-31" points="151.5 100.71 151.5 94.44 152.7 93.72 152.7 99.99 151.5 100.71"/><polygon class="cls-32" points="152.29 93.48 152.7 93.72 151.5 94.44 151.13 94.2 152.29 93.48"/><polygon class="cls-30" points="149.19 101.7 149.19 95.43 150.07 95.06 150.34 95.06 149.56 101.94 149.19 101.7"/><polygon class="cls-31" points="149.56 101.94 149.56 95.66 150.76 94.95 150.76 101.22 149.56 101.94"/><polygon class="cls-32" points="150.34 94.71 150.76 94.95 149.56 95.66 149.19 95.43 150.34 94.71"/><polygon class="cls-30" points="147.18 102.83 147.18 96.55 148.06 96.19 148.33 96.19 147.55 103.06 147.18 102.83"/><polygon class="cls-31" points="147.55 103.06 147.55 96.78 148.74 96.07 148.74 102.34 147.55 103.06"/><polygon class="cls-32" points="148.33 95.83 148.74 96.07 147.55 96.78 147.18 96.55 148.33 95.83"/><polyline class="cls-28" points="153.97 97.01 159.72 93.44 159.72 93.24 153.81 96.91 153.97 97.01"/><polygon class="cls-29" points="159.44 93.61 153.97 97.01 153.97 97.82 159.44 94.42 159.44 93.61"/><polyline class="cls-28" points="153.77 94.6 159.81 90.95 159.81 90.75 153.6 94.51 153.77 94.6"/><polygon class="cls-29" points="160.11 90.75 153.77 94.6 153.77 95.42 160.11 91.56 160.11 90.75"/><polygon class="cls-30" points="157.1 96.92 157.1 90.65 157.98 90.28 158.26 90.28 157.47 97.16 157.1 96.92"/><polygon class="cls-31" points="157.47 97.16 157.47 90.88 158.67 90.17 158.67 96.44 157.47 97.16"/><polygon class="cls-32" points="158.26 89.93 158.67 90.17 157.47 90.88 157.1 90.65 158.26 89.93"/><polygon class="cls-30" points="155.16 98.15 155.16 91.87 156.03 91.51 156.31 91.51 155.53 98.39 155.16 98.15"/><polygon class="cls-31" points="155.53 98.39 155.53 92.11 156.72 91.4 156.72 97.66 155.53 98.39"/><polygon class="cls-32" points="156.31 91.15 156.72 91.4 155.53 92.11 155.16 91.87 156.31 91.15"/><polygon class="cls-30" points="153.14 99.27 153.14 93 154.02 92.64 154.3 92.63 153.51 99.51 153.14 99.27"/><polygon class="cls-31" points="153.51 99.51 153.51 93.23 154.71 92.52 154.71 98.79 153.51 99.51"/><polygon class="cls-32" points="154.3 92.28 154.71 92.52 153.51 93.23 153.14 93 154.3 92.28"/><polyline class="cls-28" points="160 93.47 165.74 89.91 165.74 89.71 159.83 93.38 160 93.47"/><polygon class="cls-29" points="165.46 90.07 160 93.47 160 94.28 165.46 90.88 165.46 90.07"/><polyline class="cls-28" points="159.79 91.07 165.83 87.42 165.83 87.22 159.63 90.97 159.79 91.07"/><polygon class="cls-29" points="166.13 87.21 159.79 91.07 159.79 91.88 166.13 88.03 166.13 87.21"/><polygon class="cls-30" points="163.12 93.39 163.12 87.11 164 86.75 164.28 86.75 163.5 93.62 163.12 93.39"/><polygon class="cls-31" points="163.5 93.62 163.5 87.35 164.69 86.63 164.69 92.9 163.5 93.62"/><polygon class="cls-32" points="164.28 86.39 164.69 86.63 163.5 87.35 163.12 87.11 164.28 86.39"/><polygon class="cls-30" points="161.18 94.61 161.18 88.34 162.06 87.97 162.34 87.97 161.55 94.85 161.18 94.61"/><polygon class="cls-31" points="161.55 94.85 161.55 88.57 162.75 87.86 162.75 94.13 161.55 94.85"/><polygon class="cls-32" points="162.34 87.62 162.75 87.86 161.55 88.57 161.18 88.34 162.34 87.62"/><polygon class="cls-30" points="159.17 95.74 159.17 89.46 160.04 89.1 160.32 89.1 159.54 95.97 159.17 95.74"/><polygon class="cls-31" points="159.54 95.97 159.54 89.69 160.73 88.98 160.73 95.25 159.54 95.97"/><polygon class="cls-32" points="160.32 88.74 160.73 88.98 159.54 89.69 159.17 89.46 160.32 88.74"/><polyline class="cls-28" points="166.07 90.02 171.81 86.45 171.81 86.25 165.91 89.92 166.07 90.02"/><polygon class="cls-29" points="171.53 86.61 166.07 90.02 166.07 90.83 171.53 87.43 171.53 86.61"/><polyline class="cls-28" points="165.86 87.61 171.9 83.96 171.9 83.76 165.7 87.52 165.86 87.61"/><polygon class="cls-29" points="172.21 83.76 165.86 87.61 165.86 88.43 172.21 84.57 172.21 83.76"/><polygon class="cls-30" points="169.2 89.94 169.2 83.66 170.07 83.3 170.35 83.29 169.57 90.17 169.2 89.94"/><polygon class="cls-31" points="169.57 90.17 169.57 83.89 170.76 83.18 170.76 89.45 169.57 90.17"/><polygon class="cls-32" points="170.35 82.94 170.76 83.18 169.57 83.89 169.2 83.66 170.35 82.94"/><polygon class="cls-30" points="167.25 91.16 167.25 84.89 168.13 84.52 168.41 84.52 167.62 91.39 167.25 91.16"/><polygon class="cls-31" points="167.62 91.39 167.62 85.12 168.82 84.41 168.82 90.68 167.62 91.39"/><polygon class="cls-32" points="168.41 84.17 168.82 84.41 167.62 85.12 167.25 84.89 168.41 84.17"/><polygon class="cls-30" points="165.24 92.28 165.24 86.01 166.12 85.64 166.39 85.64 165.61 92.52 165.24 92.28"/><polygon class="cls-31" points="165.61 92.52 165.61 86.24 166.8 85.53 166.8 91.8 165.61 92.52"/><polygon class="cls-32" points="166.39 85.29 166.8 85.53 165.61 86.24 165.24 86.01 166.39 85.29"/><path class="cls-22" d="M171.72,97.33c0,.31-.81.57-1.83.57s-1.83-.26-1.83-.57.83-.56,1.83-.56S171.72,97,171.72,97.33Z"/><path class="cls-21" d="M170.87,97c0,.25-.44.45-1,.45s-1-.2-1-.45.44-.44,1-.44S170.87,96.72,170.87,97Z"/><rect class="cls-21" x="168.92" y="86.78" width="1.95" height="10.17"/><path class="cls-23" d="M170.87,86.84c0,.25-.44.45-1,.45s-1-.2-1-.45.44-.44,1-.44S170.87,86.59,170.87,86.84Z"/><path class="cls-21" d="M169.28,64.68V86.81c0,.13.27.24.61.24s.62-.11.62-.24V64.68Z"/><path class="cls-24" d="M172.86,66.76c0,1-1.37,2.16-3.05,2.16s-3.06-1.17-3.06-2.16S168.12,65,169.81,65,172.86,65.77,172.86,66.76Z"/><path class="cls-25" d="M172.85,66.61c0,.82-1.37,1.49-3,1.49s-3.05-.67-3.05-1.49,1.36-1.49,3.05-1.49S172.85,65.79,172.85,66.61Z"/><path class="cls-26" d="M172.53,66.3l0-.25a2.74,2.74,0,0,0-2.68-1.61,2.77,2.77,0,0,0-2.7,1.61l0,.25c0,.82,1.22,1.49,2.72,1.49S172.53,67.12,172.53,66.3Z"/><path class="cls-27" d="M170.21,65.73a1.14,1.14,0,1,1-1.12-.92A1,1,0,0,1,170.21,65.73Z"/><polygon class="cls-29" points="160.92 -3.75 155.06 -0.07 155.06 0.74 160.92 -2.94 160.92 -3.75"/><polygon class="cls-30" points="157.67 0.14 157.67 -6.13 158.55 -6.49 158.83 -6.5 158.04 0.38 157.67 0.14"/><polygon class="cls-31" points="158.04 0.38 158.04 -5.9 159.24 -6.61 159.24 -0.34 158.04 0.38"/><polygon class="cls-30" points="155.66 1.27 155.66 -5.01 156.54 -5.37 156.82 -5.37 156.03 1.5 155.66 1.27"/><polygon class="cls-31" points="156.03 1.5 156.03 -4.77 157.23 -5.49 157.23 0.78 156.03 1.5"/><polyline class="cls-28" points="114.41 23.59 120.15 20.02 120.15 19.82 114.24 23.49 114.41 23.59"/><polygon class="cls-29" points="119.87 20.19 114.41 23.59 114.41 24.4 119.87 21 119.87 20.19"/><polyline class="cls-28" points="114.2 21.18 120.24 17.53 120.24 17.33 114.04 21.09 114.2 21.18"/><polygon class="cls-29" points="120.54 17.33 114.2 21.18 114.2 22 120.54 18.14 120.54 17.33"/><polygon class="cls-30" points="117.53 23.51 117.53 17.23 118.41 16.87 118.69 16.86 117.91 23.74 117.53 23.51"/><polygon class="cls-31" points="117.91 23.74 117.91 17.46 119.1 16.75 119.1 23.02 117.91 23.74"/><polygon class="cls-32" points="118.69 16.51 119.1 16.75 117.91 17.46 117.53 17.23 118.69 16.51"/><polygon class="cls-30" points="115.59 24.73 115.59 18.46 116.47 18.09 116.75 18.09 115.96 24.97 115.59 24.73"/><polygon class="cls-31" points="115.96 24.97 115.96 18.69 117.16 17.98 117.16 24.25 115.96 24.97"/><polygon class="cls-32" points="116.75 17.74 117.16 17.98 115.96 18.69 115.59 18.46 116.75 17.74"/><polyline class="cls-28" points="120.37 20.04 126.12 16.47 126.12 16.27 120.21 19.94 120.37 20.04"/><polygon class="cls-29" points="125.84 16.63 120.37 20.04 120.37 20.85 125.84 17.45 125.84 16.63"/><polyline class="cls-28" points="120.17 17.63 126.21 13.98 126.21 13.78 120 17.53 120.17 17.63"/><polygon class="cls-29" points="126.51 13.78 120.17 17.63 120.17 18.45 126.51 14.59 126.51 13.78"/><polygon class="cls-30" points="123.5 19.95 123.5 13.68 124.38 13.31 124.66 13.31 123.87 20.19 123.5 19.95"/><polygon class="cls-31" points="123.87 20.19 123.87 13.91 125.07 13.2 125.07 19.47 123.87 20.19"/><polygon class="cls-32" points="124.66 12.96 125.07 13.2 123.87 13.91 123.5 13.68 124.66 12.96"/><polygon class="cls-30" points="121.55 21.18 121.55 14.9 122.43 14.54 122.71 14.54 121.93 21.41 121.55 21.18"/><polygon class="cls-31" points="121.93 21.41 121.93 15.14 123.12 14.43 123.12 20.69 121.93 21.41"/><polygon class="cls-32" points="122.71 14.18 123.12 14.43 121.93 15.14 121.55 14.9 122.71 14.18"/><polygon class="cls-30" points="119.54 22.3 119.54 16.02 120.42 15.66 120.7 15.66 119.91 22.54 119.54 22.3"/><polygon class="cls-31" points="119.91 22.54 119.91 16.26 121.11 15.55 121.11 21.82 119.91 22.54"/><polygon class="cls-32" points="120.7 15.31 121.11 15.55 119.91 16.26 119.54 16.02 120.7 15.31"/><polyline class="cls-28" points="126.45 16.64 132.2 13.07 132.2 12.87 126.29 16.54 126.45 16.64"/><polygon class="cls-29" points="131.92 13.23 126.45 16.64 126.45 17.45 131.92 14.05 131.92 13.23"/><polyline class="cls-28" points="126.25 14.23 132.29 10.58 132.29 10.38 126.09 14.13 126.25 14.23"/><polygon class="cls-29" points="132.59 10.38 126.25 14.23 126.25 15.04 132.59 11.19 132.59 10.38"/><polygon class="cls-30" points="129.58 16.55 129.58 10.28 130.46 9.91 130.74 9.91 129.95 16.79 129.58 16.55"/><polygon class="cls-31" points="129.95 16.79 129.95 10.51 131.15 9.8 131.15 16.07 129.95 16.79"/><polygon class="cls-32" points="130.74 9.56 131.15 9.8 129.95 10.51 129.58 10.28 130.74 9.56"/><polygon class="cls-30" points="127.64 17.78 127.64 11.5 128.52 11.14 128.79 11.14 128.01 18.02 127.64 17.78"/><polygon class="cls-31" points="128.01 18.02 128.01 11.74 129.2 11.03 129.2 17.29 128.01 18.02"/><polygon class="cls-32" points="128.79 10.78 129.2 11.03 128.01 11.74 127.64 11.5 128.79 10.78"/><polygon class="cls-30" points="125.63 18.9 125.63 12.63 126.5 12.26 126.78 12.26 126 19.14 125.63 18.9"/><polygon class="cls-31" points="126 19.14 126 12.86 127.19 12.15 127.19 18.42 126 19.14"/><polygon class="cls-32" points="126.78 11.91 127.19 12.15 126 12.86 125.63 12.63 126.78 11.91"/><polyline class="cls-28" points="132.42 13.09 138.17 9.52 138.17 9.32 132.26 12.99 132.42 13.09"/><polygon class="cls-29" points="137.88 9.68 132.42 13.09 132.42 13.9 137.88 10.49 137.88 9.68"/><polyline class="cls-28" points="132.22 10.68 138.26 7.03 138.26 6.83 132.05 10.58 132.22 10.68"/><polygon class="cls-29" points="138.56 6.83 132.22 10.68 132.22 11.49 138.56 7.64 138.56 6.83"/><polygon class="cls-30" points="135.55 13 135.55 6.72 136.43 6.36 136.71 6.36 135.92 13.24 135.55 13"/><polygon class="cls-31" points="135.92 13.24 135.92 6.96 137.12 6.25 137.12 12.52 135.92 13.24"/><polygon class="cls-32" points="136.71 6 137.12 6.25 135.92 6.96 135.55 6.72 136.71 6"/><polygon class="cls-30" points="133.6 14.23 133.6 7.95 134.48 7.59 134.76 7.59 133.97 14.46 133.6 14.23"/><polygon class="cls-31" points="133.97 14.46 133.97 8.18 135.17 7.47 135.17 13.74 133.97 14.46"/><polygon class="cls-32" points="134.76 7.23 135.17 7.47 133.97 8.18 133.6 7.95 134.76 7.23"/><polygon class="cls-30" points="131.59 15.35 131.59 9.07 132.47 8.71 132.75 8.71 131.96 15.59 131.59 15.35"/><polygon class="cls-31" points="131.96 15.59 131.96 9.31 133.16 8.6 133.16 14.86 131.96 15.59"/><polygon class="cls-32" points="132.75 8.35 133.16 8.6 131.96 9.31 131.59 9.07 132.75 8.35"/><polyline class="cls-28" points="138.45 9.55 144.19 5.98 144.19 5.78 138.28 9.45 138.45 9.55"/><polygon class="cls-29" points="143.91 6.15 138.45 9.55 138.45 10.36 143.91 6.96 143.91 6.15"/><polyline class="cls-28" points="138.24 7.14 144.28 3.49 144.28 3.29 138.08 7.05 138.24 7.14"/><polygon class="cls-29" points="144.58 3.29 138.24 7.14 138.24 7.96 144.58 4.1 144.58 3.29"/><polygon class="cls-30" points="141.57 9.46 141.57 3.19 142.45 2.83 142.73 2.82 141.94 9.7 141.57 9.46"/><polygon class="cls-31" points="141.94 9.7 141.94 3.42 143.14 2.71 143.14 8.98 141.94 9.7"/><polygon class="cls-32" points="142.73 2.47 143.14 2.71 141.94 3.42 141.57 3.19 142.73 2.47"/><polygon class="cls-30" points="139.63 10.69 139.63 4.41 140.51 4.05 140.78 4.05 140 10.93 139.63 10.69"/><polygon class="cls-31" points="140 10.93 140 4.65 141.19 3.94 141.19 10.21 140 10.93"/><polygon class="cls-32" points="140.78 3.69 141.19 3.94 140 4.65 139.63 4.41 140.78 3.69"/><polygon class="cls-30" points="137.62 11.81 137.62 5.54 138.49 5.18 138.77 5.17 137.99 12.05 137.62 11.81"/><polygon class="cls-31" points="137.99 12.05 137.99 5.77 139.18 5.06 139.18 11.33 137.99 12.05"/><polygon class="cls-32" points="138.77 4.82 139.18 5.06 137.99 5.77 137.62 5.54 138.77 4.82"/><polyline class="cls-28" points="144.52 6.1 150.26 2.53 150.26 2.33 144.35 6 144.52 6.1"/><polygon class="cls-29" points="149.98 2.69 144.52 6.1 144.52 6.91 149.98 3.5 149.98 2.69"/><polyline class="cls-28" points="144.31 3.69 150.35 0.04 150.35 -0.16 144.15 3.59 144.31 3.69"/><polygon class="cls-29" points="150.65 -0.17 144.31 3.69 144.31 4.5 150.65 0.65 150.65 -0.17"/><polygon class="cls-30" points="147.65 6.01 147.65 -0.27 148.52 -0.63 148.8 -0.63 148.02 6.25 147.65 6.01"/><polygon class="cls-31" points="148.02 6.25 148.02 -0.03 149.21 -0.74 149.21 5.53 148.02 6.25"/><polygon class="cls-30" points="145.7 7.24 145.7 0.96 146.58 0.6 146.85 0.59 146.07 7.47 145.7 7.24"/><polygon class="cls-31" points="146.07 7.47 146.07 1.2 147.27 0.48 147.27 6.75 146.07 7.47"/><polygon class="cls-32" points="146.85 0.24 147.27 0.48 146.07 1.2 145.7 0.96 146.85 0.24"/><polygon class="cls-30" points="143.69 8.36 143.69 2.08 144.56 1.72 144.84 1.72 144.06 8.6 143.69 8.36"/><polygon class="cls-31" points="144.06 8.6 144.06 2.32 145.25 1.61 145.25 7.87 144.06 8.6"/><polygon class="cls-32" points="144.84 1.36 145.25 1.61 144.06 2.32 143.69 2.08 144.84 1.36"/><polyline class="cls-28" points="150.53 2.57 154.62 0.08 154.62 -0.12 150.36 2.47 150.53 2.57"/><polygon class="cls-29" points="154.62 0.08 150.53 2.57 150.53 3.38 154.62 0.89 154.62 0.08"/><polyline class="cls-28" points="150.32 0.16 154.41 -2.33 154.41 -2.53 150.16 0.07 150.32 0.16"/><polygon class="cls-29" points="154.41 -2.33 150.32 0.16 150.32 0.97 154.41 -1.52 154.41 -2.33"/><polygon class="cls-30" points="153.65 2.48 153.65 -3.79 154.53 -4.16 154.81 -4.16 154.02 2.72 153.65 2.48"/><polygon class="cls-31" points="154.02 2.72 154.02 -3.56 155.22 -4.27 155.22 2 154.02 2.72"/><polygon class="cls-30" points="151.71 3.71 151.71 -2.57 152.58 -2.93 152.86 -2.93 152.08 3.94 151.71 3.71"/><polygon class="cls-31" points="152.08 3.94 152.08 -2.33 153.27 -3.04 153.27 3.22 152.08 3.94"/><polygon class="cls-30" points="149.69 4.83 149.69 -1.44 150.57 -1.81 150.85 -1.81 150.07 5.07 149.69 4.83"/><polygon class="cls-31" points="150.07 5.07 150.07 -1.21 151.26 -1.92 151.26 4.35 150.07 5.07"/><polyline class="cls-28" points="74.37 47.15 80.12 43.58 80.12 43.38 74.2 47.05 74.37 47.15"/><polygon class="cls-29" points="79.83 43.74 74.37 47.15 74.37 47.96 79.83 44.55 79.83 43.74"/><polyline class="cls-28" points="74.16 44.74 80.2 41.09 80.2 40.89 74 44.64 74.16 44.74"/><polygon class="cls-29" points="80.51 40.88 74.16 44.74 74.16 45.55 80.51 41.7 80.51 40.88"/><polygon class="cls-30" points="77.5 47.06 77.5 40.78 78.37 40.42 78.65 40.42 77.87 47.3 77.5 47.06"/><polygon class="cls-31" points="77.87 47.3 77.87 41.02 79.06 40.31 79.06 46.57 77.87 47.3"/><polygon class="cls-32" points="78.65 40.06 79.06 40.31 77.87 41.02 77.5 40.78 78.65 40.06"/><polygon class="cls-30" points="75.55 48.29 75.55 42.01 76.43 41.65 76.71 41.64 75.92 48.52 75.55 48.29"/><polygon class="cls-31" points="75.92 48.52 75.92 42.25 77.12 41.53 77.12 47.8 75.92 48.52"/><polygon class="cls-32" points="76.71 41.29 77.12 41.53 75.92 42.25 75.55 42.01 76.71 41.29"/><polygon class="cls-30" points="73.54 49.41 73.54 43.13 74.42 42.77 74.7 42.77 73.91 49.65 73.54 49.41"/><polygon class="cls-31" points="73.91 49.65 73.91 43.37 75.11 42.66 75.11 48.92 73.91 49.65"/><polygon class="cls-32" points="74.7 42.41 75.11 42.66 73.91 43.37 73.54 43.13 74.7 42.41"/><polyline class="cls-28" points="80.33 43.59 86.08 40.02 86.08 39.83 80.17 43.5 80.33 43.59"/><polygon class="cls-29" points="85.8 40.19 80.33 43.59 80.33 44.41 85.8 41 85.8 40.19"/><polyline class="cls-28" points="80.13 41.19 86.17 37.53 86.17 37.34 79.97 41.09 80.13 41.19"/><polygon class="cls-29" points="86.47 37.33 80.13 41.19 80.13 42 86.47 38.14 86.47 37.33"/><polygon class="cls-30" points="83.46 43.51 83.46 37.23 84.34 36.87 84.62 36.87 83.83 43.74 83.46 43.51"/><polygon class="cls-31" points="83.83 43.74 83.83 37.47 85.03 36.76 85.03 43.02 83.83 43.74"/><polygon class="cls-32" points="84.62 36.51 85.03 36.76 83.83 37.47 83.46 37.23 84.62 36.51"/><polygon class="cls-30" points="81.52 44.73 81.52 38.46 82.39 38.09 82.67 38.09 81.89 44.97 81.52 44.73"/><polygon class="cls-31" points="81.89 44.97 81.89 38.69 83.08 37.98 83.08 44.25 81.89 44.97"/><polygon class="cls-32" points="82.67 37.74 83.08 37.98 81.89 38.69 81.52 38.46 82.67 37.74"/><polygon class="cls-30" points="79.5 45.86 79.5 39.58 80.38 39.22 80.66 39.22 79.87 46.09 79.5 45.86"/><polygon class="cls-31" points="79.87 46.09 79.87 39.82 81.07 39.1 81.07 45.37 79.87 46.09"/><polygon class="cls-32" points="80.66 38.86 81.07 39.1 79.87 39.82 79.5 39.58 80.66 38.86"/><polyline class="cls-28" points="86.42 40.19 92.17 36.63 92.17 36.43 86.25 40.09 86.42 40.19"/><polygon class="cls-29" points="91.88 36.79 86.42 40.19 86.42 41.01 91.88 37.6 91.88 36.79"/><polyline class="cls-28" points="86.21 37.79 92.25 34.13 92.25 33.94 86.05 37.69 86.21 37.79"/><polygon class="cls-29" points="92.56 33.93 86.21 37.79 86.21 38.6 92.56 34.75 92.56 33.93"/><polygon class="cls-30" points="89.55 40.11 89.55 33.83 90.42 33.47 90.7 33.47 89.92 40.34 89.55 40.11"/><polygon class="cls-31" points="89.92 40.34 89.92 34.07 91.11 33.35 91.11 39.62 89.92 40.34"/><polygon class="cls-32" points="90.7 33.11 91.11 33.35 89.92 34.07 89.55 33.83 90.7 33.11"/><polygon class="cls-30" points="87.6 41.34 87.6 35.06 88.48 34.7 88.76 34.69 87.97 41.57 87.6 41.34"/><polygon class="cls-31" points="87.97 41.57 87.97 35.29 89.17 34.58 89.17 40.85 87.97 41.57"/><polygon class="cls-32" points="88.76 34.34 89.17 34.58 87.97 35.29 87.6 35.06 88.76 34.34"/><polygon class="cls-30" points="85.59 42.46 85.59 36.18 86.47 35.82 86.75 35.82 85.96 42.69 85.59 42.46"/><polygon class="cls-31" points="85.96 42.69 85.96 36.42 87.16 35.7 87.16 41.97 85.96 42.69"/><polygon class="cls-32" points="86.75 35.46 87.16 35.7 85.96 36.42 85.59 36.18 86.75 35.46"/><polyline class="cls-28" points="92.38 36.64 98.13 33.07 98.13 32.87 92.22 36.54 92.38 36.64"/><polygon class="cls-29" points="97.85 33.24 92.38 36.64 92.38 37.45 97.85 34.05 97.85 33.24"/><polyline class="cls-28" points="92.18 34.24 98.22 30.58 98.22 30.38 92.02 34.14 92.18 34.24"/><polygon class="cls-29" points="98.52 30.38 92.18 34.24 92.18 35.05 98.52 31.19 98.52 30.38"/><polygon class="cls-30" points="95.51 36.55 95.51 30.28 96.39 29.92 96.67 29.91 95.88 36.79 95.51 36.55"/><polygon class="cls-31" points="95.88 36.79 95.88 30.51 97.08 29.8 97.08 36.07 95.88 36.79"/><polygon class="cls-32" points="96.67 29.56 97.08 29.8 95.88 30.51 95.51 30.28 96.67 29.56"/><polygon class="cls-30" points="93.57 37.78 93.57 31.51 94.44 31.14 94.72 31.14 93.94 38.02 93.57 37.78"/><polygon class="cls-31" points="93.94 38.02 93.94 31.74 95.13 31.03 95.13 37.3 93.94 38.02"/><polygon class="cls-32" points="94.72 30.79 95.13 31.03 93.94 31.74 93.57 31.51 94.72 30.79"/><polygon class="cls-30" points="91.55 38.91 91.55 32.63 92.43 32.27 92.71 32.26 91.92 39.14 91.55 38.91"/><polygon class="cls-31" points="91.92 39.14 91.92 32.86 93.12 32.15 93.12 38.42 91.92 39.14"/><polygon class="cls-32" points="92.71 31.91 93.12 32.15 91.92 32.86 91.55 32.63 92.71 31.91"/><polyline class="cls-28" points="98.41 33.1 104.16 29.54 104.16 29.34 98.24 33.01 98.41 33.1"/><polygon class="cls-29" points="103.87 29.7 98.41 33.1 98.41 33.92 103.87 30.51 103.87 29.7"/><polyline class="cls-28" points="98.2 30.7 104.24 27.05 104.24 26.85 98.04 30.6 98.2 30.7"/><polygon class="cls-29" points="104.55 26.84 98.2 30.7 98.2 31.51 104.55 27.66 104.55 26.84"/><polygon class="cls-30" points="101.53 33.02 101.53 26.74 102.41 26.38 102.69 26.38 101.91 33.26 101.53 33.02"/><polygon class="cls-31" points="101.91 33.26 101.91 26.98 103.1 26.27 103.1 32.53 101.91 33.26"/><polygon class="cls-32" points="102.69 26.02 103.1 26.27 101.91 26.98 101.53 26.74 102.69 26.02"/><polygon class="cls-30" points="99.59 34.25 99.59 27.97 100.47 27.61 100.75 27.6 99.96 34.48 99.59 34.25"/><polygon class="cls-31" points="99.96 34.48 99.96 28.2 101.16 27.49 101.16 33.76 99.96 34.48"/><polygon class="cls-32" points="100.75 27.25 101.16 27.49 99.96 28.2 99.59 27.97 100.75 27.25"/><polygon class="cls-30" points="97.58 35.37 97.58 29.09 98.46 28.73 98.73 28.73 97.95 35.6 97.58 35.37"/><polygon class="cls-31" points="97.95 35.6 97.95 29.33 99.14 28.61 99.14 34.88 97.95 35.6"/><polygon class="cls-32" points="98.73 28.37 99.14 28.61 97.95 29.33 97.58 29.09 98.73 28.37"/><polyline class="cls-28" points="104.48 29.65 110.22 26.08 110.22 25.89 104.32 29.55 104.48 29.65"/><polygon class="cls-29" points="109.94 26.25 104.48 29.65 104.48 30.46 109.94 27.06 109.94 26.25"/><polyline class="cls-28" points="104.27 27.25 110.31 23.59 110.31 23.39 104.11 27.15 104.27 27.25"/><polygon class="cls-29" points="110.62 23.39 104.27 27.25 104.27 28.06 110.62 24.2 110.62 23.39"/><polygon class="cls-30" points="107.61 29.57 107.61 23.29 108.48 22.93 108.76 22.93 107.98 29.8 107.61 29.57"/><polygon class="cls-31" points="107.98 29.8 107.98 23.52 109.17 22.81 109.17 29.08 107.98 29.8"/><polygon class="cls-32" points="108.76 22.57 109.17 22.81 107.98 23.52 107.61 23.29 108.76 22.57"/><polygon class="cls-30" points="105.66 30.79 105.66 24.52 106.54 24.15 106.82 24.15 106.03 31.03 105.66 30.79"/><polygon class="cls-31" points="106.03 31.03 106.03 24.75 107.23 24.04 107.23 30.31 106.03 31.03"/><polygon class="cls-32" points="106.82 23.8 107.23 24.04 106.03 24.75 105.66 24.52 106.82 23.8"/><polygon class="cls-30" points="103.65 31.92 103.65 25.64 104.53 25.27 104.81 25.27 104.02 32.15 103.65 31.92"/><polygon class="cls-31" points="104.02 32.15 104.02 25.88 105.21 25.16 105.21 31.43 104.02 32.15"/><polygon class="cls-32" points="104.81 24.92 105.21 25.16 104.02 25.88 103.65 25.64 104.81 24.92"/><polyline class="cls-28" points="110.49 26.12 114.58 23.63 114.58 23.43 110.32 26.02 110.49 26.12"/><polygon class="cls-29" points="114.58 23.63 110.49 26.12 110.49 26.93 114.58 24.45 114.58 23.63"/><polyline class="cls-28" points="110.28 23.72 114.38 21.23 114.38 21.03 110.12 23.62 110.28 23.72"/><polygon class="cls-29" points="114.38 21.23 110.28 23.72 110.28 24.53 114.38 22.04 114.38 21.23"/><polygon class="cls-30" points="113.61 26.04 113.61 19.76 114.49 19.4 114.77 19.4 113.98 26.27 113.61 26.04"/><polygon class="cls-31" points="113.98 26.27 113.98 20 115.18 19.28 115.18 25.55 113.98 26.27"/><polygon class="cls-32" points="114.77 19.04 115.18 19.28 113.98 20 113.61 19.76 114.77 19.04"/><polygon class="cls-30" points="111.67 27.27 111.67 20.99 112.55 20.63 112.83 20.62 112.04 27.5 111.67 27.27"/><polygon class="cls-31" points="112.04 27.5 112.04 21.22 113.23 20.51 113.23 26.78 112.04 27.5"/><polygon class="cls-32" points="112.83 20.27 113.23 20.51 112.04 21.22 111.67 20.99 112.83 20.27"/><polygon class="cls-30" points="109.66 28.39 109.66 22.11 110.53 21.75 110.81 21.75 110.03 28.62 109.66 28.39"/><polygon class="cls-31" points="110.03 28.62 110.03 22.34 111.22 21.63 111.22 27.9 110.03 28.62"/><polygon class="cls-32" points="110.81 21.39 111.22 21.63 110.03 22.34 109.66 22.11 110.81 21.39"/><polygon class="cls-29" points="161.74 -3.75 167.6 -0.07 167.6 0.74 161.74 -2.94 161.74 -3.75"/><polygon class="cls-30" points="164.99 0.14 164.99 -6.13 164.11 -6.49 163.83 -6.5 164.62 0.38 164.99 0.14"/><polygon class="cls-31" points="164.62 0.38 164.62 -5.9 163.42 -6.61 163.42 -0.34 164.62 0.38"/><polygon class="cls-30" points="167 1.27 167 -5.01 166.12 -5.37 165.84 -5.37 166.63 1.5 167 1.27"/><polygon class="cls-31" points="166.63 1.5 166.63 -4.77 165.43 -5.49 165.43 0.78 166.63 1.5"/><polyline class="cls-28" points="172.13 2.57 168.04 0.08 168.04 -0.12 172.3 2.47 172.13 2.57"/><polygon class="cls-29" points="168.04 0.08 172.13 2.57 172.13 3.38 168.04 0.89 168.04 0.08"/><polyline class="cls-28" points="172.34 0.16 168.24 -2.33 168.24 -2.53 172.5 0.07 172.34 0.16"/><polygon class="cls-29" points="168.24 -2.33 172.34 0.16 172.34 0.97 168.24 -1.52 168.24 -2.33"/><polygon class="cls-30" points="169.01 2.48 169.01 -3.79 168.13 -4.16 167.85 -4.16 168.63 2.72 169.01 2.48"/><polygon class="cls-31" points="168.63 2.72 168.63 -3.56 167.44 -4.27 167.44 2 168.63 2.72"/><polygon class="cls-30" points="170.95 3.71 170.95 -2.57 170.07 -2.93 169.8 -2.93 170.58 3.94 170.95 3.71"/><polygon class="cls-31" points="170.58 3.94 170.58 -2.33 169.39 -3.04 169.39 3.22 170.58 3.94"/><polygon class="cls-33" points="163.45 63.6 161.46 64.82 151.43 59.03 151.43 56.67 163.45 63.6"/><polygon class="cls-34" points="151.43 56.67 151.43 59.03 141.53 64.78 139.5 63.6 151.43 56.67"/><polygon class="cls-33" points="151.51 71.14 151.51 73.5 138.46 65.97 138.47 63.6 151.51 71.14"/><polygon class="cls-34" points="164.47 63.6 164.47 65.97 151.51 73.5 151.51 71.14 164.47 63.6"/><polyline class="cls-35" points="141.61 64.82 151.43 59.03 161.38 64.78 151.51 70.54 141.5 64.82"/><path class="cls-35" d="M140.16,64.4c1.22-1.08,1.59-.58,3-1.41s1.25-1.09,2.66-1.92,1.56-.56,3-1.39,1.1-1.93,2.73-1.94,1.37,1.08,2.82,1.88,1.59.53,3,1.32,1.3,1.07,2.75,1.87,1.81.27,3.06,1.34c.29.24-.5.12-.84.26s-.23.42-.57.57-.46-.15-.81,0-.31.66-.67.57c-1.17-.31-1-.81-2.07-1.34s-1.23-.25-2.32-.77-1-.8-2-1.33-1-.78-2.25-.76-1.18.28-2.28.84-1,.84-2.06,1.41-1.25.29-2.35.86-.91,1.07-2.1,1.42c-.33.1-.28-.44-.59-.59s-.45.12-.76,0-.18-.48-.52-.59S139.91,64.64,140.16,64.4Z"/><path class="cls-36" d="M151.43,56.07l-13,7.53,13,7.54,13-7.54ZM139.5,63.6l11.93-6.93,12,6.93-.09.06-.06,0-11.79,6.85Z"/><path class="cls-9" d="M160.55,14.57c-8.64,0-15.65,2.06-15.65,4.59s7,4.6,15.65,4.6,15.64-2.06,15.64-4.6-7-4.59-15.64-4.59"/><path class="cls-10" d="M159.23-5.77,157.79,18.8c0,.56,1.23,1,2.76,1V-5.77Z"/><path class="cls-11" d="M163.31,18.8,161.87-5.77h-1.32V19.82C162.07,19.82,163.31,19.36,163.31,18.8Z"/><polygon class="cls-12" points="145.92 12.74 150.39 13.48 155.47 12.41 160.54 13.48 165.62 12.41 170.7 13.48 175.17 12.74 173.86 7.72 170.1 3.1 168.78 -2.34 165.02 -6.96 163.7 -12.4 160.55 -16.69 157.4 -12.4 156.08 -6.97 152.32 -2.35 151 3.09 147.23 7.73 145.92 12.74"/><polyline class="cls-13" points="165.07 2.29 169.61 3.36 173.53 2.62 172.49 -1.86 169 -5.94 167.96 -10.83 164.47 -14.91 163.43 -19.81 160.55 -23.55 157.67 -19.81 156.63 -14.92 153.14 -10.84 152.1 -5.95 148.6 -1.84 147.57 2.63 151.48 3.36 156.01 2.29 160.54 3.36 165.07 2.29"/><polygon class="cls-37" points="147.06 18.82 148.35 24.54 145.74 22.98 147.06 18.82"/><path class="cls-10" d="M152.36,37.69h0l-4.6-19a.72.72,0,0,0-1.38-.06L141.86,32.1h0v.12a.32.32,0,0,0,.23.16l.19,0,.19,0a.37.37,0,0,0,.23-.16v0l4.13-12.06a.21.21,0,0,1,.41,0l4.25,17.6h0v0h0a.32.32,0,0,0,.22.16l.2,0,.19,0a.32.32,0,0,0,.22-.16l0-.06h0Z"/><polygon class="cls-24" points="136.87 25.45 136.87 40.64 136.82 40.69 136.8 40.7 136.67 40.72 136.65 40.72 136.62 40.72 136.52 40.7 136.52 40.7 136.47 40.64 136.47 25.45 136.87 25.45"/><polygon class="cls-38" points="136.73 25.45 136.58 25.54 136.44 25.45 136.58 25.37 136.73 25.45"/><polygon class="cls-24" points="144.19 21.15 144.19 36.34 144.15 36.39 144.13 36.4 144.01 36.42 143.99 36.42 143.97 36.42 143.88 36.39 143.88 36.39 143.83 36.34 143.83 21.15 144.19 21.15"/><polygon class="cls-39" points="137.79 41.18 134.52 43.03 134.52 43.03 132.4 41.78 132.4 41.78 135.67 39.94 137.79 41.18"/><polygon class="cls-40" points="132.4 41.78 132.4 42.25 134.52 43.5 134.52 43.03 132.4 41.78"/><polygon class="cls-40" points="137.79 41.18 137.79 41.65 134.52 43.5 134.52 43.03 137.79 41.18"/><polygon class="cls-41" points="132.4 41.56 132.4 41.78 133.03 42.15 133.03 41.93 132.4 41.56"/><path class="cls-42" d="M132.49,41.27v.79h0l0,0h.06l0,0h0v-.78a.56.56,0,0,1,.34-.6C132.67,40.69,132.49,40.91,132.49,41.27Z"/><polygon class="cls-38" points="140.88 23 140.73 23.08 140.58 23 140.73 22.91 140.88 23"/><polygon class="cls-24" points="133.62 27.3 133.62 42.49 133.58 42.54 133.56 42.55 133.42 42.57 133.4 42.57 133.37 42.57 133.27 42.55 133.27 42.55 133.21 42.49 133.21 27.3 133.62 27.3"/><polygon class="cls-38" points="133.51 27.3 133.36 27.39 133.21 27.3 133.36 27.22 133.51 27.3"/><path class="cls-11" d="M147.08,19.49a.61.61,0,0,0-.3-.51l-.07,0-.06,0h0l-17.5,10.23h0l0,.21a.64.64,0,0,0,.3.51h0v0L147,19.75l0,0A.35.35,0,0,0,147.08,19.49Z"/><path class="cls-10" d="M129.15,29.21h0l0,.21a.75.75,0,0,0,.17.41l0-.13h0l17.5-10.23h0l.06,0c.16-.1.05-.41-.1-.47l-.07,0-.06,0h0"/><path class="cls-43" d="M129.43,30l.09,0a.29.29,0,0,0,.06-.24.62.62,0,0,0-.31-.5l-.06,0-.09,0a.3.3,0,0,0-.06.24.65.65,0,0,0,.3.51Z"/><polygon class="cls-37" points="129.4 29.01 130.69 34.72 128.08 33.17 129.4 29.01"/><path class="cls-10" d="M134.7,47.87h0l-4.6-19a.72.72,0,0,0-1.38-.06L124.2,42.28h0v.06h0v.06a.37.37,0,0,0,.23.15l.19,0,.19,0a.37.37,0,0,0,.23-.15v0l4.13-12.05a.21.21,0,0,1,.41,0l4.25,17.59h0V48a.31.31,0,0,0,.23.15l.19,0,.19,0a.36.36,0,0,0,.23-.15v-.07h0Z"/><polygon class="cls-11" points="135.46 26.49 135.48 26.48 135.46 26.49 135.46 26.49"/><polygon class="cls-39" points="145.04 36.94 141.77 38.79 141.77 38.79 139.65 37.54 142.92 35.7 145.04 36.94"/><polygon class="cls-40" points="139.65 37.54 139.65 38 141.77 39.25 141.77 38.79 139.65 37.54"/><polygon class="cls-40" points="145.05 36.94 145.04 37.42 141.77 39.27 141.77 38.79 145.05 36.94"/><polygon class="cls-24" points="141.03 23.33 141.03 38.18 140.98 38.24 140.96 38.24 140.82 38.27 140.8 38.27 140.78 38.26 140.68 38.24 140.67 38.24 140.62 38.18 140.62 23.5 141.03 23.33"/><path class="cls-44" d="M163,42.6v0l.07.05h.12l.07-.05h0v0c.23-2,1.6-3,3.45-1.9A8.93,8.93,0,0,1,170.53,47h0v0l.08,0h.13l.08,0h0v0a9.08,9.08,0,0,0-3.92-6.49c-2.06-1.17-3.75-.2-3.94,2.13Z"/><polygon class="cls-39" points="157.44 36.01 173.81 49.71 176.52 48.72 160.22 35.07 157.44 36.01"/><polygon class="cls-40" points="157.44 36.01 157.28 36.86 173.64 50.61 173.81 49.71 157.44 36.01"/><path class="cls-44" d="M160.66,43.81v0l.07,0h.12l.07,0h0v0c.22-2,1.6-2.95,3.45-1.9a9,9,0,0,1,3.85,6.27h0v0l.08.05h.13l.08-.05h0v0a9.12,9.12,0,0,0-3.92-6.5c-2.06-1.17-3.75-.2-3.94,2.13h0Z"/><polygon class="cls-45" points="31.94 84.39 31.94 156.73 73.75 132.59 73.75 60.25 31.94 84.39"/><polygon class="cls-46" points="44.79 119.83 50.02 116.69 50.02 106.9 44.79 109.84 44.79 119.83"/><polyline class="cls-47" points="45.19 115.65 45.19 119.16 49.62 116.5 49.62 107.64 45.19 110.14 45.19 115.65"/><polygon class="cls-48" points="45.65 112.38 49.16 110.41 49.16 108.54 45.65 110.52 45.65 112.38"/><polygon class="cls-48" points="45.66 118.18 49.16 116.07 49.16 111.12 45.65 113.09 45.66 118.18"/><polygon class="cls-49" points="-51.68 84.32 -51.68 156.86 11.04 193.06 11.04 120.52 -51.68 84.32"/><polygon class="cls-49" points="73.75 60.25 74.1 60.46 94.66 72.32 94.66 144.66 73.75 132.59 73.75 60.25"/><polygon class="cls-50" points="94.66 72.32 94.66 144.66 136.46 120.52 136.46 48.18 94.66 72.32"/><polygon class="cls-46" points="7.57 179.31 2.34 176.17 2.34 166.38 7.57 169.32 7.57 179.31"/><polyline class="cls-47" points="7.17 175.13 7.17 178.64 2.74 175.97 2.74 167.12 7.17 169.61 7.17 175.13"/><polygon class="cls-48" points="6.71 171.86 3.2 169.89 3.2 168.02 6.71 170 6.71 171.86"/><polygon class="cls-48" points="6.7 177.66 3.2 175.55 3.2 170.6 6.71 172.57 6.7 177.66"/><polygon class="cls-46" points="7.57 160.72 2.34 157.58 2.34 147.78 7.57 150.72 7.57 160.72"/><polyline class="cls-47" points="7.17 156.54 7.17 160.05 2.74 157.38 2.74 148.52 7.17 151.02 7.17 156.54"/><polygon class="cls-48" points="6.71 153.27 3.2 151.29 3.2 149.43 6.71 151.4 6.71 153.27"/><polygon class="cls-48" points="6.7 159.06 3.2 156.95 3.2 152 6.71 153.98 6.7 159.06"/><polygon class="cls-46" points="91.58 132.04 86.36 128.9 86.36 119.1 91.58 122.04 91.58 132.04"/><polyline class="cls-47" points="91.19 127.86 91.19 131.36 86.75 128.7 86.75 119.84 91.19 122.33 91.19 127.86"/><polygon class="cls-48" points="90.73 124.58 87.22 122.61 87.22 120.74 90.73 122.72 90.73 124.58"/><polygon class="cls-48" points="90.72 130.38 87.22 128.27 87.22 123.32 90.73 125.3 90.72 130.38"/><polygon class="cls-46" points="81.56 126.31 76.34 123.17 76.34 113.37 81.56 116.31 81.56 126.31"/><polyline class="cls-47" points="81.17 122.13 81.17 125.64 76.73 122.97 76.73 114.11 81.17 116.61 81.17 122.13"/><polygon class="cls-48" points="80.7 118.86 77.19 116.88 77.19 115.01 80.7 116.99 80.7 118.86"/><polygon class="cls-48" points="80.7 124.65 77.19 122.54 77.19 117.59 80.7 119.57 80.7 124.65"/><polygon class="cls-46" points="91.82 113.34 86.6 110.2 86.6 100.41 91.82 103.35 91.82 113.34"/><polyline class="cls-47" points="91.43 109.16 91.43 112.67 86.99 110 86.99 101.14 91.43 103.64 91.43 109.16"/><polygon class="cls-48" points="90.97 105.89 87.46 103.92 87.46 102.05 90.97 104.02 90.97 105.89"/><polygon class="cls-48" points="90.96 111.69 87.46 109.58 87.46 104.63 90.97 106.6 90.96 111.69"/><polygon class="cls-46" points="81.8 107.61 76.58 104.47 76.58 94.68 81.8 97.62 81.8 107.61"/><polyline class="cls-47" points="81.41 103.43 81.41 106.94 76.97 104.28 76.97 95.42 81.41 97.91 81.41 103.43"/><polygon class="cls-48" points="80.95 100.16 77.44 98.19 77.44 96.32 80.95 98.3 80.95 100.16"/><polygon class="cls-48" points="80.94 105.96 77.44 103.85 77.44 98.9 80.95 100.88 80.94 105.96"/><polygon class="cls-46" points="54.82 113.51 60.04 110.37 60.04 100.57 54.82 103.51 54.82 113.51"/><polyline class="cls-47" points="55.21 109.33 55.21 112.84 59.65 110.17 59.65 101.31 55.21 103.81 55.21 109.33"/><polygon class="cls-48" points="55.67 106.06 59.18 104.08 59.18 102.22 55.67 104.19 55.67 106.06"/><polygon class="cls-48" points="55.68 111.86 59.18 109.74 59.18 104.8 55.67 106.77 55.68 111.86"/><polygon class="cls-46" points="64.84 107.72 70.06 104.58 70.06 94.78 64.84 97.72 64.84 107.72"/><polyline class="cls-47" points="65.23 103.53 65.23 107.04 69.67 104.38 69.67 95.52 65.23 98.01 65.23 103.53"/><polygon class="cls-48" points="65.69 100.26 69.21 98.29 69.21 96.42 65.69 98.39 65.69 100.26"/><polygon class="cls-48" points="65.7 106.06 69.21 103.95 69.21 99 65.69 100.97 65.7 106.06"/><polygon class="cls-46" points="55.08 132.51 60.3 129.37 60.3 119.58 55.08 122.52 55.08 132.51"/><polyline class="cls-47" points="55.48 128.33 55.48 131.84 59.91 129.18 59.91 120.31 55.48 122.81 55.48 128.33"/><polygon class="cls-48" points="55.94 125.06 59.45 123.09 59.45 121.22 55.94 123.19 55.94 125.06"/><polygon class="cls-48" points="55.95 130.86 59.45 128.75 59.45 123.8 55.94 125.77 55.95 130.86"/><polygon class="cls-46" points="65.11 126.72 70.33 123.58 70.33 113.78 65.11 116.72 65.11 126.72"/><polyline class="cls-47" points="65.5 122.54 65.5 126.05 69.94 123.38 69.94 114.52 65.5 117.02 65.5 122.54"/><polygon class="cls-48" points="65.96 119.26 69.47 117.29 69.47 115.42 65.96 117.4 65.96 119.26"/><polygon class="cls-48" points="65.97 125.06 69.47 122.95 69.47 118 65.96 119.98 65.97 125.06"/><polygon class="cls-46" points="103.55 106.52 107.92 103.88 107.92 97.7 103.54 100.17 103.55 106.52"/><polygon class="cls-47" points="103.91 105.8 107.57 103.59 107.57 98.43 103.9 100.49 103.91 105.8"/><polygon class="cls-48" points="104.31 105.08 107.16 103.36 107.16 99.33 104.3 100.94 104.31 105.08"/><polygon class="cls-46" points="103.55 113.87 107.92 111.24 107.92 105.06 103.54 107.53 103.55 113.87"/><polygon class="cls-47" points="103.91 113.12 107.57 110.91 107.57 105.74 103.9 107.81 103.91 113.12"/><polygon class="cls-48" points="104.31 112.4 107.16 110.68 107.16 106.65 104.3 108.26 104.31 112.4"/><polygon class="cls-46" points="103.55 128.47 107.92 125.84 107.92 119.66 103.54 122.13 103.55 128.47"/><polygon class="cls-47" points="103.91 127.75 107.57 125.55 107.57 120.38 103.9 122.44 103.91 127.75"/><polygon class="cls-48" points="104.31 127.04 107.16 125.31 107.16 121.28 104.3 122.89 104.31 127.04"/><polygon class="cls-46" points="103.55 121.15 107.92 118.52 107.92 112.34 103.54 114.81 103.55 121.15"/><polygon class="cls-47" points="103.91 120.43 107.57 118.23 107.57 113.06 103.9 115.13 103.91 120.43"/><polygon class="cls-48" points="104.31 119.72 107.16 118 107.16 113.97 104.3 115.58 104.31 119.72"/><polygon class="cls-46" points="127.15 93.89 131.53 91.26 131.53 85.08 127.14 87.55 127.15 93.89"/><polygon class="cls-47" points="127.51 93.18 131.17 90.97 131.17 85.8 127.5 87.86 127.51 93.18"/><polygon class="cls-48" points="127.91 92.46 130.77 90.74 130.77 86.71 127.91 88.32 127.91 92.46"/><polygon class="cls-46" points="127.15 101.25 131.53 98.61 131.53 92.44 127.14 94.9 127.15 101.25"/><polygon class="cls-47" points="127.51 100.49 131.17 98.29 131.17 93.12 127.5 95.18 127.51 100.49"/><polygon class="cls-48" points="127.91 99.78 130.77 98.06 130.77 94.02 127.91 95.64 127.91 99.78"/><polygon class="cls-46" points="127.15 115.85 131.53 113.21 131.53 107.04 127.14 109.5 127.15 115.85"/><polygon class="cls-47" points="127.51 115.13 131.17 112.92 131.17 107.76 127.5 109.82 127.51 115.13"/><polygon class="cls-48" points="127.91 114.41 130.77 112.69 130.77 108.66 127.91 110.27 127.91 114.41"/><polygon class="cls-46" points="127.15 108.53 131.53 105.89 131.53 99.72 127.14 102.19 127.15 108.53"/><polygon class="cls-47" points="127.51 107.81 131.17 105.61 131.17 100.44 127.5 102.5 127.51 107.81"/><polygon class="cls-48" points="127.91 107.09 130.77 105.37 130.77 101.34 127.91 102.95 127.91 107.09"/><polygon class="cls-51" points="114.27 128.82 114.83 128.49 121.42 124.62 122.03 124.24 122.03 108.05 114.22 112.38 114.27 128.82"/><polygon class="cls-52" points="121.42 124.62 121.42 109.28 114.83 112.94 114.83 128.49 121.42 124.62"/><polygon class="cls-53" points="118.22 112.67 120.57 111.21 120.57 122.41 118.22 123.81 118.22 112.67"/><polygon class="cls-53" points="117.53 112.93 117.53 124.21 115.09 125.67 115.09 114.56 117.53 112.93"/><path class="cls-50" d="M75.36,150.51A4.87,4.87,0,0,0,73.88,146c-3.11-3.14-9.86-3.81-15.06-1.5-2.92,1.31-4.85,3.33-5.28,5.53A4.88,4.88,0,0,0,55,154.54c3.11,3.14,9.87,3.81,15.06,1.49C73,154.72,74.92,152.7,75.36,150.51Z"/><path class="cls-49" d="M60,145.83c-4.1,1.84-5.47,5.33-3,7.81a2.86,2.86,0,0,0,.79.62c2.69,1.92,7.37,2.17,11.11.49a13,13,0,0,0,1.62-.92c2.82-1.92,3.49-4.77,1.42-6.89C69.48,144.45,64.18,144,60,145.83Z"/><path class="cls-54" d="M60.58,148c-3.36,1.5-4.54,4.23-2.82,6.29,2.69,1.92,7.37,2.17,11.11.49a13,13,0,0,0,1.62-.92,3.31,3.31,0,0,0,.12-4.92C68.54,146.85,64,146.43,60.58,148Z"/><path class="cls-55" d="M67.76,121.05a2.65,2.65,0,1,1-2.66-2.65A2.66,2.66,0,0,1,67.76,121.05Z"/><path class="cls-55" d="M69.52,123.17a3.41,3.41,0,1,1,.84-4.75A3.4,3.4,0,0,1,69.52,123.17Z"/><path class="cls-55" d="M76.25,123.53a2.85,2.85,0,1,1,.7-4A2.85,2.85,0,0,1,76.25,123.53Z"/><path class="cls-55" d="M72,125.62a1.84,1.84,0,1,1,.45-2.57A1.85,1.85,0,0,1,72,125.62Z"/><path class="cls-55" d="M67.66,121a1.84,1.84,0,1,1,.45-2.57A1.85,1.85,0,0,1,67.66,121Z"/><path class="cls-55" d="M71.63,123.65a1.84,1.84,0,1,1,.45-2.57A1.84,1.84,0,0,1,71.63,123.65Z"/><path class="cls-56" d="M71.59,125.53a2.52,2.52,0,1,1-1.94-3A2.52,2.52,0,0,1,71.59,125.53Z"/><path class="cls-56" d="M74.73,124.85a2,2,0,1,1-1.5-2.34A2,2,0,0,1,74.73,124.85Z"/><path class="cls-56" d="M67.54,124a1.37,1.37,0,1,1-1.05-1.62A1.37,1.37,0,0,1,67.54,124Z"/><path class="cls-56" d="M76.46,123.92a1.37,1.37,0,1,1-1-1.62A1.36,1.36,0,0,1,76.46,123.92Z"/><path class="cls-57" d="M69.75,117.92a2.46,2.46,0,1,1-2.46-2.46A2.46,2.46,0,0,1,69.75,117.92Z"/><path class="cls-57" d="M72.18,119.82a1.91,1.91,0,1,1-1.91-1.91A1.91,1.91,0,0,1,72.18,119.82Z"/><path class="cls-57" d="M72.18,115.46a1.91,1.91,0,1,1-1.91-1.91A1.91,1.91,0,0,1,72.18,115.46Z"/><path class="cls-57" d="M75.73,118.18a1.33,1.33,0,1,1-1.33-1.33A1.34,1.34,0,0,1,75.73,118.18Z"/><path class="cls-57" d="M74.4,117.92a2.46,2.46,0,1,1-2.46-2.46A2.46,2.46,0,0,1,74.4,117.92Z"/><path class="cls-55" d="M52.2,122.51a2,2,0,1,1-2-2A2,2,0,0,1,52.2,122.51Z"/><path class="cls-55" d="M53.54,124.13a2.6,2.6,0,1,1,.65-3.62A2.59,2.59,0,0,1,53.54,124.13Z"/><path class="cls-55" d="M58.68,124.41a2.18,2.18,0,1,1,.54-3A2.18,2.18,0,0,1,58.68,124.41Z"/><path class="cls-55" d="M55.46,126a1.41,1.41,0,1,1,.35-2A1.43,1.43,0,0,1,55.46,126Z"/><path class="cls-55" d="M52.12,122.49a1.41,1.41,0,0,1-1.62-2.31,1.41,1.41,0,1,1,1.62,2.31Z"/><path class="cls-55" d="M55.15,124.5a1.41,1.41,0,1,1,.35-2A1.4,1.4,0,0,1,55.15,124.5Z"/><path class="cls-56" d="M55.13,125.94a1.93,1.93,0,1,1-1.48-2.3A1.93,1.93,0,0,1,55.13,125.94Z"/><path class="cls-56" d="M57.53,125.41a1.5,1.5,0,1,1-1.16-1.78A1.52,1.52,0,0,1,57.53,125.41Z"/><path class="cls-56" d="M52,124.79a1,1,0,1,1-2-.44,1,1,0,1,1,2,.44Z"/><path class="cls-56" d="M58.85,124.71a1,1,0,0,1-1.24.8,1,1,0,1,1,1.24-.8Z"/><path class="cls-57" d="M53.72,120.12a1.88,1.88,0,1,1-1.88-1.88A1.88,1.88,0,0,1,53.72,120.12Z"/><path class="cls-57" d="M55.57,121.57a1.46,1.46,0,1,1-1.46-1.46A1.46,1.46,0,0,1,55.57,121.57Z"/><path class="cls-57" d="M55.57,118.24a1.46,1.46,0,1,1-1.46-1.46A1.46,1.46,0,0,1,55.57,118.24Z"/><path class="cls-57" d="M58.29,120.32a1,1,0,1,1-1-1A1,1,0,0,1,58.29,120.32Z"/><path class="cls-57" d="M57.27,120.12a1.88,1.88,0,1,1-1.88-1.88A1.88,1.88,0,0,1,57.27,120.12Z"/><path class="cls-10" d="M63.27,131l-1,21.67c0,.49.89.89,2,.89V131Z"/><path class="cls-11" d="M66.19,152.67l-1-21.67h-.94v22.56C65.31,153.56,66.19,153.16,66.19,152.67Z"/><path class="cls-10" d="M67.2,132.45l-3.44,6.07c-.07.14.16.4.5.57l3.24-6.5Z"/><path class="cls-11" d="M65,139.14l2.79-6.4-.3-.15-3.24,6.5C64.6,139.26,64.94,139.28,65,139.14Z"/><path class="cls-10" d="M58.29,137,63.1,143c.12.13.61-.13,1.09-.57l-5.48-5.88Z"/><path class="cls-11" d="M64.84,141.4l-5.72-5.22-.41.39,5.48,5.88C64.67,142,65,141.53,64.84,141.4Z"/><path class="cls-55" d="M60.35,123.77a3.65,3.65,0,1,1-3.65-3.65A3.65,3.65,0,0,1,60.35,123.77Z"/><path class="cls-55" d="M62.78,126.69a4.69,4.69,0,1,1,1.16-6.53A4.69,4.69,0,0,1,62.78,126.69Z"/><path class="cls-55" d="M72,127.18a3.92,3.92,0,1,1,1-5.46A3.92,3.92,0,0,1,72,127.18Z"/><path class="cls-55" d="M66.23,130.06a2.54,2.54,0,1,1,.63-3.53A2.54,2.54,0,0,1,66.23,130.06Z"/><path class="cls-55" d="M60.21,123.73a2.54,2.54,0,1,1,.63-3.53A2.53,2.53,0,0,1,60.21,123.73Z"/><path class="cls-55" d="M65.68,127.35a2.54,2.54,0,1,1,.63-3.54A2.55,2.55,0,0,1,65.68,127.35Z"/><path class="cls-56" d="M65.64,129.94A3.48,3.48,0,1,1,63,125.81,3.49,3.49,0,0,1,65.64,129.94Z"/><path class="cls-56" d="M70,129a2.71,2.71,0,1,1-2.08-3.21A2.71,2.71,0,0,1,70,129Z"/><path class="cls-56" d="M60.05,127.86a1.88,1.88,0,1,1-1.45-2.23A1.88,1.88,0,0,1,60.05,127.86Z"/><path class="cls-56" d="M72.34,127.72a1.88,1.88,0,1,1-1.45-2.23A1.89,1.89,0,0,1,72.34,127.72Z"/><path class="cls-57" d="M63.1,119.46a3.39,3.39,0,1,1-3.39-3.39A3.38,3.38,0,0,1,63.1,119.46Z"/><path class="cls-57" d="M66.44,122.08a2.64,2.64,0,1,1-2.63-2.64A2.63,2.63,0,0,1,66.44,122.08Z"/><path class="cls-57" d="M66.44,116.07a2.64,2.64,0,1,1-2.63-2.63A2.64,2.64,0,0,1,66.44,116.07Z"/><path class="cls-57" d="M71.33,119.82A1.84,1.84,0,1,1,69.49,118,1.83,1.83,0,0,1,71.33,119.82Z"/><path class="cls-57" d="M69.49,119.46a3.39,3.39,0,1,1-3.38-3.39A3.38,3.38,0,0,1,69.49,119.46Z"/><path class="cls-55" d="M52.28,133a2.65,2.65,0,1,1-2.66-2.65A2.66,2.66,0,0,1,52.28,133Z"/><path class="cls-55" d="M54,135.08a3.41,3.41,0,1,1,.84-4.75A3.41,3.41,0,0,1,54,135.08Z"/><path class="cls-55" d="M60.77,135.43a2.85,2.85,0,1,1,.7-4A2.84,2.84,0,0,1,60.77,135.43Z"/><path class="cls-55" d="M56.54,137.53A1.84,1.84,0,1,1,57,135,1.83,1.83,0,0,1,56.54,137.53Z"/><path class="cls-55" d="M52.18,132.93a1.84,1.84,0,1,1,.45-2.57A1.84,1.84,0,0,1,52.18,132.93Z"/><path class="cls-55" d="M56.15,135.56A1.84,1.84,0,1,1,56.6,133,1.84,1.84,0,0,1,56.15,135.56Z"/><path class="cls-56" d="M56.11,137.44a2.52,2.52,0,1,1-1.94-3A2.52,2.52,0,0,1,56.11,137.44Z"/><path class="cls-56" d="M59.25,136.75a2,2,0,1,1-3.84-.82,2,2,0,1,1,3.84.82Z"/><path class="cls-56" d="M52.06,135.93A1.37,1.37,0,1,1,51,134.31,1.37,1.37,0,0,1,52.06,135.93Z"/><path class="cls-56" d="M61,135.83a1.37,1.37,0,1,1-2.67-.58,1.37,1.37,0,1,1,2.67.58Z"/><path class="cls-57" d="M54.27,129.83a2.46,2.46,0,1,1-2.46-2.46A2.46,2.46,0,0,1,54.27,129.83Z"/><path class="cls-57" d="M56.7,131.73a1.92,1.92,0,1,1-1.91-1.91A1.92,1.92,0,0,1,56.7,131.73Z"/><path class="cls-57" d="M56.7,127.37a1.92,1.92,0,1,1-1.91-1.91A1.91,1.91,0,0,1,56.7,127.37Z"/><path class="cls-57" d="M60.25,130.09a1.33,1.33,0,1,1-1.33-1.33A1.34,1.34,0,0,1,60.25,130.09Z"/><path class="cls-57" d="M58.92,129.83a2.46,2.46,0,1,1-2.46-2.46A2.46,2.46,0,0,1,58.92,129.83Z"/><path class="cls-55" d="M70.14,129.72a2.65,2.65,0,1,1-2.64-2.65A2.65,2.65,0,0,1,70.14,129.72Z"/><path class="cls-55" d="M71.91,131.84a3.41,3.41,0,1,1,.84-4.74A3.4,3.4,0,0,1,71.91,131.84Z"/><path class="cls-55" d="M78.64,132.2a2.85,2.85,0,1,1,.7-4A2.85,2.85,0,0,1,78.64,132.2Z"/><path class="cls-55" d="M74.42,134.29a1.84,1.84,0,1,1,.45-2.56A1.84,1.84,0,0,1,74.42,134.29Z"/><path class="cls-55" d="M70.05,129.69a1.84,1.84,0,1,1,.45-2.57A1.84,1.84,0,0,1,70.05,129.69Z"/><path class="cls-55" d="M74,132.32a1.84,1.84,0,1,1,.45-2.57A1.85,1.85,0,0,1,74,132.32Z"/><path class="cls-56" d="M74,134.2a2.52,2.52,0,1,1-1.93-3A2.52,2.52,0,0,1,74,134.2Z"/><path class="cls-56" d="M77.12,133.52a2,2,0,1,1-1.5-2.33A2,2,0,0,1,77.12,133.52Z"/><path class="cls-56" d="M69.93,132.7a1.37,1.37,0,1,1-1.05-1.63A1.37,1.37,0,0,1,69.93,132.7Z"/><path class="cls-56" d="M78.85,132.59a1.37,1.37,0,1,1-1-1.62A1.36,1.36,0,0,1,78.85,132.59Z"/><path class="cls-57" d="M72.14,126.59a2.46,2.46,0,1,1-2.46-2.46A2.46,2.46,0,0,1,72.14,126.59Z"/><path class="cls-57" d="M74.57,128.49a1.91,1.91,0,1,1-1.91-1.91A1.91,1.91,0,0,1,74.57,128.49Z"/><path class="cls-57" d="M74.57,124.13a1.91,1.91,0,1,1-1.91-1.91A1.91,1.91,0,0,1,74.57,124.13Z"/><path class="cls-57" d="M78.12,126.85a1.33,1.33,0,1,1-1.33-1.33A1.33,1.33,0,0,1,78.12,126.85Z"/><path class="cls-57" d="M76.79,126.59a2.46,2.46,0,1,1-2.46-2.46A2.46,2.46,0,0,1,76.79,126.59Z"/><polygon class="cls-25" points="105.84 135.06 112.45 138.84 135.87 124.69 129.71 121.16 105.84 135.06"/><polygon class="cls-25" points="104.41 137.33 112.45 141.78 138.43 126.01 131.28 121.55 104.41 137.33"/><polygon class="cls-21" points="104.41 138.87 104.41 137.33 112.45 141.78 112.45 143.28 104.41 138.87"/><polygon class="cls-20" points="112.45 141.78 138.43 126.01 138.43 127.39 112.45 143.28 112.45 141.78"/><polygon class="cls-21" points="105.84 136.6 105.84 135.06 112.45 138.84 112.45 140.35 105.84 136.6"/><polygon class="cls-20" points="112.45 138.84 135.87 124.62 135.87 126.01 112.45 140.35 112.45 138.84"/><polygon class="cls-25" points="107.22 132.66 112.45 135.68 132.79 123.29 128.01 120.53 107.22 132.66"/><polygon class="cls-21" points="107.22 134.2 107.22 132.66 112.45 135.68 112.45 137.18 107.22 134.2"/><polygon class="cls-20" points="112.45 135.68 132.79 123.29 132.79 124.67 112.45 137.18 112.45 135.68"/><polygon class="cls-50" points="11.04 120.72 11.04 193.06 52.84 168.93 52.84 96.59 11.04 120.72"/><polygon class="cls-51" points="29.19 178.31 29.76 177.98 36.35 174.1 36.96 173.73 36.96 157.54 29.15 161.87 29.19 178.31"/><polygon class="cls-52" points="36.35 174.1 36.35 158.77 29.76 162.42 29.76 177.98 36.35 174.1"/><polygon class="cls-53" points="33.14 162.16 35.5 160.7 35.5 171.89 33.14 173.3 33.14 162.16"/><polygon class="cls-53" points="32.46 162.41 32.46 173.7 30.02 175.16 30.02 164.05 32.46 162.41"/><polygon class="cls-46" points="19.15 156.02 23.53 153.38 23.53 147.21 19.15 149.67 19.15 156.02"/><polygon class="cls-47" points="19.51 155.3 23.17 153.09 23.17 147.93 19.5 149.99 19.51 155.3"/><polygon class="cls-48" points="19.91 154.58 22.77 152.86 22.77 148.83 19.91 150.44 19.91 154.58"/><polygon class="cls-46" points="19.15 163.37 23.53 160.74 23.53 154.56 19.15 157.03 19.15 163.37"/><polygon class="cls-47" points="19.51 162.62 23.17 160.41 23.17 155.24 19.5 157.31 19.51 162.62"/><polygon class="cls-48" points="19.91 161.9 22.77 160.18 22.77 156.15 19.91 157.76 19.91 161.9"/><polygon class="cls-46" points="19.15 177.97 23.53 175.34 23.53 169.16 19.15 171.63 19.15 177.97"/><polygon class="cls-47" points="19.51 177.25 23.17 175.05 23.17 169.88 19.5 171.94 19.51 177.25"/><polygon class="cls-48" points="19.91 176.53 22.77 174.81 22.77 170.78 19.91 172.39 19.91 176.53"/><polygon class="cls-46" points="19.15 170.65 23.53 168.02 23.53 161.84 19.15 164.31 19.15 170.65"/><polygon class="cls-47" points="19.51 169.93 23.17 167.73 23.17 162.56 19.5 164.63 19.51 169.93"/><polygon class="cls-48" points="19.91 169.22 22.77 167.5 22.77 163.47 19.91 165.07 19.91 169.22"/><polygon class="cls-46" points="42.76 143.39 47.13 140.76 47.13 134.58 42.75 137.05 42.76 143.39"/><polygon class="cls-47" points="43.12 142.67 46.78 140.47 46.78 135.3 43.11 137.37 43.12 142.67"/><polygon class="cls-48" points="43.52 141.96 46.37 140.24 46.37 136.21 43.51 137.81 43.52 141.96"/><polygon class="cls-46" points="42.76 150.75 47.13 148.11 47.13 141.94 42.75 144.4 42.76 150.75"/><polygon class="cls-47" points="43.12 149.99 46.78 147.79 46.78 142.62 43.11 144.68 43.12 149.99"/><polygon class="cls-48" points="43.52 149.28 46.37 147.55 46.37 143.52 43.51 145.13 43.52 149.28"/><polygon class="cls-46" points="42.76 165.35 47.13 162.71 47.13 156.54 42.75 159 42.76 165.35"/><polygon class="cls-47" points="43.12 164.63 46.78 162.43 46.78 157.26 43.11 159.32 43.12 164.63"/><polygon class="cls-48" points="43.52 163.91 46.37 162.19 46.37 158.16 43.51 159.77 43.52 163.91"/><polygon class="cls-46" points="42.76 158.03 47.13 155.4 47.13 149.22 42.75 151.69 42.76 158.03"/><polygon class="cls-47" points="43.12 157.31 46.78 155.11 46.78 149.94 43.11 152 43.12 157.31"/><polygon class="cls-48" points="43.52 156.59 46.37 154.87 46.37 150.84 43.51 152.45 43.52 156.59"/><polygon class="cls-25" points="21.34 184.21 27.94 188 51.36 173.84 45.21 170.31 21.34 184.21"/><polygon class="cls-25" points="19.91 186.48 27.94 190.93 53.92 175.16 46.78 170.71 19.91 186.48"/><polygon class="cls-21" points="19.91 188.02 19.91 186.48 27.94 190.93 27.94 192.43 19.91 188.02"/><polygon class="cls-20" points="27.94 190.93 53.92 175.16 53.92 176.54 27.94 192.43 27.94 190.93"/><polygon class="cls-21" points="21.34 185.75 21.34 184.21 27.94 188 27.94 189.5 21.34 185.75"/><polygon class="cls-20" points="27.94 188 51.36 173.77 51.36 175.16 27.94 189.5 27.94 188"/><polygon class="cls-25" points="22.71 181.81 27.94 184.83 48.28 172.44 43.5 169.68 22.71 181.81"/><polygon class="cls-21" points="22.71 183.35 22.71 181.81 27.94 184.83 27.94 186.33 22.71 183.35"/><polygon class="cls-20" points="27.94 184.83 48.28 172.44 48.28 173.82 27.94 186.33 27.94 184.83"/><polygon class="cls-46" points="7.35 141.52 2.12 138.38 2.12 128.59 7.35 131.53 7.35 141.52"/><polyline class="cls-47" points="6.95 137.34 6.95 140.85 2.52 138.19 2.52 129.33 6.95 131.82 6.95 137.34"/><polygon class="cls-48" points="6.49 134.07 2.98 132.1 2.98 130.23 6.49 132.21 6.49 134.07"/><polygon class="cls-48" points="6.49 139.87 2.98 137.76 2.98 132.81 6.49 134.78 6.49 139.87"/><polygon class="cls-46" points="54.16 93.69 59.39 90.55 59.39 80.75 54.16 83.69 54.16 93.69"/><polyline class="cls-47" points="54.56 89.51 54.56 93.01 58.99 90.35 58.99 81.49 54.56 83.98 54.56 89.51"/><polygon class="cls-48" points="55.02 86.23 58.53 84.26 58.53 82.39 55.02 84.37 55.02 86.23"/><polygon class="cls-48" points="55.03 92.03 58.53 89.92 58.53 84.97 55.02 86.95 55.03 92.03"/><polygon class="cls-46" points="64.19 87.89 69.41 84.75 69.41 74.95 64.19 77.89 64.19 87.89"/><polyline class="cls-47" points="64.58 83.71 64.58 87.22 69.02 84.55 69.02 75.69 64.58 78.19 64.58 83.71"/><polygon class="cls-48" points="65.05 80.44 68.56 78.46 68.56 76.59 65.05 78.57 65.05 80.44"/><polygon class="cls-48" points="65.05 86.23 68.56 84.12 68.56 79.17 65.05 81.15 65.05 86.23"/><polygon class="cls-46" points="43.9 98.61 49.12 95.47 49.12 85.68 43.9 88.62 43.9 98.61"/><polyline class="cls-47" points="44.29 94.44 44.29 97.94 48.73 95.28 48.73 86.42 44.29 88.91 44.29 94.44"/><polygon class="cls-48" points="44.75 91.16 48.26 89.19 48.26 87.32 44.75 89.3 44.75 91.16"/><polygon class="cls-48" points="44.76 96.96 48.26 94.85 48.26 89.9 44.75 91.88 44.76 96.96"/><polygon class="cls-58" points="94.66 72.49 136.46 48.35 115.55 36.25 73.75 12.11 -51.68 84.52 -9.87 108.66 11.04 120.73 52.84 96.59 32.05 84.46 73.74 60.38 94.66 72.49"/><polygon class="cls-46" points="91.82 93.64 86.6 90.5 86.6 80.71 91.82 83.65 91.82 93.64"/><polyline class="cls-47" points="91.43 89.47 91.43 92.97 86.99 90.31 86.99 81.45 91.43 83.94 91.43 89.47"/><polygon class="cls-48" points="90.97 86.19 87.46 84.22 87.46 82.35 90.97 84.33 90.97 86.19"/><polygon class="cls-48" points="90.96 91.99 87.46 89.88 87.46 84.93 90.97 86.91 90.96 91.99"/><polygon class="cls-46" points="81.8 87.92 76.58 84.78 76.58 74.98 81.8 77.92 81.8 87.92"/><polyline class="cls-47" points="81.41 83.74 81.41 87.24 76.97 84.58 76.97 75.72 81.41 78.22 81.41 83.74"/><polygon class="cls-48" points="80.95 80.47 77.44 78.49 77.44 76.62 80.95 78.6 80.95 80.47"/><polygon class="cls-48" points="80.94 86.26 77.44 84.15 77.44 79.2 80.95 81.18 80.94 86.26"/><polygon class="cls-50" points="-46.59 84.51 10.82 117.15 47.4 96.58 26.5 84.51 73.53 57.3 94.44 69.68 131.38 48.18 73.53 14.52 -46.59 84.51"/><polygon class="cls-59" points="73.53 14.52 73.53 18.28 -43.15 86.47 -46.59 84.51 73.53 14.52"/><polygon class="cls-49" points="73.53 18.28 128.7 49.74 131.38 48.18 73.53 14.52 73.53 18.28"/><polygon class="cls-49" points="26.5 84.51 26.5 88.51 44.23 98.37 47.4 96.58 26.5 84.51"/><polygon class="cls-46" points="19.15 141.08 23.53 138.44 23.53 132.26 19.15 134.73 19.15 141.08"/><polygon class="cls-47" points="19.51 140.36 23.17 138.15 23.17 132.98 19.5 135.05 19.51 140.36"/><polygon class="cls-48" points="19.91 139.64 22.77 137.92 22.77 133.89 19.91 135.5 19.91 139.64"/><polygon class="cls-46" points="19.15 148.43 23.53 145.8 23.53 139.62 19.15 142.09 19.15 148.43"/><polygon class="cls-47" points="19.51 147.68 23.17 145.47 23.17 140.3 19.5 142.37 19.51 147.68"/><polygon class="cls-48" points="19.91 146.96 22.77 145.24 22.77 141.21 19.91 142.82 19.91 146.96"/><polygon class="cls-46" points="42.61 128.62 46.98 125.98 46.98 119.8 42.6 122.27 42.61 128.62"/><polygon class="cls-47" points="42.97 127.9 46.63 125.69 46.63 120.52 42.96 122.59 42.97 127.9"/><polygon class="cls-48" points="43.37 127.18 46.22 125.46 46.22 121.43 43.36 123.04 43.37 127.18"/><polygon class="cls-46" points="42.61 135.97 46.98 133.34 46.98 127.16 42.6 129.63 42.61 135.97"/><polygon class="cls-47" points="42.97 135.22 46.63 133.01 46.63 127.84 42.96 129.91 42.97 135.22"/><polygon class="cls-48" points="43.37 134.5 46.22 132.78 46.22 128.75 43.36 130.36 43.37 134.5"/><polygon class="cls-46" points="103.55 91.54 107.92 88.91 107.92 82.73 103.54 85.2 103.55 91.54"/><polygon class="cls-47" points="103.91 90.82 107.57 88.62 107.57 83.45 103.9 85.52 103.91 90.82"/><polygon class="cls-48" points="104.31 90.11 107.16 88.39 107.16 84.36 104.3 85.97 104.31 90.11"/><polygon class="cls-46" points="103.55 98.9 107.92 96.26 107.92 90.09 103.54 92.55 103.55 98.9"/><polygon class="cls-47" points="103.91 98.14 107.57 95.94 107.57 90.77 103.9 92.83 103.91 98.14"/><polygon class="cls-48" points="104.31 97.43 107.16 95.71 107.16 91.67 104.3 93.28 104.31 97.43"/><polygon class="cls-46" points="127.01 79.27 131.38 76.64 131.38 70.46 127 72.93 127.01 79.27"/><polygon class="cls-47" points="127.36 78.55 131.02 76.35 131.02 71.18 127.36 73.24 127.36 78.55"/><polygon class="cls-48" points="127.77 77.84 130.62 76.11 130.62 72.08 127.76 73.69 127.77 77.84"/><polygon class="cls-46" points="127.01 86.63 131.38 83.99 131.38 77.82 127 80.28 127.01 86.63"/><polygon class="cls-47" points="127.36 85.87 131.02 83.67 131.02 78.5 127.36 80.56 127.36 85.87"/><polygon class="cls-48" points="127.77 85.15 130.62 83.43 130.62 79.4 127.76 81.01 127.77 85.15"/></g></svg>