<svg id="Layer_1" data-name="Layer 1" xmlns="http://www.w3.org/2000/svg" xmlns:xlink="http://www.w3.org/1999/xlink" viewBox="0 0 170.08 226.77"><defs><style>.cls-1{fill:none;}.cls-2{fill:#616b6f;}.cls-3{clip-path:url(#clip-path);}.cls-4{fill:#aca9a2;}.cls-5{fill:#786855;}.cls-6{clip-path:url(#clip-path-2);}.cls-7{fill:#a28a7b;}.cls-8{fill:#7f6c5d;}.cls-9{fill:#6e5d50;}.cls-10{fill:#b29f91;}.cls-11{fill:#6a554f;}.cls-12{fill:#7a635c;}.cls-13{fill:#887765;}.cls-14{fill:#66584a;}.cls-15{fill:#54483e;}.cls-16{fill:#858789;}.cls-17{fill:#b2b2b4;}.cls-18{fill:#59595b;}.cls-19{fill:#806b66;}.cls-20{fill:#594c4d;}.cls-21{fill:#a38f84;}.cls-22{fill:#98837b;}.cls-23{fill:#5c782a;}.cls-24{fill:#8a8c59;}.cls-25{fill:#72922f;}.cls-26{fill:#8a5f3c;}.cls-27{fill:#744c29;}.cls-28{fill:#498031;}.cls-29{fill:#559132;}.cls-30{fill:#63a630;}.cls-31{fill:#6fb23c;}.cls-32{clip-path:url(#clip-path-3);}</style><clipPath id="clip-path"><path class="cls-1" d="M252.14-63.48a5.4,5.4,0,0,1-5.4,5.4H1.07a5.4,5.4,0,0,1-5.4-5.4V-309.15a5.4,5.4,0,0,1,5.4-5.4H246.74a5.4,5.4,0,0,1,5.4,5.4V-63.48"/></clipPath><clipPath id="clip-path-2"><path class="cls-1" d="M252.67,221.54a5.4,5.4,0,0,1-5.4,5.4H1.6a5.4,5.4,0,0,1-5.4-5.4V-24.13a5.4,5.4,0,0,1,5.4-5.4H247.27a5.4,5.4,0,0,1,5.4,5.4V221.54"/></clipPath><clipPath id="clip-path-3"><path class="cls-1" d="M253,504.14a5.4,5.4,0,0,1-5.41,5.4H1.89a5.4,5.4,0,0,1-5.41-5.4V258.48a5.4,5.4,0,0,1,5.41-5.4H247.61a5.4,5.4,0,0,1,5.41,5.4V504.14"/></clipPath></defs><title>Artboard 27</title><polyline class="cls-2" points="1399.52 806.3 -17.48 806.3 -17.48 -327.7 1399.52 -327.7 1399.52 806.3"/><g class="cls-3"><polygon class="cls-4" points="188.96 7.35 188.96 -78.11 93.72 -133.09 93.72 -47.63 188.96 7.35"/></g><polyline class="cls-5" points="266.45 239.58 -17.02 239.58 -17.02 -43.88 266.45 -43.88 266.45 239.58"/><g class="cls-6"><polyline class="cls-7" points="266.6 239.64 -16.86 239.64 -16.86 -43.82 266.6 -43.82 266.6 239.64"/><polyline class="cls-8" points="-42.93 155.07 -9.37 127.39 60.64 128.86 115.15 160.33 285.64 160.33 285.64 290.19 -16.86 262.44 -43.66 160.98 -42.93 155.07"/><path class="cls-9" d="M107.31,190.49c-37.12,0-67.22,1.54-67.22,3.45s30.1,3.44,67.22,3.44,67.22-1.54,67.22-3.44-30.09-3.45-67.22-3.45"/><path class="cls-10" d="M224.43,91c-9.51,0-17.21-1.55-17.21-3.45s7.7-3.45,17.21-3.45,17.21,1.55,17.21,3.45S233.93,91,224.43,91M50.83,65.29c-26.63,0-48.22-1.54-48.22-3.45S24.2,58.4,50.83,58.4,99,59.94,99,61.84s-21.59,3.45-48.21,3.45m54.22-6.13c-4.76,0-8.61-1.54-8.61-3.45s3.85-3.44,8.61-3.44,8.61,1.54,8.61,3.44-3.85,3.45-8.61,3.45m-25.23-5.4c-6.19,0-11.2-1.82-11.2-4.06s5-4.05,11.2-4.05S91,47.47,91,49.7s-5,4.06-11.2,4.06M15,52C4.65,52-3.75,50.17-3.75,47.91S4.65,43.8,15,43.8s18.76,1.84,18.76,4.11S25.38,52,15,52M38.79-3.14a4.21,4.21,0,0,1-1.17-2.81c0-3.47,4.93-9.88,11-9.88s11,6.41,11,9.88A5,5,0,0,1,57.22-2a1.57,1.57,0,0,1,.56,1.1C57.78,1,53,2.51,47,2.51S36.31,1,36.31-.94c0-.83.93-1.6,2.48-2.2M230.56-29.53H1.6a5.4,5.4,0,0,0-5.4,5.4V12.25c15.07-.69,36.69-1.12,60.71-1.12,45.53,0,82.44,1.54,82.44,3.45S102.44,18,56.91,18c-24,0-45.64-.43-60.71-1.12V78L7.75,87.54,109.2,82.77l64.86,15.66,78.61,4.18V64.31c-7.89.11-16.3.16-25,.16-45.53,0-82.44-1.54-82.44-3.44s36.91-3.45,82.44-3.45c8.73,0,17.14.06,25,.16v-11c-38.9-.28-68.51-1.7-68.51-3.4s29.61-3.12,68.51-3.4V30.84c-8.7.07-17.78.1-27.12.1C161.74,30.94,110,29.4,110,27.49s51.72-3.44,115.53-3.44c9.34,0,18.42,0,27.12.09V1.07c-3.61.27-8.08.52-13.26.74a3.59,3.59,0,0,1,.69,2.49,2.75,2.75,0,0,1-.4.74.93.93,0,0,1-.06.6c-.68,1.42-4,.6-5,1.44a1.93,1.93,0,0,0-.24.25c4.45.52,7.52,1.61,7.52,2.88,0,1.77-6,3.21-13.33,3.21S215.23,12,215.23,10.21c0-1.07,2.2-2,5.59-2.61a1.89,1.89,0,0,0-.42-.53c-1.05-.83-4.34,0-5-1.44-.35-.73.57-1.94,1.2-3.13-10.89.22-23.13.35-36.06.35C135,2.85,98.07,1.3,98.07-.6S135-4,180.51-4c7,0,13.88,0,20.4.1a1.29,1.29,0,0,0-.16-.17c-.67-.53-2.78,0-3.22-.92-.35-.73,1.29-2.2,1.12-3.22-.14-.81-2.22-1.56-2.22-2.58,0-1.24,2.12-2.38,2.32-3.68s-1.49-3-1.14-4.2,2.71-1.79,3.24-2.89c.61-1.28-.36-3.5.41-4.35a1.66,1.66,0,0,1,1.31-.52c.92,0,2,.42,2.72.42a3.4,3.4,0,0,0,.61-.06,1.5,1.5,0,0,0,.37-.92c.44-.12.71-.49,1.08-.49a.85.85,0,0,1,.5.2c.17.13.17.45.12.85H208a1.7,1.7,0,0,1,1.32.52,2.54,2.54,0,0,1,.27,1.83c.5,0,.95.12,1.11.41.27.48-.68,1.63-.79,2.4a4.7,4.7,0,0,0,1.15.88c.65.14,1.36.27,1.52.66a1.12,1.12,0,0,1,.08.52,1.48,1.48,0,0,1,.3.53c.27.92-.63,2.12-1,3.2.6.92,2.15,1.68,2.21,2.6a1.77,1.77,0,0,1-.42,1.1,1.8,1.8,0,0,1,.39,1c0,.79-1.25,1.42-1.88,2,.35,1,1.32,2.18,1.06,2.91a1.41,1.41,0,0,1-.25.47.58.58,0,0,1,0,.39c-.43.9-2.54.38-3.21.92a.61.61,0,0,0-.16.16l1,.13,3,.06C214-5.57,217-7.28,217.27-9.2s-2.34-4.66-1.78-6.57,4.24-2.79,5.06-4.52c.95-2-.56-5.46.64-6.79a2.6,2.6,0,0,1,2.06-.82c1.43,0,3.07.66,4.26.66a5.48,5.48,0,0,0,.94-.1,2.29,2.29,0,0,0,.58-1.43c.63-.18,1-.67,1.53-.76m16.71,0H230.89a1.73,1.73,0,0,1,.62.3c.26.2.25.71.17,1.33h.08a2.61,2.61,0,0,1,2.06.81c.56.62.53,1.69.44,2.87.77.06,1.48.19,1.73.64.42.74-1.06,2.55-1.24,3.74a7.44,7.44,0,0,0,1.81,1.39c1,.22,2.13.42,2.38,1a1.88,1.88,0,0,1,.12.82,2.39,2.39,0,0,1,.46.84c.42,1.44-1,3.31-1.55,5,.92,1.45,3.36,2.63,3.45,4.07A2.76,2.76,0,0,1,240.76-5a2.8,2.8,0,0,1,.6,1.55,1.26,1.26,0,0,1-.11.51c4.4.2,8.24.42,11.42.66V-24.13a5.4,5.4,0,0,0-5.4-5.4"/><path class="cls-11" d="M16.66,178.41c-7.2,0-13,1.55-13,3.45s5.84,3.45,13,3.45c4.64,0,8.72-.64,11-1.61a.78.78,0,0,1-.37-.37c-.32-.67,1-1.92,1.15-2.93-2.08-1.18-6.59-2-11.81-2"/><path class="cls-11" d="M66.63,219.05c-9.51,0-17.21,1.54-17.21,3.45s7.7,3.44,17.21,3.44,17.21-1.54,17.21-3.44-7.71-3.45-17.21-3.45"/><path class="cls-12" d="M119.92,127.39c-10.36,0-18.76,1.83-18.76,4.1s8.4,4.1,18.76,4.1,18.77-1.83,18.77-4.1-8.4-4.1-18.77-4.1"/><path class="cls-12" d="M78.1,89.87c-10.37,0-18.77,1.84-18.77,4.1s8.4,4.1,18.77,4.1S96.86,96.24,96.86,94s-8.4-4.1-18.76-4.1"/><path class="cls-12" d="M154.42,111c-4.76,0-8.62,1.54-8.62,3.45s3.86,3.44,8.62,3.44,8.61-1.54,8.61-3.44-3.86-3.45-8.61-3.45"/><polygon class="cls-13" points="7.75 75.08 135.48 75.08 135.48 90.17 7.75 90.46 7.75 75.08"/><polygon class="cls-14" points="7.75 75.5 -28.06 54.84 -28.06 68.8 7.75 90.35 7.75 75.5"/><polygon class="cls-14" points="135.48 75.08 174.46 97.53 174.42 112.07 135.48 90.17 135.48 75.08"/><polygon class="cls-13" points="102.97 139.5 269.28 139.5 269.28 167.36 102.97 167.88 102.97 139.5"/><polygon class="cls-15" points="103.04 139.03 55.36 110.67 55.36 138.16 103.04 167.42 103.04 139.03"/><polygon class="cls-13" points="-111.21 110.97 55.1 110.97 55.1 138.83 -111.21 139.35 -111.21 110.97"/><path class="cls-16" d="M86.14,89.34c0,3.47-4.93,6.28-11,6.28s-11-2.81-11-6.28,4.92-9.88,11-9.88S86.14,85.88,86.14,89.34Z"/><path class="cls-17" d="M91.65,92.55c0,1.46-2.08,2.65-4.64,2.65S82.37,94,82.37,92.55s2.08-4.17,4.64-4.17S91.65,91.09,91.65,92.55Z"/><path class="cls-18" d="M59.61-5.95c0,3.47-4.92,6.28-11,6.28s-11-2.81-11-6.28,4.93-9.88,11-9.88,11,6.41,11,9.88"/><path class="cls-16" d="M159.05,113.39c0,1.46-2.07,2.64-4.63,2.64s-4.64-1.18-4.64-2.64,2.08-4.17,4.64-4.17A5.09,5.09,0,0,1,159.05,113.39Z"/><path class="cls-17" d="M72.22-.17c0,1.46-2.08,2.64-4.64,2.64S62.94,1.29,62.94-.17,65-4.34,67.58-4.34,72.22-1.64,72.22-.17Z"/><path class="cls-16" d="M108.94,127.37c0,1.45-1.74,2.62-3.89,2.62s-3.89-1.17-3.89-2.62,1.74-2.61,3.89-2.61S108.94,125.93,108.94,127.37Z"/><path class="cls-18" d="M135.48,129.21c0,4.28-5.62,5.34-12.56,5.34s-12.55-1.06-12.55-5.34.92-12.28,7.86-12.28S135.48,124.92,135.48,129.21Z"/><path class="cls-16" d="M29.7,177.29c0,3.47-4.92,6.28-11,6.28s-11-2.81-11-6.28,4.92-9.88,11-9.88S29.7,173.83,29.7,177.29Z"/><path class="cls-17" d="M79.05,217.16c0,4.28-5.62,5.34-12.56,5.34s-12.55-1.06-12.55-5.34.92-12.28,7.85-12.28S79.05,212.87,79.05,217.16Z"/><path class="cls-19" d="M38.79-3.14c-1.55.6-2.48,1.37-2.48,2.2C36.31,1,41.11,2.51,47,2.51S57.78,1,57.78-.94A1.57,1.57,0,0,0,57.22-2,15.16,15.16,0,0,1,48.62.33c-4.31,0-8-1.41-9.83-3.47"/><path class="cls-20" d="M47-4.38a24.21,24.21,0,0,0-8.25,1.24C40.59-1.08,44.31.33,48.62.33A15.16,15.16,0,0,0,57.22-2C55.78-3.4,51.77-4.38,47-4.38"/><path class="cls-9" d="M211.8,202.43c-45.53,0-82.45,1.54-82.45,3.45s36.92,3.44,82.45,3.44c14.87,0,28.82-.16,40.87-.45v-6c-12-.28-26-.45-40.87-.45"/><path class="cls-21" d="M56.91,11.13c-24,0-45.64.43-60.71,1.12v4.66C11.27,17.6,32.89,18,56.91,18c45.53,0,82.44-1.55,82.44-3.45s-36.91-3.45-82.44-3.45"/><path class="cls-22" d="M225.55,24.05C161.74,24.05,110,25.59,110,27.49s51.72,3.45,115.53,3.45c9.34,0,18.42,0,27.12-.1v-6.7c-8.7-.06-17.78-.09-27.12-.09"/><path class="cls-22" d="M227.64,57.58c-45.53,0-82.44,1.54-82.44,3.45s36.91,3.44,82.44,3.44c8.73,0,17.14,0,25-.16V57.74c-7.89-.1-16.3-.16-25-.16"/><path class="cls-21" d="M241.25-2.93c-.42,1-2,1.84-2.81,2.67a13.82,13.82,0,0,0,1,2.07c5.18-.22,9.65-.47,13.26-.74V-2.27c-3.18-.24-7-.46-11.42-.66m-30.57-.88a10.48,10.48,0,0,1,3.08.88,1.26,1.26,0,0,1-.11-.51,1.63,1.63,0,0,1,0-.31l-3-.06M180.51-4C135-4,98.07-2.5,98.07-.6S135,2.85,180.51,2.85c12.93,0,25.17-.13,36.06-.35a3.29,3.29,0,0,0,.54-1.91C217-.26,215.46-1.07,214.48-2,214.24-.91,210.52,0,206,0c-4.71,0-8.53-.92-8.53-2.05,0-.69,1.41-1.3,3.58-1.67,0-.06-.07-.12-.11-.17C194.39-4,187.55-4,180.51-4"/><path class="cls-11" d="M23.63,191c-4.76,0-8.61,1.54-8.61,3.44s3.85,3.45,8.61,3.45,8.61-1.54,8.61-3.45S28.39,191,23.63,191"/><path class="cls-16" d="M29.18,193.09c0,1.75-2.48,3.17-5.55,3.17s-5.55-1.42-5.55-3.17,2.48-5,5.55-5S29.18,191.34,29.18,193.09Z"/><path class="cls-11" d="M39.85,184.49c-.57.76-.59,2.67-1.45,2.89l-.15,0c-.86,0-2-1.76-2.93-1.76a2.83,2.83,0,0,0-1.49.87c-.51.44-1,.87-1.44.87a.39.39,0,0,1-.15,0c-.8-.21-.87-1.86-1.33-2.71-2.23.38-3.68,1-3.68,1.72,0,1.18,3.93,2.14,8.78,2.15h.09c4.81,0,8.7-.94,8.7-2.11,0-.84-2-1.57-4.95-1.92"/><path class="cls-23" d="M44.48,177.37c0,1-2.15,1.82-2.29,2.66-.18,1.05,1.51,2.58,1.15,3.34-.45.94-2.64.4-3.33.95s-.67,2.82-1.61,3.06-2.09-1.74-3.08-1.74a2.83,2.83,0,0,0-1.49.87c-.57.49-1.13,1-1.59.85-.94-.24-.87-2.46-1.6-3.06s-2.88,0-3.32-1c-.37-.76,1.34-2.27,1.16-3.33-.13-.84-2.28-1.61-2.28-2.67,0-1.28,2.19-2.46,2.4-3.81s-1.54-3.08-1.17-4.35,2.81-1.84,3.35-3c.63-1.32-.37-3.62.42-4.5,1-1.16,3-.11,4.17-.1a6.54,6.54,0,0,0,1.34-.22c1-.22,2.14-.45,2.84.34s-.23,3.17.4,4.49c.53,1.15,2.95,1.68,3.34,3s-1.39,3-1.2,4.34,2.39,2.54,2.39,3.82"/><path class="cls-24" d="M42.54,179.47a1.05,1.05,0,0,0-.35.56c-.15.89,1,2.13,1.19,2.94a2,2,0,0,0,.26-.48c.26-.76-.75-1.93-1.1-3m-.3-7a2.41,2.41,0,0,0-.15,1c.15,1,1.35,1.88,2,2.79a1.73,1.73,0,0,0,.44-1.14c-.06-.95-1.66-1.74-2.28-2.69m-.92-5.09A6.52,6.52,0,0,1,43,168.65a1.27,1.27,0,0,0-.08-.55c-.16-.4-.91-.53-1.58-.68m-1.49-3.82a5.34,5.34,0,0,0,.12,2.6,1,1,0,0,0,.19.3c.12-.79,1.11-2,.83-2.48-.17-.29-.63-.38-1.14-.42m-2.33-3.53c-.38,0-.66.37-1.12.5a1.51,1.51,0,0,1-.38,1l.71-.15a7.06,7.06,0,0,1,1.42-.21c.06-.41.07-.75-.11-.88a.88.88,0,0,0-.52-.21"/><path class="cls-25" d="M38.13,161.16a7.06,7.06,0,0,0-1.42.21l-.71.15c-.31.39-.63.68-.19,1.44.33.58,2.5.42,2.81,1.22s-1.41,2-1.24,2.81,2.26,1.24,2.3,2-2,1.43-2.12,2.23c-.14,1,1.57,2.57,1.28,3.87-.26,1.14-2.52,1.92-2.75,3.09s1.55,2.73,1.48,3.8c-.09,1.55-1.52,3.52-.79,4.09a.44.44,0,0,0,.27.09c.7,0,1.85-1.41,3.32-2.11.58-.28,2.25-.15,3-1.13-.15-.81-1.34-2.05-1.19-2.94a1.05,1.05,0,0,1,.35-.56,2,2,0,0,1-.11-.83c.08-.74,1.06-1.5,1.65-2.3-.64-.91-1.84-1.81-2-2.79a2.41,2.41,0,0,1,.15-1A1.53,1.53,0,0,1,42,172c-.21-.92.88-2.3.94-3.38a6.52,6.52,0,0,0-1.66-1.23c-.53-.12-1-.25-1.14-.52a.59.59,0,0,1,0-.4,1,1,0,0,1-.19-.3,5.34,5.34,0,0,1-.12-2.6c-.71-.06-1.5,0-1.73-.33s-.07-1.39,0-2.11"/><path class="cls-19" d="M15,43.8c-10.37,0-18.77,1.84-18.77,4.11S4.65,52,15,52s18.76-1.84,18.76-4.1S25.38,43.8,15,43.8"/><path class="cls-16" d="M4,43.79C4,45.23,2.29,46.4.14,46.4s-3.89-1.17-3.89-2.61S-2,41.17.14,41.17,4,42.34,4,43.79Z"/><path class="cls-18" d="M30.57,45.62C30.57,49.91,25,51,18,51S5.46,49.91,5.46,45.62s.93-12.28,7.86-12.28S30.57,41.34,30.57,45.62Z"/><path class="cls-19" d="M105.05,52.27c-4.76,0-8.61,1.54-8.61,3.44s3.85,3.45,8.61,3.45,8.61-1.54,8.61-3.45-3.85-3.44-8.61-3.44"/><path class="cls-16" d="M109.69,54.68c0,1.47-2.08,2.65-4.64,2.65s-4.64-1.18-4.64-2.65,2.08-4.17,4.64-4.17S109.69,53.22,109.69,54.68Z"/><path class="cls-22" d="M50.83,58.4c-26.63,0-48.22,1.54-48.22,3.44s21.59,3.45,48.22,3.45S99,63.75,99,61.84,77.45,58.4,50.83,58.4"/><path class="cls-19" d="M79.82,45.65c-6.19,0-11.2,1.82-11.2,4.05s5,4.06,11.2,4.06S91,51.94,91,49.7s-5-4.05-11.2-4.05"/><path class="cls-26" d="M78.87,27.71l-1,21.67c0,.5.88.9,2,.9V27.71Z"/><path class="cls-27" d="M81.79,49.38l-1-21.67h-.94V50.28C80.91,50.28,81.79,49.88,81.79,49.38Z"/><polygon class="cls-28" points="69.34 44.04 72.54 44.69 76.18 43.75 79.81 44.69 83.45 43.75 87.08 44.69 90.29 44.04 89.34 39.61 86.65 35.53 85.71 30.74 83.02 26.66 82.07 21.87 79.81 18.08 77.56 21.86 76.62 26.66 73.92 30.73 72.98 35.52 70.28 39.62 69.34 44.04"/><polygon class="cls-29" points="70.52 35.12 73.32 35.77 76.57 34.83 79.81 35.77 83.06 34.83 86.3 35.77 89.11 35.12 88.36 31.16 85.87 27.57 85.12 23.25 82.62 19.65 81.88 15.34 79.81 12.03 77.76 15.33 77.01 19.64 74.51 23.24 73.77 27.56 71.26 31.18 70.52 35.12"/><polygon class="cls-30" points="71.92 25.68 74.26 26.33 77.03 25.39 79.81 26.33 82.59 25.39 85.37 26.33 87.71 25.68 87.2 22.29 84.93 19.26 84.42 15.52 82.16 12.49 81.64 8.74 79.81 6 77.99 8.74 77.48 12.48 75.21 15.51 74.7 19.26 72.43 22.31 71.92 25.68"/><polygon class="cls-31" points="73.64 16.7 75.41 17.35 77.61 16.41 79.81 17.35 82.01 16.41 84.22 17.35 85.99 16.7 85.76 14.01 83.78 11.69 83.56 8.64 81.58 6.32 81.35 3.27 79.81 1.23 78.28 3.27 78.05 6.31 76.08 8.63 75.85 11.68 73.86 14.04 73.64 16.7"/><path class="cls-12" d="M30.43,98.7c-4.76,0-8.61,1.55-8.61,3.45s3.85,3.45,8.61,3.45,8.62-1.54,8.62-3.45-3.86-3.45-8.62-3.45"/><path class="cls-16" d="M37.51,99.86c0,1.9-3.17,3.44-7.08,3.44s-7.08-1.54-7.08-3.44,3.17-4.66,7.08-4.66S37.51,98,37.51,99.86Z"/></g></svg>