<?xml version="1.0" encoding="UTF-8" standalone="no"?><!DOCTYPE svg PUBLIC "-//W3C//DTD SVG 1.1//EN" "http://www.w3.org/Graphics/SVG/1.1/DTD/svg11.dtd"><svg width="100%" height="100%" viewBox="0 0 472 477" version="1.1" xmlns="http://www.w3.org/2000/svg" xmlns:xlink="http://www.w3.org/1999/xlink" xml:space="preserve" style="fill-rule:evenodd;clip-rule:evenodd;"><rect id="Artboard1" x="0" y="0" width="471.833" height="476.178" style="fill:none;"/><clipPath id="_clip1"><rect x="0" y="0" width="471.833" height="476.178"/></clipPath><g clip-path="url(#_clip1)"><rect x="-1.713" y="-0.032" width="473.394" height="476.168" style="fill:#c90a3d;fill-rule:nonzero;"/><path d="M163.693,88.469c-14.267,1.389 -15.584,3 -15.517,19.889l0.3,83.111c0.055,16.889 1.567,18.5 16.028,19.778l0.005,2.389l-46.955,0.166l-0.011,-2.333c14.65,-1.445 16.333,-3.056 16.277,-19.945l-0.155,-42.555l-64.25,0.278l0.166,42.5c0.056,16.944 1.567,18.5 16.028,19.833l0.006,2.333l-45.828,0.167l-0.017,-2.333c13.717,-1.445 15.217,-3.056 15.156,-19.945l-0.3,-83.055c-0.067,-16.945 -1.578,-18.5 -15.289,-19.834l-0.011,-2.389l44.333,-0.166l0.011,2.389c-12.955,1.444 -14.455,3 -14.389,19.944l0.117,35.222l64.245,-0.222l-0.123,-35.278c-0.061,-16.889 -1.75,-18.444 -15.1,-19.777l-0.016,-2.389l45.277,-0.167" style="fill:#fff;fill-rule:nonzero;"/><path d="M212.265,155.969c-5.439,0 -10.517,-1 -12.956,-2l0.156,-50.945c0.028,-7.111 0.594,-9.888 2.105,-11.055c1.128,-1.167 4.889,-2.111 9.961,-2.111c16.162,0.055 28.334,10.111 28.267,32.166c-0.094,27.334 -15.7,34 -27.533,33.945m32.505,-61.667c-6.939,-5.555 -17.827,-7.944 -30.6,-8l-43.761,-0.111l-0.011,2.167c13.139,1.222 14.461,2.611 14.411,19.722l-0.272,83.667c-0.044,16.722 -1.556,18.277 -15.461,19.611l-0.011,2.389l46.6,0.111l0,-2.334c-15.028,-1.444 -16.517,-2.833 -16.478,-19.333l0.117,-34.667l13.7,4c1.689,0.389 4.877,0.389 7.322,0c17.672,-2.277 36.105,-14.055 36.183,-39.666c0.05,-12.556 -4.433,-21.667 -11.739,-27.556" style="fill:#fff;fill-rule:nonzero;"/><path d="M304.587,155.969c-5.444,0.055 -10.522,-0.945 -12.972,-1.945l-0.034,-50.944c-0.011,-7.111 0.556,-9.889 2.062,-11.056c1.116,-1.166 4.877,-2.166 9.95,-2.166c16.15,0 28.377,10 28.388,32.055c0.028,27.389 -15.566,34.056 -27.394,34.056m32.261,-61.778c-6.955,-5.555 -17.861,-7.889 -30.633,-7.889l-43.767,0.056l0,2.166c13.15,1.167 14.478,2.556 14.489,19.667l0.061,83.667c0.017,16.722 -1.489,18.278 -15.389,19.666l0,2.389l46.589,-0.055l0,-2.389c-15.022,-1.333 -16.522,-2.722 -16.544,-19.222l-0.028,-34.667l13.722,3.944c1.678,0.389 4.872,0.389 7.311,-0.055c17.661,-2.333 36.067,-14.167 36.034,-39.778c-0.006,-12.555 -4.523,-21.611 -11.845,-27.5" style="fill:#fff;fill-rule:nonzero;"/><path d="M39.326,248.302l305.978,0" style="fill:none;stroke:#fff;stroke-width:5.56px;"/><rect x="383.526" y="385.069" width="64.911" height="65.289" style="fill:#fff;fill-rule:nonzero;"/><path d="M58.854,302.802l-0.034,-1.444c2.506,-0.278 2.806,-0.556 2.756,-3.667l-0.083,-5.055l-8.828,0.166l0.083,5.056c0.05,3.111 0.322,3.444 2.661,3.555l0.028,1.445l-10.467,0.166l-0.033,-1.444c2.767,-0.222 3.022,-0.5 2.967,-3.611l-0.184,-10.889c-0.055,-3.167 -0.316,-3.389 -3.172,-3.556l-0.028,-1.388l10.639,-0.223l0.028,1.389c-2.422,0.334 -2.678,0.5 -2.628,3.722l0.078,3.778l8.822,-0.166l-0.072,-3.778c-0.05,-3.167 -0.4,-3.389 -2.828,-3.611l-0.022,-1.389l10.561,-0.167l0.011,1.278c-2.678,0.389 -2.933,0.667 -2.872,3.778l0.178,10.889c0.055,3.166 0.316,3.388 3.005,3.555l0.023,1.389" style="fill:#fff;fill-rule:nonzero;"/><path d="M95.426,296.913c-0.195,1.556 -0.828,4.834 -1.078,5.723l-17.783,0.333l-0.022,-1.445c2.938,-0.222 3.2,-0.444 3.144,-3.611l-0.183,-10.944c-0.056,-3.167 -0.317,-3.333 -3,-3.5l-0.028,-1.389l16.694,-0.333c0.056,0.889 0.223,3.111 0.439,5.277l-1.383,0.112c-0.456,-1.334 -0.761,-2 -1.261,-2.612c-0.567,-0.722 -1.4,-1 -3.567,-0.944l-1.855,0c-1.206,0.056 -1.256,0.111 -1.239,1.333l0.111,6.111l2.733,-0.055c2.456,-0.056 2.767,-0.278 3.067,-2.445l1.428,0l0.116,6.778l-1.428,0c-0.383,-2.055 -0.694,-2.444 -3.155,-2.389l-2.728,0l0.083,4.778c0.023,1.833 0.262,2.722 0.784,3c0.566,0.389 1.522,0.445 3.255,0.445c1.9,-0.056 2.978,-0.334 3.739,-1.223c0.595,-0.666 1.145,-1.666 1.722,-3.111" style="fill:#fff;fill-rule:nonzero;"/><path d="M111.798,286.969l-0.128,0l-2.6,7.555l5.545,-0.111l-2.817,-7.444Zm3.045,15.833l-0.028,-1.444l0.778,-0.111c1.172,-0.223 1.455,-0.611 0.872,-2.111l-1.089,-2.723l-6.967,0.111c-0.283,0.723 -0.572,1.667 -0.9,2.778c-0.405,1.556 0.072,1.834 1.25,2.056l1.039,0.111l0.033,1.389l-8.138,0.166l-0.034,-1.444c1.995,-0.278 2.85,-0.611 3.972,-3.5l6.467,-16.333l2.072,-0.445l7.295,17.111c0.911,2.223 1.783,2.611 3.772,2.778l0.022,1.445" style="fill:#fff;fill-rule:nonzero;"/><path d="M150.148,296.469c-0.239,1.555 -0.822,5.055 -1.061,6.167l-17.35,0.333l-0.028,-1.445c2.945,-0.277 3.2,-0.5 3.145,-3.555l-0.189,-11.111c-0.05,-3.056 -0.356,-3.278 -3.039,-3.445l-0.028,-1.333l11.033,-0.222l0.017,1.389c-2.933,0.277 -3.183,0.444 -3.133,3.555l0.189,11.334c0.027,1.5 0.255,2.277 0.783,2.611c0.606,0.389 1.656,0.444 3.078,0.389c1.633,-0.056 2.805,-0.334 3.522,-1.278c0.644,-0.778 1.061,-1.778 1.633,-3.556" style="fill:#fff;fill-rule:nonzero;"/><path d="M174.681,287.691c-0.505,-1.944 -0.861,-2.833 -1.388,-3.389c-0.573,-0.666 -1.528,-0.833 -3.134,-0.778l-1.733,0l0.244,14.223c0.061,3.222 0.361,3.389 3.445,3.555l0.016,1.389l-11.427,0.222l-0.017,-1.444c2.944,-0.278 3.194,-0.445 3.144,-3.611l-0.25,-14.222l-1.161,0c-2.3,0.055 -3.027,0.388 -3.572,1.111c-0.505,0.611 -0.883,1.611 -1.25,3.222l-1.378,0c0.078,-2.722 0.261,-5.056 0.278,-6.722l1,0c0.517,0.722 0.867,0.777 1.917,0.777l13.444,-0.222c1.034,-0.055 1.211,-0.222 1.717,-0.833l0.989,-0.056c0.078,1.556 0.311,4.834 0.555,6.667" style="fill:#fff;fill-rule:nonzero;"/><path d="M197.204,302.802l-0.017,-1.444c2.5,-0.278 2.8,-0.556 2.744,-3.667l-0.083,-5.055l-8.828,0.166l0.089,5.056c0.05,3.111 0.317,3.444 2.661,3.555l0.023,1.445l-10.473,0.166l-0.022,-1.444c2.761,-0.222 3.022,-0.5 2.967,-3.611l-0.184,-10.889c-0.055,-3.167 -0.322,-3.389 -3.177,-3.556l-0.017,-1.388l10.639,-0.223l0.017,1.389c-2.417,0.334 -2.673,0.5 -2.623,3.722l0.067,3.778l8.828,-0.166l-0.067,-3.778c-0.05,-3.167 -0.4,-3.389 -2.828,-3.611l-0.027,-1.389l10.55,-0.167l0.033,1.278c-2.683,0.389 -2.939,0.667 -2.883,3.778l0.183,10.889c0.055,3.166 0.317,3.388 3.005,3.555l0.023,1.389" style="fill:#fff;fill-rule:nonzero;"/><path d="M52.537,337.191c0.561,0.167 1.389,0.333 2.167,0.333c1.211,0 4.011,-0.666 3.944,-5.055c-0.067,-3.222 -2.161,-4.667 -4.411,-4.611c-1.728,0.055 -1.85,0.389 -1.833,1.944l0.133,7.389Zm3.05,-10.889c5.022,-0.111 8.161,1.778 8.244,6.056c0.073,4.111 -2.922,6.278 -7.022,6.944c-0.561,0.111 -1.161,0.111 -1.778,0.056l-2.472,-0.611l0.061,3.722c0.056,2.889 0.356,3.111 3.395,3.278l0.016,1.444l-10.983,0.167l-0.022,-1.389c2.633,-0.333 2.933,-0.5 2.883,-3.389l-0.189,-11.167c-0.055,-3.166 -0.366,-3.333 -2.833,-3.5l-0.022,-1.444" style="fill:#fff;fill-rule:nonzero;"/><path d="M80.243,336.747c1.255,0 2.288,-0.167 3.133,-0.778c1.033,-0.722 1.533,-2.111 1.5,-3.611c-0.05,-3.278 -2.106,-4.5 -4.317,-4.5c-1.372,0.055 -1.716,0.444 -1.705,1.666l0.127,7.278l1.262,-0.055Zm13.111,10.555l-1.378,0c-4.422,0.056 -5.772,-0.944 -7.017,-2.778c-1.066,-1.444 -2.083,-3.222 -2.944,-4.777c-0.622,-1.111 -1,-1.445 -2.35,-1.445l-0.656,0.056l0.067,4c0.055,3 0.322,3.222 3.05,3.444l0.028,1.389l-10.723,0.222l-0.033,-1.444c2.722,-0.222 3.017,-0.445 2.967,-3.445l-0.195,-11.277c-0.05,-3.056 -0.3,-3.223 -2.95,-3.389l-0.027,-1.389l10.944,-0.167c2.467,-0.055 4.117,0.167 5.461,0.945c1.445,0.833 2.383,2.333 2.417,4.277c0.055,2.778 -1.911,4.556 -4.239,5.445c0.583,1.055 2.05,3.278 3.122,4.778c1.106,1.611 1.728,2.444 2.461,3.166c0.717,0.667 1.45,1 2.156,1.223" style="fill:#fff;fill-rule:nonzero;"/><path d="M105.043,336.358c0.1,5.889 2.811,9.889 6.45,9.833c2.905,-0.055 5.366,-2.444 5.255,-8.889c-0.094,-5.111 -2.339,-10.055 -6.311,-9.944c-2.867,0 -5.483,3.166 -5.394,9m17.144,-0.111c0.117,7.5 -5.267,11.444 -11.056,11.555c-7.411,0.111 -11.433,-5.166 -11.527,-10.444c-0.117,-7.778 5.922,-11.556 11.144,-11.611c6.878,-0.167 11.328,4.555 11.439,10.5" style="fill:#fff;fill-rule:nonzero;"/><path d="M157.398,327.469c-3.105,0.278 -3.272,0.555 -3.178,3.555l0.45,11.223c0.089,2.944 0.228,3.166 3.128,3.277l0.022,1.445l-10.772,0.167l-0.022,-1.389c2.817,-0.223 2.978,-0.445 2.967,-3.445l-0.095,-12.722l-0.111,0l-6.989,17.278l-1.25,0.055l-6.639,-16.777l-0.133,0l-0.256,8.111c-0.116,3.333 -0.144,4.555 -0.033,5.611c0.111,1.5 0.806,1.944 3.022,2.055l0.028,1.389l-8.133,0.167l-0.028,-1.445c1.855,-0.111 2.539,-0.666 2.783,-2.166c0.184,-1.111 0.345,-2.667 0.506,-5.445l0.411,-6.444c0.233,-3.556 -0.1,-3.833 -2.878,-4l-0.028,-1.445l7.695,-0.111l5.85,13l5.839,-13.222l7.816,-0.111" style="fill:#fff;fill-rule:nonzero;"/><path d="M170.204,336.358c0.111,5.889 2.811,9.889 6.444,9.833c2.9,-0.055 5.367,-2.444 5.256,-8.889c-0.078,-5.111 -2.328,-10.055 -6.306,-9.944c-2.855,0 -5.483,3.166 -5.394,9m17.139,-0.111c0.116,7.5 -5.256,11.444 -11.056,11.555c-7.394,0.111 -11.428,-5.166 -11.522,-10.444c-0.128,-7.778 5.916,-11.556 11.15,-11.611c6.878,-0.167 11.333,4.555 11.428,10.5" style="fill:#fff;fill-rule:nonzero;"/><path d="M213.043,332.08c-0.512,-1.944 -0.862,-2.778 -1.395,-3.389c-0.572,-0.667 -1.528,-0.778 -3.133,-0.778l-1.728,0.056l0.244,14.167c0.05,3.222 0.356,3.388 3.428,3.555l0.028,1.389l-11.422,0.222l-0.028,-1.444c2.939,-0.222 3.206,-0.445 3.139,-3.611l-0.245,-14.223l-1.155,0c-2.289,0.056 -3.028,0.389 -3.578,1.112c-0.5,0.611 -0.883,1.611 -1.239,3.222l-1.383,0c0.072,-2.667 0.255,-5.056 0.272,-6.667l0.995,-0.055c0.527,0.722 0.877,0.777 1.916,0.777l13.456,-0.222c1.028,0 1.211,-0.222 1.711,-0.833l1,0c0.061,1.555 0.294,4.778 0.539,6.611" style="fill:#fff;fill-rule:nonzero;"/><path d="M221.715,347.302l-0.022,-1.389c2.683,-0.277 2.977,-0.5 2.922,-3.5l-0.184,-11.166c-0.05,-3.111 -0.355,-3.223 -3.038,-3.445l-0.023,-1.389l10.817,-0.222l0.017,1.445c-2.728,0.222 -2.978,0.388 -2.928,3.5l0.194,11.166c0.045,3.056 0.306,3.278 3.034,3.389l0.027,1.445" style="fill:#fff;fill-rule:nonzero;"/><path d="M245.137,336.358c0.1,5.889 2.8,9.889 6.439,9.833c2.894,-0.055 5.367,-2.444 5.25,-8.889c-0.078,-5.111 -2.322,-10.055 -6.306,-9.944c-2.85,0 -5.477,3.166 -5.383,9m17.128,-0.111c0.122,7.5 -5.256,11.444 -11.05,11.555c-7.395,0.111 -11.434,-5.166 -11.517,-10.444c-0.133,-7.778 5.911,-11.556 11.139,-11.611c6.878,-0.167 11.328,4.555 11.428,10.5" style="fill:#fff;fill-rule:nonzero;"/><path d="M292.698,327.469c-1.855,0.167 -2.817,0.555 -2.917,1.889c-0.105,1.333 -0.211,2.722 -0.172,5.778l0.211,12.166l-2.166,0l-13.278,-15.611l-0.039,0.056l0.1,6.555c0.056,3.111 0.211,4.556 0.356,5.667c0.194,1.389 1.122,1.778 3.455,1.889l0.017,1.389l-8.645,0.166l-0.027,-1.389c1.861,-0.222 2.722,-0.611 2.866,-2.055c0.111,-1.111 0.267,-2.5 0.211,-5.611l-0.111,-6c-0.061,-3.667 -0.844,-4.278 -3.75,-4.445l-0.016,-1.389l7.088,-0.111l11.912,13.389l0.083,0l-0.067,-4.666c-0.066,-3 -0.216,-4.445 -0.366,-5.556c-0.189,-1.5 -0.984,-1.889 -3.45,-1.944l-0.017,-1.389l8.689,-0.167" style="fill:#fff;fill-rule:nonzero;"/><path d="M52.537,381.58c0.561,0.222 1.389,0.333 2.167,0.333c1.211,0 4.011,-0.666 3.944,-5c-0.067,-3.277 -2.161,-4.722 -4.411,-4.666c-1.728,0.055 -1.85,0.389 -1.833,1.944l0.133,7.389Zm3.05,-10.889c5.022,-0.111 8.161,1.778 8.244,6.056c0.073,4.111 -2.922,6.333 -7.022,6.944c-0.561,0.111 -1.161,0.111 -1.778,0.056l-2.472,-0.556l0.061,3.667c0.056,2.944 0.356,3.111 3.395,3.278l0.016,1.444l-10.983,0.167l-0.022,-1.389c2.633,-0.334 2.933,-0.5 2.883,-3.389l-0.189,-11.111c-0.055,-3.222 -0.366,-3.389 -2.833,-3.556l-0.022,-1.444" style="fill:#fff;fill-rule:nonzero;"/><path d="M80.243,381.191c1.255,-0.055 2.288,-0.222 3.133,-0.833c1.033,-0.722 1.533,-2.056 1.5,-3.611c-0.05,-3.278 -2.106,-4.5 -4.317,-4.445c-1.372,0 -1.716,0.389 -1.705,1.611l0.127,7.278l1.262,0Zm13.111,10.5l-1.378,0c-4.422,0.111 -5.772,-0.944 -7.017,-2.778c-1.066,-1.444 -2.083,-3.222 -2.944,-4.777c-0.622,-1.112 -1,-1.445 -2.35,-1.389l-0.656,0l0.067,4.055c0.055,2.945 0.322,3.222 3.05,3.389l0.028,1.389l-10.723,0.222l-0.033,-1.444c2.722,-0.222 3.017,-0.445 2.967,-3.445l-0.195,-11.277c-0.05,-3 -0.3,-3.167 -2.95,-3.389l-0.027,-1.334l10.944,-0.222c2.467,-0.055 4.117,0.222 5.461,1c1.445,0.778 2.383,2.278 2.417,4.222c0.055,2.834 -1.911,4.556 -4.239,5.445c0.583,1.055 2.05,3.333 3.122,4.778c1.106,1.611 1.728,2.444 2.461,3.166c0.717,0.667 1.45,1 2.156,1.222" style="fill:#fff;fill-rule:nonzero;"/><path d="M105.043,380.747c0.1,5.889 2.811,9.889 6.45,9.833c2.905,-0.056 5.366,-2.444 5.255,-8.889c-0.094,-5.111 -2.339,-10.055 -6.311,-9.944c-2.867,0.055 -5.483,3.166 -5.394,9m17.144,-0.056c0.117,7.445 -5.267,11.389 -11.056,11.5c-7.411,0.111 -11.433,-5.167 -11.527,-10.389c-0.117,-7.833 5.922,-11.611 11.144,-11.666c6.878,-0.112 11.328,4.555 11.439,10.555" style="fill:#fff;fill-rule:nonzero;"/><path d="M151.748,382.524c-1.761,0.334 -1.944,0.389 -1.9,2.667l0.045,2.611c0.011,1.167 0.116,2.167 0.305,2.889c-2.161,0.556 -4.994,1.389 -7.889,1.445c-7.655,0.166 -12.528,-4.056 -12.65,-10.5c-0.122,-7.612 5.917,-11.445 12.967,-11.556c2.861,-0.056 5.372,0.556 6.5,0.889c0.161,1.111 0.317,2.944 0.628,5.944l-1.384,0.111c-1.111,-4.111 -3.689,-5.388 -6.416,-5.333c-3.578,0.056 -6.956,3 -6.856,9.167c0.089,5.055 2.772,9.722 7.617,9.666c1.255,-0.055 2.366,-0.5 2.344,-2.222l-0.05,-3c-0.039,-2.222 -0.211,-2.389 -3.594,-2.611l-0.028,-1.389l10.328,-0.166" style="fill:#fff;fill-rule:nonzero;"/><path d="M167.759,381.191c1.25,-0.055 2.284,-0.222 3.145,-0.833c1.033,-0.722 1.516,-2.056 1.5,-3.611c-0.061,-3.278 -2.123,-4.5 -4.317,-4.445c-1.389,0 -1.733,0.389 -1.706,1.611l0.117,7.278l1.261,0Zm13.106,10.5l-1.378,0c-4.417,0.111 -5.778,-0.944 -7.006,-2.778c-1.072,-1.444 -2.083,-3.222 -2.944,-4.777c-0.628,-1.112 -1.022,-1.445 -2.361,-1.389l-0.656,0l0.078,4.055c0.05,2.945 0.3,3.222 3.039,3.389l0.028,1.389l-10.734,0.222l-0.027,-1.444c2.722,-0.222 3.033,-0.445 2.972,-3.445l-0.189,-11.277c-0.061,-3 -0.306,-3.167 -2.956,-3.389l-0.022,-1.334l10.956,-0.222c2.45,-0.055 4.105,0.222 5.455,1c1.439,0.778 2.373,2.278 2.411,4.222c0.05,2.834 -1.905,4.556 -4.238,5.445c0.588,1.055 2.055,3.333 3.127,4.778c1.089,1.611 1.717,2.444 2.461,3.166c0.712,0.667 1.45,1 2.145,1.222" style="fill:#fff;fill-rule:nonzero;"/><path d="M196.676,375.802l-0.128,0l-2.6,7.5l5.528,-0.111l-2.8,-7.389Zm3.039,15.778l-0.022,-1.389l0.772,-0.111c1.161,-0.278 1.461,-0.611 0.866,-2.167l-1.083,-2.722l-6.955,0.111c-0.295,0.778 -0.573,1.722 -0.9,2.834c-0.417,1.5 0.066,1.777 1.238,2l1.034,0.111l0.028,1.444l-8.134,0.111l-0.022,-1.389c1.983,-0.333 2.839,-0.666 3.972,-3.555l6.467,-16.334l2.072,-0.388l7.295,17.055c0.9,2.278 1.772,2.667 3.777,2.778l0.017,1.444" style="fill:#fff;fill-rule:nonzero;"/><path d="M244.443,371.858c-3.117,0.278 -3.278,0.555 -3.189,3.555l0.461,11.278c0.083,2.889 0.216,3.111 3.122,3.222l0.017,1.445l-10.773,0.222l-0.016,-1.444c2.816,-0.223 2.972,-0.445 2.972,-3.445l-0.089,-12.722l-0.122,0l-6.983,17.278l-1.256,0.055l-6.639,-16.778l-0.128,0l-0.261,8.112c-0.111,3.388 -0.144,4.555 -0.033,5.611c0.117,1.5 0.811,1.944 3.022,2.055l0.028,1.389l-8.139,0.167l-0.022,-1.445c1.866,-0.111 2.539,-0.666 2.778,-2.166c0.194,-1.111 0.344,-2.667 0.516,-5.389l0.411,-6.445c0.239,-3.611 -0.116,-3.889 -2.877,-4.055l-0.039,-1.445l7.705,-0.111l5.85,13.056l5.828,-13.278l7.828,-0.111" style="fill:#fff;fill-rule:nonzero;"/><path d="M279.593,371.858c-3.1,0.278 -3.278,0.555 -3.184,3.555l0.45,11.278c0.089,2.889 0.228,3.111 3.117,3.222l0.033,1.445l-10.766,0.222l-0.028,-1.444c2.805,-0.223 2.978,-0.445 2.978,-3.445l-0.095,-12.722l-0.128,0l-6.977,17.278l-1.256,0.055l-6.644,-16.778l-0.117,0l-0.261,8.112c-0.117,3.388 -0.145,4.555 -0.034,5.611c0.1,1.5 0.812,1.944 3.006,2.055l0.028,1.389l-8.122,0.167l-0.028,-1.445c1.861,-0.111 2.555,-0.666 2.772,-2.166c0.2,-1.111 0.361,-2.667 0.528,-5.389l0.4,-6.445c0.244,-3.611 -0.106,-3.889 -2.884,-4.055l-0.016,-1.445l7.689,-0.111l5.85,13.056l5.839,-13.278l7.827,-0.111" style="fill:#fff;fill-rule:nonzero;"/><path d="M305.77,385.747c-0.183,1.5 -0.833,4.833 -1.061,5.722l-17.789,0.333l-0.016,-1.444c2.922,-0.278 3.183,-0.5 3.139,-3.667l-0.2,-10.944c-0.045,-3.167 -0.306,-3.334 -2.989,-3.445l-0.028,-1.444l16.7,-0.278c0.061,0.889 0.217,3.111 0.433,5.222l-1.389,0.111c-0.45,-1.333 -0.761,-2 -1.255,-2.611c-0.572,-0.666 -1.395,-1 -3.556,-0.944l-1.861,0.055c-1.217,0 -1.267,0.111 -1.233,1.278l0.105,6.111l2.723,0c2.461,-0.055 2.755,-0.333 3.072,-2.5l1.428,0l0.122,6.778l-1.428,0.056c-0.389,-2.112 -0.7,-2.5 -3.161,-2.445l-2.733,0.056l0.083,4.722c0.033,1.889 0.267,2.722 0.789,3c0.566,0.389 1.528,0.5 3.25,0.444c1.9,0 2.989,-0.333 3.744,-1.222c0.6,-0.611 1.145,-1.667 1.722,-3.055" style="fill:#fff;fill-rule:nonzero;"/></g></svg>