<?xml version="1.0" encoding="UTF-8" standalone="no"?><!DOCTYPE svg PUBLIC "-//W3C//DTD SVG 1.1//EN" "http://www.w3.org/Graphics/SVG/1.1/DTD/svg11.dtd"><svg width="100%" height="100%" viewBox="0 0 917 2138" version="1.1" xmlns="http://www.w3.org/2000/svg" xmlns:xlink="http://www.w3.org/1999/xlink" xml:space="preserve" style="fill-rule:evenodd;clip-rule:evenodd;stroke-linejoin:round;stroke-miterlimit:1.41421;"><rect id="Artboard1" x="0" y="0" width="916.888" height="2137.53" style="fill:none;"/><g id="Layer-1"><path d="M235.194,926.531c0,49.189 -39.867,89.05 -89.05,89.05c-49.183,0 -89.056,-39.861 -89.056,-89.05c0,-49.189 39.873,-89.05 89.056,-89.05c49.183,0 89.05,39.861 89.05,89.05" style="fill:#1d1d1b;fill-rule:nonzero;"/><path d="M829.796,959.344c-6.544,-1 -8.061,-1.923 -8.061,-5.023c0,-3.894 3.039,-4.95 7.139,-4.95c4.222,0 11.544,1.056 11.544,1.056l0.134,-4.289c0,0 -7,-1.261 -11.95,-1.261c-6.011,0 -11.884,2.378 -11.884,9.639c0,6.478 3.561,8.05 11.623,9.311c6.6,1.05 8.311,1.844 8.311,5.272c0,4.489 -2.895,5.683 -8.311,5.683c-3.373,0 -10.895,-1.127 -10.895,-1.127l-0.261,4.3c0,0 7.394,1.244 11.622,1.244c7.978,0 12.872,-2.572 12.872,-10.294c0,-6.395 -3.172,-8.184 -11.883,-9.561m-27.4,13c0,0 -4.683,2.438 -9.039,2.438c-6.205,0 -6.994,-2.972 -6.994,-12.077l0,-17.161l-4.884,0l0,17.216c0,12.217 1.917,16.439 11.156,16.439c4.622,0 9.761,-2.767 9.761,-2.767l0,2.106l4.883,0l0,-32.994l-4.883,0l0,26.8Zm-27.839,-26.8l-5.555,0l-9.834,12.994l-5.089,0.272l0,-27.666l-4.95,0l0,47.394l4.95,0l0,-14.844l5.156,-0.262l9.894,15.106l5.612,0l-11.223,-17.817l11.039,-15.177Zm-46.733,13.8c-6.545,-1 -8.067,-1.923 -8.067,-5.023c0,-3.894 3.039,-4.95 7.134,-4.95c4.227,0 11.555,1.056 11.555,1.056l0.128,-4.289c0,0 -7,-1.261 -11.945,-1.261c-6.011,0 -11.883,2.378 -11.883,9.639c0,6.478 3.561,8.05 11.622,9.311c6.595,1.05 8.311,1.844 8.311,5.272c0,4.489 -2.9,5.683 -8.311,5.683c-3.366,0 -10.894,-1.127 -10.894,-1.127l-0.261,4.3c0,0 7.389,1.244 11.611,1.244c7.994,0 12.867,-2.572 12.867,-10.294c0,-6.395 -3.167,-8.184 -11.867,-9.561m-41.856,0.783c0,-7.728 3.173,-10.822 8.845,-10.822c5.739,0 8.311,2.9 8.311,10.822l-17.156,0Zm8.845,-15.25c-8.389,0 -13.867,4.822 -13.867,17.361c0,11.222 3.245,16.961 13.139,16.961c5.35,0 12.806,-1.05 12.806,-1.05l-0.128,-4.028c0,0 -7.134,0.589 -12.078,0.589c-6.533,0 -8.65,-3.628 -8.717,-10.55l21.856,0l0.261,-3.839c0,-10.816 -4.561,-15.444 -13.272,-15.444m-18.806,0.667l-5.555,0l-9.828,12.994l-5.078,0.272l0,-27.666l-4.95,0l0,47.394l4.95,0l0,-14.844l5.145,-0.262l9.905,15.106l5.6,0l-11.222,-17.817l11.033,-15.177Zm-46.733,13.8c-6.539,-1 -8.05,-1.923 -8.05,-5.023c0,-3.894 3.028,-4.95 7.117,-4.95c4.233,0 11.555,1.056 11.555,1.056l0.133,-4.289c0,0 -7,-1.261 -11.95,-1.261c-6.011,0 -11.877,2.378 -11.877,9.639c0,6.478 3.566,8.05 11.622,9.311c6.594,1.05 8.311,1.844 8.311,5.272c0,4.489 -2.9,5.683 -8.311,5.683c-3.367,0 -10.895,-1.127 -10.895,-1.127l-0.261,4.3c0,0 7.389,1.244 11.611,1.244c7.995,0 12.878,-2.572 12.878,-10.294c0,-6.395 -3.166,-8.184 -11.883,-9.561m-27.395,13c0,0 -4.677,2.438 -9.038,2.438c-6.212,0 -6.989,-2.972 -6.989,-12.077l0,-17.161l-4.895,0l0,17.216c0,12.217 1.922,16.439 11.156,16.439c4.622,0 9.766,-2.767 9.766,-2.767l0,2.106l4.884,0l0,-32.994l-4.884,0l0,26.8Zm-36.894,-0.134c0,0 -4.95,2.445 -9.378,2.445c-3.883,-0.078 -7.516,-1.789 -7.516,-12.35c0,-8.645 2.183,-12.934 9.105,-12.934c2.645,0 6.8,0.589 7.789,0.728l0,22.111Zm0,-26.472c-0.989,-0.194 -5.211,-0.861 -8.05,-0.861c-10.106,0 -13.794,5.744 -13.794,17.3c0,14.255 5.416,17.022 11.805,17.022c4.961,0 10.039,-2.833 10.039,-2.833l0,2.172l4.95,0l0,-46.2l-4.95,0l0,13.4Zm-35.372,32.8l4.883,0l0,-32.994l-4.883,0l0,32.994Zm0,-40.45l4.883,0l0,-5.75l-4.883,0l0,5.75Zm-18.156,7.456l-4.944,0l0,32.994l4.944,0l0,-23.956c0,0 5.272,-3.366 11.484,-4.55l0,-5.155c-6.406,1.194 -11.484,5.017 -11.484,5.017l0,-4.35Zm-21.45,27.383c0,0 -5.739,1.989 -10.766,1.989c-2.962,0 -4.684,-2.117 -4.684,-5.939c0,-3.372 1.656,-5.422 5.672,-5.817l9.778,-0.789l0,10.556Zm4.884,-1.05l0,-16.233c0,-7.467 -3.428,-10.767 -10.428,-10.767c-5.078,0 -13,1.328 -13,1.328l0.194,4.283c0,0 7.789,-0.856 12.611,-0.856c3.623,0 5.739,1.845 5.739,6.012l0,2.7l-10.428,1c-6.805,0.583 -10.038,3.416 -10.038,9.755c0,6.478 3.233,10.1 8.983,10.1c6.261,0 12.211,-2.505 12.211,-2.505c1.711,1.777 3.828,2.505 7.789,2.505l0.194,-4.283c-2.116,-0.261 -3.7,-0.922 -3.827,-3.039m-45.012,-27c-4.622,0 -10.166,2.25 -10.166,2.25l0,-16.767l-4.945,0l0,48.178l4.945,0l0,-27.178c0,0 5.011,-1.922 9.428,-1.922c5.95,0 6.933,3.233 6.933,11.944l0,17.156l4.961,0l0,-17.222c0,-11.945 -2.05,-16.439 -11.156,-16.439m-46.005,15.25c0,-7.728 3.155,-10.822 8.844,-10.822c5.739,0 8.311,2.9 8.311,10.822l-17.155,0Zm8.844,-15.25c-8.389,0 -13.866,4.822 -13.866,17.361c0,11.222 3.233,16.961 13.139,16.961c5.35,0 12.805,-1.05 12.805,-1.05l-0.133,-4.028c0,0 -7.128,0.589 -12.078,0.589c-6.528,0 -8.644,-3.628 -8.711,-10.55l21.844,0l0.256,-3.839c0,-10.816 -4.545,-15.444 -13.256,-15.444m-32.739,14.467c-6.544,-1 -8.05,-1.923 -8.05,-5.023c0,-3.894 3.028,-4.95 7.117,-4.95c4.233,0 11.556,1.056 11.556,1.056l0.133,-4.289c0,0 -7,-1.261 -11.95,-1.261c-6,0 -11.878,2.378 -11.878,9.639c0,6.478 3.567,8.05 11.617,9.311c6.6,1.05 8.317,1.844 8.317,5.272c0,4.489 -2.9,5.683 -8.317,5.683c-3.361,0 -10.883,-1.127 -10.883,-1.127l-0.267,4.3c0,0 7.389,1.244 11.617,1.244c7.988,0 12.872,-2.572 12.872,-10.294c0,-6.395 -3.167,-8.184 -11.884,-9.561m-24.483,15.233c-4.355,0 -4.75,-1.972 -4.75,-9.167l0,-15.378l10.422,0l0,-4.488l-10.422,0l0,-10.106l-4.95,0l0,10.106l-4.689,0l0,4.488l4.689,0l0,17.156c0,9.506 2.372,12.078 9.172,12.078c2.306,0 6.667,-0.728 6.667,-0.728l-0.256,-4.283c0,0 -4.027,0.322 -5.883,0.322m-26.861,-2.233c0,0 -4.683,2.438 -9.044,2.438c-6.195,0 -6.989,-2.972 -6.989,-12.077l0,-17.161l-4.895,0l0,17.216c0,12.217 1.922,16.439 11.167,16.439c4.611,0 9.761,-2.767 9.761,-2.767l0,2.106l4.883,0l0,-32.994l-4.883,0l0,26.8Zm-29.439,-39.734l-5.872,0l-11.678,20.917l-7.467,0.261l0,-21.178l-5.077,0l0,45.928l5.077,0l0,-19.933l7.589,-0.261l12.15,20.194l6,0l-13.789,-22.961l13.067,-22.967Zm222.756,-26.283c0,0 -4.689,2.45 -9.039,2.45c-6.206,0 -7,-2.972 -7,-12.072l0,-17.167l-4.884,0l0,17.228c0,12.211 1.912,16.439 11.156,16.439c4.622,0 9.767,-2.778 9.767,-2.778l0,2.117l4.883,0l0,-33.006l-4.883,0l0,26.789Zm-31.75,-41.178l-4.884,0l0,47.395l4.884,0l0,-47.395Zm-21.189,41.783c0,0 -5.745,1.978 -10.756,1.978c-2.972,0 -4.689,-2.116 -4.689,-5.944c0,-3.367 1.65,-5.406 5.678,-5.806l9.767,-0.794l0,10.566Zm-10.428,-13.594c-6.794,0.589 -10.028,3.428 -10.028,9.767c0,6.466 3.234,10.1 8.972,10.1c6.273,0 12.206,-2.506 12.206,-2.506c1.728,1.778 3.833,2.506 7.794,2.506l0.195,-4.295c-2.106,-0.261 -3.689,-0.922 -3.822,-3.039l0,-16.233c0,-7.467 -3.439,-10.761 -10.434,-10.761c-5.083,0 -13,1.322 -13,1.322l0.206,4.283c0,0 7.789,-0.855 12.594,-0.855c3.639,0 5.745,1.855 5.745,6.011l0,2.7l-10.428,1Zm-16.961,9.572c0,-6.405 -3.167,-8.194 -11.883,-9.572c-6.534,-1 -8.05,-1.922 -8.05,-5.022c0,-3.895 3.038,-4.95 7.127,-4.95c4.234,0 11.556,1.055 11.556,1.055l0.133,-4.289c0,0 -7,-1.255 -11.95,-1.255c-6.011,0 -11.878,2.372 -11.878,9.633c0,6.467 3.567,8.05 11.612,9.311c6.605,1.061 8.322,1.845 8.322,5.284c0,4.483 -2.9,5.672 -8.322,5.672c-3.367,0 -10.884,-1.128 -10.884,-1.128l-0.272,4.3c0,0 7.4,1.256 11.617,1.256c7.989,0 12.872,-2.584 12.872,-10.295m-46.528,5.867c-2.844,0 -6.272,-0.528 -7.128,-0.722l0,-22.05c0,0 4.817,-2.573 9.167,-2.573c4.767,0 7.594,3.167 7.594,12.078c0,9.634 -2.372,13.267 -9.633,13.267m14.65,-13.139c0,-11.817 -3.628,-16.761 -11.939,-16.761c-4.883,0 -9.839,2.972 -9.839,2.972l0,-2.311l-4.95,0l0,47.656l4.95,0l0,-14.717c0.923,0.2 4.284,0.728 7.389,0.728c10.234,0 14.389,-4.623 14.389,-17.567m-43.233,11.294c0,0 -5.734,1.978 -10.75,1.978c-2.967,0 -4.689,-2.116 -4.689,-5.944c0,-3.367 1.655,-5.406 5.678,-5.806l9.761,-0.794l0,10.566Zm-10.422,-13.594c-6.795,0.589 -10.034,3.428 -10.034,9.767c0,6.466 3.239,10.1 8.984,10.1c6.272,0 12.2,-2.506 12.2,-2.506c1.716,1.778 3.833,2.506 7.783,2.506l0.205,-4.295c-2.105,-0.261 -3.688,-0.922 -3.822,-3.039l0,-16.233c0,-7.467 -3.439,-10.761 -10.433,-10.761c-5.078,0 -13,1.322 -13,1.322l0.194,4.283c0,0 7.795,-0.855 12.611,-0.855c3.628,0 5.734,1.855 5.734,6.011l0,2.7l-10.422,1Zm-24.023,13.594c0,0 -5.744,1.978 -10.755,1.978c-2.978,0 -4.689,-2.116 -4.689,-5.944c0,-3.367 1.655,-5.406 5.672,-5.806l9.772,-0.794l0,10.566Zm4.884,-1.061l0,-16.233c0,-7.467 -3.434,-10.761 -10.434,-10.761c-5.077,0 -13,1.322 -13,1.322l0.2,4.283c0,0 7.789,-0.855 12.606,-0.855c3.633,0 5.744,1.855 5.744,6.011l0,2.7l-10.427,1c-6.8,0.589 -10.028,3.428 -10.028,9.767c0,6.466 3.228,10.1 8.966,10.1c6.273,0 12.217,-2.506 12.217,-2.506c1.717,1.778 3.828,2.506 7.783,2.506l0.2,-4.295c-2.111,-0.261 -3.694,-0.922 -3.827,-3.039m-39.539,-18.933l-23.234,0l0,-20.333l-5.077,0l0,45.939l5.077,0l0,-20.723l23.234,0l0,20.723l5.022,0l0,-45.939l-5.022,0l0,20.333Z" style="fill:#1d1d1b;fill-rule:nonzero;"/><path d="M160.986,881.967c0,7.4 -4.644,13.934 -14.928,20.923c2.395,1.627 4.934,3.155 7.528,4.633c7.789,-5.806 15.533,-14.067 15.533,-25.556c0,-12.738 -12.172,-22.244 -23.061,-22.244c-10.883,0 -23.055,9.506 -23.055,22.244c0,0.306 0.033,0.606 0.05,0.923c2.633,-0.628 5.339,-1.184 8.133,-1.595c0.45,-7.5 8.317,-13.433 14.872,-13.433c6.761,0 14.928,6.294 14.928,14.105" style="fill:#86bc25;fill-rule:nonzero;"/><path d="M160.91,881.208c-4.722,-0.683 -9.583,-1.022 -14.5,-1.022c-22.761,0 -48.117,7.805 -52.55,22.678c-1.683,5.677 -0.822,14.161 11.372,23.655c1.389,-1.072 2.872,-2.139 4.495,-3.189c0.811,-0.533 1.694,-1.083 2.622,-1.65c-5.489,-3.872 -12.545,-10.233 -10.683,-16.483c2.766,-9.295 22.838,-16.861 44.744,-16.861c4.389,0 8.717,0.294 12.933,0.866c1.078,-2.338 1.645,-4.727 1.645,-7.233c0,-0.261 -0.061,-0.511 -0.078,-0.761" style="fill:#f8af00;fill-rule:nonzero;"/><path d="M182.406,923.33c-4.95,-3.244 -10.717,-6.228 -16.828,-9.394c-13.156,-6.817 -27.845,-14.445 -32.728,-24.634c-2.817,0.389 -5.544,0.923 -8.161,1.562c5.255,13.75 22.094,22.516 37.139,30.305c5.928,3.061 11.528,5.972 16.122,8.978c5.633,3.667 14.756,10.883 12.667,17.911c-2.734,9.189 -22.567,16.678 -44.206,16.678c-4.611,0 -9.15,-0.322 -13.572,-0.967c-1.117,2.367 -1.683,4.789 -1.683,7.328c0,0.228 0.022,0.444 0.038,0.661c4.956,0.75 10.056,1.117 15.217,1.117c22.517,0 47.617,-7.728 52,-22.506c1.895,-6.333 0.639,-16.167 -16.005,-27.039" style="fill:#e5007c;fill-rule:nonzero;"/><path d="M124.658,962.186c-13.033,-3.189 -21.983,-8.927 -23.177,-15.05c-0.967,-4.977 3.538,-11.022 12.694,-16.994c4.594,-3.006 10.2,-5.911 16.128,-8.983c5.266,-2.734 10.678,-5.545 15.744,-8.617c-2.611,-1.595 -5.144,-3.25 -7.516,-5.022c-3.889,2.216 -7.973,4.339 -11.973,6.4c-6.122,3.172 -11.889,6.166 -16.839,9.411c-15.511,10.133 -17.383,19.389 -16.227,25.355c1.861,9.561 12.794,17.461 29.561,21.495c0.1,-2.734 0.628,-5.4 1.605,-7.995" style="fill:#a6d5f4;fill-rule:nonzero;"/><path d="M167.529,962.327c-5.205,-13.822 -22.111,-22.622 -37.2,-30.427c-3.544,-1.845 -6.927,-3.611 -10.094,-5.389c-2.339,1.311 -4.344,2.505 -6.061,3.633c-0.628,0.4 -1.222,0.806 -1.8,1.228c4.333,2.622 9.139,5.133 14.211,7.755c13.2,6.828 27.933,14.489 32.772,24.728c2.811,-0.378 5.545,-0.9 8.172,-1.528" style="fill:#b7b16c;fill-rule:nonzero;"/><path d="M160.937,971.865c-0.505,7.456 -8.316,13.345 -14.866,13.345c-6.75,0 -14.912,-6.289 -14.912,-14.117c0,-7.433 4.634,-13.95 14.945,-20.928c-2.167,-1.5 -4.628,-3.028 -7.506,-4.666c-7.733,5.738 -15.583,14.005 -15.583,25.594c0,12.739 12.178,22.256 23.056,22.256c10.888,0 23.061,-9.517 23.061,-22.256c0,-0.261 -0.028,-0.517 -0.039,-0.767c-2.622,0.617 -5.361,1.139 -8.156,1.539" style="fill:#86bc25;fill-rule:nonzero;"/><path d="M198.79,904.146c-1.9,-9.605 -12.894,-17.472 -29.7,-21.416c-0.083,2.744 -0.611,5.411 -1.583,8.005c13.077,3.122 22.077,8.834 23.294,14.984c0.989,5.055 -3.567,11.144 -12.833,17.211c-4.611,3.005 -10.2,5.9 -16.134,8.972c-5.272,2.733 -10.672,5.555 -15.733,8.628c2.617,1.594 5.128,3.266 7.483,5.022c3.912,-2.211 7.995,-4.339 11.989,-6.422c6.117,-3.156 11.889,-6.145 16.85,-9.389c15.684,-10.239 17.556,-19.561 16.367,-25.595" style="fill:#fff;fill-rule:nonzero;"/><rect x="208.551" y="1514.59" width="482.028" height="321.35" style="fill:#26358b;fill-rule:nonzero;"/><path d="M439.469,1585.73l10.156,-7.416l10.183,7.416l-3.883,-11.983l10.328,-7.411l-12.728,0l-3.9,-12.183l-3.894,12.183l-12.728,0l10.322,7.411l-3.856,11.983Z" style="fill:#ffd700;fill-rule:nonzero;"/><path d="M386.822,1599.89l10.161,-7.427l10.172,7.427l-3.867,-12.011l10.328,-7.422l-12.733,0l-3.9,-12.161l-3.906,12.183l-12.705,-0.022l10.311,7.422l-3.861,12.011Z" style="fill:#ffd700;fill-rule:nonzero;"/><path d="M358.474,1606.9l-3.894,12.162l-12.728,0l10.311,7.411l-3.855,12.005l10.166,-7.416l10.178,7.416l-3.872,-12.005l10.328,-7.411l-12.739,0l-3.895,-12.162Z" style="fill:#ffd700;fill-rule:nonzero;"/><path d="M344.347,1683.64l10.155,7.416l-3.855,-11.983l10.322,-7.439l-12.717,0l-3.905,-12.183l-3.9,12.205l-12.734,-0.022l10.328,7.439l-3.872,11.983l10.178,-7.416Z" style="fill:#ffd700;fill-rule:nonzero;"/><path d="M362.369,1724.36l-3.894,-12.161l-3.894,12.177l-12.728,-0.016l10.311,7.416l-3.856,12.017l10.167,-7.439l10.178,7.439l-3.872,-12.017l10.327,-7.416l-12.739,0Z" style="fill:#ffd700;fill-rule:nonzero;"/><path d="M400.96,1762.96l-3.894,-12.177l-3.9,12.177l-12.728,0l10.322,7.417l-3.867,11.978l10.184,-7.411l10.161,7.411l-3.861,-11.978l10.316,-7.417l-12.733,0Z" style="fill:#ffd700;fill-rule:nonzero;"/><path d="M453.537,1776.93l-3.911,-12.155l-3.878,12.155l-12.733,0l10.311,7.417l-3.844,12.006l10.161,-7.434l10.166,7.434l-3.883,-12.006l10.345,-7.417l-12.734,0Z" style="fill:#ffd700;fill-rule:nonzero;"/><path d="M506.103,1762.96l-3.9,-12.177l-3.894,12.177l-12.717,0l10.317,7.417l-3.861,11.978l10.155,-7.411l10.178,7.411l-3.872,-11.978l10.328,-7.417l-12.734,0Z" style="fill:#ffd700;fill-rule:nonzero;"/><path d="M544.716,1724.36l-3.912,-12.161l-3.916,12.177l-12.706,-0.016l10.317,7.416l-3.861,12.017l10.166,-7.439l10.173,7.439l-3.878,-12.017l10.333,-7.416l-12.716,0Z" style="fill:#ffd700;fill-rule:nonzero;"/><path d="M571.408,1671.49l-12.727,0l-3.912,-12.15l-3.883,12.15l-12.733,0l10.328,7.428l-3.867,11.983l10.155,-7.417l10.184,7.417l-3.867,-11.983l10.322,-7.428Z" style="fill:#ffd700;fill-rule:nonzero;"/><path d="M530.637,1638.34l10.166,-7.433l10.173,7.433l-3.878,-12.011l10.333,-7.4l-12.717,0l-3.911,-12.167l-3.916,12.167l-12.711,0l10.322,7.4l-3.861,12.011Z" style="fill:#ffd700;fill-rule:nonzero;"/><path d="M502.36,1568.3l-3.889,12.189l-12.739,-0.034l10.317,7.434l-3.867,12.011l10.189,-7.439l10.156,7.439l-3.85,-12.011l10.327,-7.434l-12.75,0l-3.894,-12.155Z" style="fill:#ffd700;fill-rule:nonzero;"/><path d="M328.212,185.271c-6.1,0.528 -6.706,0.906 -6.706,7.234l0,30.127c0,6.334 0.606,6.706 6.706,7.234l0,2.183l-20.717,0l0,-2.183c6.328,-0.528 6.939,-0.9 6.939,-7.234l0,-14.838l-24.711,0l0,14.838c0,6.334 0.605,6.706 6.633,7.234l0,2.183l-20.272,0l0,-2.183c5.955,-0.528 6.561,-0.9 6.561,-7.234l0,-30.127c0,-6.328 -0.606,-6.706 -6.789,-7.234l0,-2.183l20.117,0l0,2.183c-5.645,0.528 -6.25,0.906 -6.25,7.234l0,11.977l24.711,0l0,-11.977c0,-6.256 -0.611,-6.706 -6.411,-7.234l0,-2.183l20.189,0l0,2.183Z" style="fill:#010101;fill-rule:nonzero;"/><path d="M352.289,213.971c-1.577,0.828 -4.666,2.261 -6.322,3.011c-2.794,1.362 -4.372,2.717 -4.372,5.5c0,3.917 2.939,5.728 5.2,5.728c1.806,0 4.144,-1.133 5.494,-2.411l0,-11.828Zm5.728,18.984c-1.272,0 -2.855,-0.678 -3.689,-1.506c-0.983,-0.978 -1.505,-2.033 -1.811,-3.239c-3.011,2.034 -6.622,4.745 -8.733,4.745c-5.5,0 -9.267,-4.595 -9.267,-9.261c0,-3.767 1.961,-6.028 6.028,-7.389c4.517,-1.578 10.094,-3.606 11.744,-4.973l0,-1.505c0,-5.272 -2.411,-8.283 -6.022,-8.283c-1.35,0 -2.483,0.522 -3.244,1.433c-0.9,1.05 -1.578,2.711 -2.184,5.044c-0.377,1.356 -1.2,1.884 -2.4,1.884c-1.438,0 -3.544,-1.506 -3.544,-3.317c0,-1.2 0.978,-2.033 2.478,-3.161c2.189,-1.583 7.233,-4.445 11.533,-5.272c2.333,0 4.667,0.672 6.317,2.033c2.794,2.261 3.544,5.344 3.544,9.411l0,13.717c0,3.389 1.284,4.439 2.561,4.439c0.911,0 1.956,-0.373 2.717,-0.75l0.756,2.033l-6.784,3.917Z" style="fill:#010101;fill-rule:nonzero;"/><path d="M386.474,213.971c-1.577,0.828 -4.666,2.261 -6.327,3.011c-2.795,1.362 -4.373,2.717 -4.373,5.5c0,3.917 2.945,5.728 5.206,5.728c1.811,0 4.144,-1.133 5.494,-2.411l0,-11.828Zm5.728,18.984c-1.278,0 -2.861,-0.678 -3.689,-1.506c-0.983,-0.978 -1.511,-2.033 -1.811,-3.239c-3.016,2.034 -6.628,4.745 -8.739,4.745c-5.5,0 -9.266,-4.595 -9.266,-9.261c0,-3.767 1.961,-6.028 6.033,-7.389c4.517,-1.578 10.089,-3.606 11.744,-4.973l0,-1.505c0,-5.272 -2.416,-8.283 -6.027,-8.283c-1.35,0 -2.484,0.522 -3.239,1.433c-0.895,1.05 -1.578,2.711 -2.189,5.044c-0.372,1.356 -1.2,1.884 -2.4,1.884c-1.433,0 -3.545,-1.506 -3.545,-3.317c0,-1.2 0.984,-2.033 2.484,-3.161c2.194,-1.583 7.233,-4.445 11.528,-5.272c2.333,0 4.672,0.672 6.327,2.033c2.789,2.261 3.539,5.344 3.539,9.411l0,13.717c0,3.389 1.278,4.439 2.561,4.439c0.906,0 1.956,-0.373 2.711,-0.75l0.756,2.033l-6.778,3.917Z" style="fill:#010101;fill-rule:nonzero;"/><path d="M413.428,226.325c1.583,1.661 4.444,2.939 6.85,2.939c5.961,0 9.939,-5.35 9.939,-13.783c0,-8.289 -4.656,-12.578 -9.778,-12.578c-2.267,0 -5.128,1.506 -7.011,2.933l0,20.489Zm6.628,-26.966c1.355,-0.828 2.788,-1.206 3.772,-1.206c8.439,0 13.405,6.928 13.405,14.311c0,11.3 -8.966,18.606 -18.755,20.495c-2.117,-0.078 -4.067,-0.756 -5.05,-1.284l0,9.867c0,5.422 0.533,5.878 6.328,6.328l0,2.111l-18.378,0l0,-2.111c4.816,-0.45 5.422,-0.906 5.422,-5.723l0,-34.05c0,-4.75 -0.378,-4.972 -4.894,-5.5l0,-1.883c3.388,-0.605 7.683,-1.883 11.522,-3.317l0,5.878l6.628,-3.916Z" style="fill:#010101;fill-rule:nonzero;"/><path d="M462.901,208.096c-1.505,-4.445 -4.067,-7.456 -7.755,-7.456c-2.712,0 -4.673,2.111 -4.673,4.967c0,3.167 2.711,4.9 6.173,6.405c5.805,2.412 9.638,5.05 9.638,10.395c0,7.005 -6.477,10.55 -12.572,10.55c-3.916,0 -7.461,-1.433 -8.811,-2.561c-0.533,-1.056 -1.211,-6.256 -1.283,-9.117l2.111,-0.3c1.355,4.895 4.744,9.417 9.339,9.417c2.711,0 5.122,-2.039 5.122,-5.05c0,-3.161 -1.961,-4.895 -5.878,-6.778c-4.372,-2.028 -9.566,-4.594 -9.566,-10.472c0,-5.422 4.594,-9.945 11.672,-9.945c3.244,0 5.278,0.678 6.85,1.356c0.616,1.661 1.439,6.328 1.666,8.061l-2.033,0.528Z" style="fill:#010101;fill-rule:nonzero;"/><path d="M489.778,213.971c-1.577,0.828 -4.672,2.261 -6.322,3.011c-2.789,1.362 -4.372,2.717 -4.372,5.5c0,3.917 2.939,5.728 5.2,5.728c1.8,0 4.139,-1.133 5.494,-2.411l0,-11.828Zm5.728,18.984c-1.278,0 -2.861,-0.678 -3.694,-1.506c-0.984,-0.978 -1.5,-2.033 -1.811,-3.239c-3.006,2.034 -6.623,4.745 -8.728,4.745c-5.5,0 -9.267,-4.595 -9.267,-9.261c0,-3.767 1.956,-6.028 6.022,-7.389c4.517,-1.578 10.095,-3.606 11.75,-4.973l0,-1.505c0,-5.272 -2.411,-8.283 -6.027,-8.283c-1.35,0 -2.478,0.522 -3.239,1.433c-0.906,1.05 -1.578,2.711 -2.184,5.044c-0.377,1.356 -1.2,1.884 -2.405,1.884c-1.439,0 -3.545,-1.506 -3.545,-3.317c0,-1.2 0.978,-2.033 2.478,-3.161c2.189,-1.583 7.239,-4.445 11.539,-5.272c2.333,0 4.661,0.672 6.322,2.033c2.789,2.261 3.539,5.344 3.539,9.411l0,13.717c0,3.389 1.278,4.439 2.561,4.439c0.906,0 1.956,-0.373 2.717,-0.75l0.75,2.033l-6.778,3.917Z" style="fill:#010101;fill-rule:nonzero;"/><path d="M504.454,232.054l0,-2.033c4.744,-0.534 5.344,-0.906 5.344,-5.884l0,-35.477c0,-4.967 -0.45,-5.195 -5.122,-5.645l0,-1.805c3.995,-0.456 8.895,-1.739 11.683,-2.645l0,45.572c0,4.978 0.6,5.434 5.412,5.884l0,2.033l-17.317,0Z" style="fill:#010101;fill-rule:nonzero;"/><path d="M562.896,230.242c-3.611,0.533 -7.605,1.583 -11.522,2.711l-0.528,-0.45l0,-5.194c-1.661,1.272 -3.161,2.483 -5.194,3.688c-2.189,1.278 -3.923,1.956 -5.961,1.956c-5.267,0 -9.412,-3.244 -9.412,-11.15l0,-14.833c0,-4.15 -0.3,-4.445 -4.594,-5.2l0,-1.889c3.761,-0.222 7.528,-0.672 11.444,-1.356c-0.222,2.489 -0.294,6.111 -0.294,11.072l0,10.25c0,6.4 3.167,8.206 6.4,8.206c2.639,0 5.2,-1.044 7.611,-3.389l0,-17.694c0,-4.217 -0.378,-4.523 -5.655,-5.2l0,-1.889c3.994,-0.222 8.138,-0.528 12.283,-1.356l0,25.017c0,3.833 0.605,4.361 3.461,4.589l1.961,0.15l0,1.961Z" style="fill:#010101;fill-rule:nonzero;"/><path d="M610.406,232.201c-3.239,-3.611 -7.912,-9.795 -11.906,-14.917c-0.906,-1.2 -1.506,-1.65 -2.183,-1.65c-0.306,0 -0.606,0.067 -1.061,0.222l0,8.289c0,4.967 0.605,5.417 5.35,5.867l0,2.044l-17.328,0l0,-2.044c4.978,-0.45 5.433,-0.972 5.433,-5.867l0,-35.483c0,-4.817 -0.389,-5.195 -4.9,-5.65l0,-1.811c3.611,-0.45 8.133,-1.578 11.445,-2.628l0,35.244c2.188,-0.45 3.472,-1.422 4.677,-2.627c1.65,-1.739 3.839,-4.678 5.123,-6.639c1.427,-2.178 1.205,-2.856 -2.262,-3.239l0,-2.033l15.517,-0.678l0,1.966c-5.044,0.823 -6.855,1.656 -9.639,4.367c-1.961,1.883 -3.239,3.383 -6.25,7.011c1.578,2.4 9.034,11.295 11.522,14c2.634,2.789 4.517,3.845 7.3,4.067l0,2.044l-10.838,0.145Z" style="fill:#010101;fill-rule:nonzero;"/><path d="M631.027,213.82c0,9.489 3.845,16.572 9.867,16.572c4.294,0 7.989,-3.161 7.989,-13.633c0,-9.112 -3.389,-16.039 -9.645,-16.039c-4.366,0 -8.211,4.511 -8.211,13.1m25.539,1.133c0,12.2 -8.817,18 -16.5,18c-10.622,0 -16.728,-8.361 -16.728,-16.65c0,-12.422 9.645,-18.144 16.806,-18.144c9.489,0 16.422,7.605 16.422,16.794" style="fill:#010101;fill-rule:nonzero;"/><path d="M661.068,232.054l0,-2.033c4.744,-0.534 5.344,-0.906 5.344,-5.884l0,-35.477c0,-4.967 -0.45,-5.195 -5.122,-5.645l0,-1.805c3.989,-0.456 8.883,-1.739 11.678,-2.645l0,45.572c0,4.978 0.6,5.434 5.416,5.884l0,2.033l-17.316,0Z" style="fill:#010101;fill-rule:nonzero;"/><path d="M681.239,232.054l0,-2.033c4.744,-0.534 5.35,-0.906 5.35,-5.884l0,-35.477c0,-4.967 -0.456,-5.195 -5.122,-5.645l0,-1.805c3.994,-0.456 8.894,-1.739 11.683,-2.645l0,45.572c0,4.978 0.594,5.434 5.417,5.884l0,2.033l-17.328,0Z" style="fill:#010101;fill-rule:nonzero;"/><path d="M710.004,210.282c4,0 7.917,-0.077 12.056,-0.227c1.278,0 1.722,-0.373 1.722,-1.506c0.089,-3.917 -2.322,-7.611 -6.25,-7.611c-3.3,0 -6.544,3.244 -7.528,9.344m20.423,15.217c-4.75,6.1 -10.023,7.461 -12.506,7.461c-9.422,0 -14.839,-7.539 -14.839,-16.05c0,-5.272 1.95,-9.944 5.045,-13.261c3.166,-3.461 7.233,-5.494 11.144,-5.494c6.406,0 11.528,5.644 11.45,11.6c0,1.505 -0.294,2.183 -1.805,2.489c-1.206,0.144 -10.623,0.9 -19.356,1.2c0.15,9.872 5.8,14.083 11.067,14.083c3.016,0 5.883,-1.2 8.594,-3.689l1.206,1.661Z" style="fill:#010101;fill-rule:nonzero;"/><path d="M760.313,204.933c-1.733,-2.639 -4.672,-3.917 -7.305,-3.917c-3.234,0 -9.489,2.784 -9.489,13.784c0,9.039 5.494,13.261 10.089,13.261c2.483,0 4.894,-1.056 6.705,-2.334l0,-20.794Zm12.284,25.161c-1.745,0.3 -7.617,1.278 -12.284,2.861l0,-4.822l-4.594,2.789c-2.789,1.655 -4.595,2.033 -5.5,2.033c-6.1,0 -14.167,-5.5 -14.167,-16.122c0,-10.394 9.045,-18.678 19.589,-18.678c0.983,0 2.939,0.15 4.672,0.756l0,-10.4c0,-4.745 -0.455,-4.972 -5.65,-5.422l0,-1.884c4.067,-0.528 9.267,-1.661 12.278,-2.639l0,44.673c0,3.994 0.45,4.366 3.317,4.666l2.339,0.228l0,1.961Z" style="fill:#010101;fill-rule:nonzero;"/><path d="M799.083,182.407c-3.011,4.144 -5.345,8.139 -7.684,12.361l-2.022,0c-2.344,-4.3 -4.678,-8.217 -7.616,-12.361l1.888,-1.35c2.562,2.333 4.745,4.739 6.767,7.155c2.045,-2.338 4.15,-4.822 6.789,-7.155l1.878,1.35Zm6.333,40c-1.128,3.172 -2.333,6.783 -3.461,9.65l-25.167,0l-0.594,-1.139c6.478,-9.639 12.422,-19.133 18.528,-29.222l-6.256,0c-5.35,0 -6.478,1.128 -8.583,5.416l-1.128,2.112l-1.967,-0.756c0.9,-3.011 2.034,-7.75 2.639,-11.072l1.661,0c0.45,1.205 1.356,1.661 4.211,1.661l17.478,0l0.534,1.055c-6.106,9.723 -11.984,19.134 -18.078,29.306l7,0c5.65,0 7.383,-1.433 10.172,-6.106l1.05,-1.888l1.961,0.983Z" style="fill:#010101;fill-rule:nonzero;"/><path d="M93.782,233.15l0,8.95c0.922,-0.022 1.856,-0.022 2.817,-0.022c16.939,0 33.011,3.033 47.472,8.517l0,-72.128c0,-13.433 5.072,-20.728 12.272,-25.606c6.967,4.939 12.395,12.334 12.395,25.606l-0.156,84.733c6.1,4.134 11.672,8.767 16.561,13.806l0.139,-98.9c0,-22.561 -11.989,-35.084 -25.133,-42.822c-1.261,-0.639 -2.55,-1.462 -3.745,-1.867c-1.133,0.461 -2.366,1.094 -3.738,1.867c-12.728,7.255 -25.123,20.316 -25.123,42.822l-0.033,55.044l-17.178,0l-0.055,-53.905c0,-44.645 19.561,-68.228 45.766,-83.117c24.556,14.889 45.761,38.483 45.761,83.117l0.073,53.905l16.561,0l-0.061,-54.905c0,-53.011 -27.617,-82.011 -59.361,-100.745c0,0 -2.495,-1.494 -2.973,-1.594c-0.477,0.1 -2.961,1.594 -2.961,1.594c-30.528,17.284 -59.378,47.734 -59.378,100.745l0.078,54.905Z" style="fill:#b01a1a;fill-rule:nonzero;"/><path d="M285.959,134.289c-0.117,1.628 -0.172,3.333 -0.172,5.122l0,9.217c0,3.433 0.077,5.328 0.255,5.683c0.167,0.345 0.789,0.517 1.85,0.517l1.206,0l0,1.006c-1.917,-0.078 -3.539,-0.117 -4.872,-0.117c-1.345,0 -2.95,0.039 -4.839,0.117l0,-1.006l1.366,0c0.706,0 1.173,-0.089 1.389,-0.278c0.217,-0.189 0.345,-0.555 0.406,-1.111c0.105,-1.255 0.15,-2.889 0.15,-4.889l0,-9.244c0,-1.822 -0.034,-3.489 -0.1,-5.017l-1.645,0c-2.672,0 -4.139,0.078 -4.411,0.189c-0.272,0.133 -0.439,0.611 -0.539,1.444l-0.222,2.162l-1.011,0l0.033,-1.928c0,-0.772 -0.066,-1.889 -0.211,-3.35c5.856,0.094 9.295,0.133 10.322,0.133l8.978,-0.133c-0.2,1.828 -0.322,3.583 -0.355,5.278l-1,0l-0.173,-2.112c-0.055,-0.727 -0.155,-1.161 -0.272,-1.3c-0.122,-0.133 -0.389,-0.222 -0.805,-0.25c-1.189,-0.083 -2.539,-0.133 -4.056,-0.133l-1.272,0Z" style="fill:#010101;fill-rule:nonzero;"/><path d="M300.542,146.724l8.184,0l-4.089,-9.805l-4.095,9.805Zm8.761,1.295l-9.35,0l-1.122,2.672c-0.717,1.722 -1.083,2.783 -1.083,3.166c0,0.25 0.072,0.423 0.205,0.539c0.139,0.1 0.478,0.189 1.028,0.267l1.55,0.172l0,1.011c-1.033,-0.083 -2.194,-0.127 -3.489,-0.127c-1.55,0 -2.911,0.044 -4.083,0.127l0,-1.011l0.489,-0.022c0.744,-0.022 1.233,-0.094 1.45,-0.233c0.222,-0.128 0.45,-0.467 0.7,-1c0.766,-1.556 1.544,-3.234 2.344,-5.034l4.428,-10.077c1.189,-2.678 1.989,-4.617 2.433,-5.828l1.117,0l8.167,19.05c0.539,1.294 0.9,2.078 1.089,2.333c0.188,0.267 0.388,0.461 0.627,0.578c0.234,0.105 0.773,0.189 1.595,0.233l0,1.011c-1.389,-0.083 -2.695,-0.127 -3.95,-0.127c-1.172,0 -2.739,0.044 -4.7,0.127l0,-1.011l1.594,-0.105c0.567,-0.034 0.911,-0.095 1.011,-0.173c0.167,-0.116 0.239,-0.277 0.239,-0.455c0,-0.189 -0.155,-0.7 -0.478,-1.517l-1.811,-4.566Z" style="fill:#010101;fill-rule:nonzero;"/><path d="M325.743,154.222c1.056,0.05 2.089,0.072 3.1,0.072c2.023,0 3.611,-0.044 4.756,-0.161c0.805,-0.083 1.622,-0.239 2.483,-0.467l0.967,-3.811l1.011,0c-0.283,2.05 -0.5,3.967 -0.65,5.745c-0.978,0.166 -2.294,0.244 -3.983,0.244l-7.7,-0.122c-1.034,0 -2.645,0.039 -4.839,0.117l0,-0.828c0.872,-0.378 1.389,-0.784 1.544,-1.217c0.156,-0.428 0.239,-2.133 0.239,-5.122l0,-8.889c0,-3.228 -0.083,-5.028 -0.239,-5.406c-0.155,-0.372 -0.6,-0.555 -1.316,-0.555l-1.756,0l0,-1.011c2.567,0.083 4.278,0.116 5.117,0.116c1.133,0 2.655,-0.033 4.589,-0.116l0,1.011l-2.012,0c-0.572,0 -0.933,0.161 -1.083,0.494c-0.144,0.328 -0.228,1.695 -0.228,4.095l0,10.289l0.056,4.566l-0.056,0.956Z" style="fill:#010101;fill-rule:nonzero;"/><path d="M346.322,154.222c1.061,0.05 2.089,0.072 3.094,0.072c2.028,0 3.617,-0.044 4.767,-0.161c0.794,-0.083 1.622,-0.239 2.466,-0.467l0.984,-3.811l1,0c-0.284,2.05 -0.5,3.967 -0.65,5.745c-0.972,0.166 -2.3,0.244 -3.984,0.244l-7.694,-0.122c-1.028,0 -2.644,0.039 -4.839,0.117l0,-0.828c0.878,-0.378 1.389,-0.784 1.533,-1.217c0.167,-0.428 0.239,-2.133 0.239,-5.122l0,-8.889c0,-3.228 -0.072,-5.028 -0.227,-5.406c-0.156,-0.372 -0.595,-0.555 -1.317,-0.555l-1.767,0l0,-1.011c2.578,0.083 4.295,0.116 5.122,0.116c1.128,0 2.662,-0.033 4.589,-0.116l0,1.011l-2.016,0c-0.561,0 -0.923,0.161 -1.073,0.494c-0.155,0.328 -0.227,1.695 -0.227,4.095l0,10.289l0.05,4.566l-0.05,0.956Z" style="fill:#010101;fill-rule:nonzero;"/><path d="M360.954,154.835l1.028,0c1.011,0 1.611,-0.244 1.811,-0.728c0.2,-0.483 0.3,-2.816 0.3,-6.983l0,-5.494c0,-4.323 -0.084,-6.7 -0.256,-7.145c-0.178,-0.439 -0.694,-0.661 -1.566,-0.661l-1.317,0l0,-1.005c1.811,0.077 3.589,0.122 5.361,0.122c1.461,0 2.794,-0.045 3.994,-0.122l0,1.005l-1.261,0c-0.777,0 -1.266,0.089 -1.461,0.272c-0.189,0.184 -0.3,0.65 -0.339,1.395c-0.05,1.155 -0.077,3.211 -0.077,6.166l0,5.595c0,4.2 0.094,6.517 0.277,6.944c0.189,0.423 0.784,0.639 1.784,0.639l1.077,0l0,1c-1.344,-0.072 -2.794,-0.116 -4.377,-0.116c-1.839,0 -3.495,0.044 -4.978,0.116l0,-1Z" style="fill:#010101;fill-rule:nonzero;"/><path d="M379.156,136.432l0,11.212c0,2.561 0.05,4.333 0.138,5.338c0.078,0.773 0.206,1.239 0.395,1.4c0.172,0.178 0.7,0.295 1.555,0.362l1.034,0.094l0,1c-1.161,-0.078 -2.239,-0.117 -3.189,-0.117c-0.661,0 -2.172,0.039 -4.556,0.117l0,-1l1.173,0c0.711,0 1.161,-0.106 1.383,-0.294c0.217,-0.2 0.339,-0.584 0.411,-1.15c0.117,-1.189 0.167,-2.812 0.167,-4.85l0,-8.05c0,-1.512 -0.017,-3.006 -0.034,-4.484c-0.027,-0.616 -0.111,-1.061 -0.261,-1.294c-0.139,-0.234 -0.355,-0.439 -0.644,-0.617c-0.267,-0.189 -0.661,-0.278 -1.172,-0.278l-1.012,0l0,-1.005c1.373,0.078 2.417,0.122 3.145,0.122c0.772,0 1.622,-0.044 2.55,-0.122c1.072,1.3 2.061,2.578 3.005,3.811c0.945,1.233 1.923,2.472 2.939,3.733l5.534,6.789c1.989,2.433 3.422,4.128 4.305,5.078l0,-10.389c0,-4.35 -0.083,-6.733 -0.233,-7.139c-0.161,-0.4 -0.778,-0.655 -1.867,-0.767l-1.222,-0.111l0,-1.005c1.744,0.078 3.094,0.122 4.05,0.122c1.011,0 2.306,-0.044 3.889,-0.122l0,1.005l-1.245,0c-1.022,0 -1.6,0.334 -1.75,1c-0.088,0.456 -0.138,2.811 -0.138,7.095l0,7.294c0,1.972 0.072,4.317 0.255,7.039c-1.461,-0.222 -2.311,-0.378 -2.539,-0.489c-0.239,-0.105 -0.466,-0.278 -0.683,-0.511c-1.195,-1.333 -2.456,-2.8 -3.772,-4.428l-11.611,-14.389Z" style="fill:#010101;fill-rule:nonzero;"/><path d="M407.698,136.432l0,11.212c0,2.561 0.05,4.333 0.145,5.338c0.066,0.773 0.2,1.239 0.383,1.4c0.178,0.178 0.7,0.295 1.561,0.362l1.039,0.094l0,1c-1.167,-0.078 -2.25,-0.117 -3.2,-0.117c-0.661,0 -2.172,0.039 -4.55,0.117l0,-1l1.172,0c0.706,0 1.167,-0.106 1.384,-0.294c0.216,-0.2 0.344,-0.584 0.405,-1.15c0.122,-1.189 0.178,-2.812 0.178,-4.85l0,-8.05c0,-1.512 -0.011,-3.006 -0.044,-4.484c-0.028,-0.616 -0.106,-1.061 -0.25,-1.294c-0.15,-0.234 -0.367,-0.439 -0.65,-0.617c-0.273,-0.189 -0.673,-0.278 -1.178,-0.278l-1.006,0l0,-1.005c1.378,0.078 2.422,0.122 3.139,0.122c0.783,0 1.622,-0.044 2.55,-0.122c1.072,1.3 2.072,2.578 3.017,3.811c0.944,1.233 1.911,2.472 2.928,3.733l5.533,6.789c1.989,2.433 3.428,4.128 4.305,5.078l0,-10.389c0,-4.35 -0.072,-6.733 -0.233,-7.139c-0.155,-0.4 -0.778,-0.655 -1.867,-0.767l-1.216,-0.111l0,-1.005c1.744,0.078 3.089,0.122 4.05,0.122c1,0 2.3,-0.044 3.883,-0.122l0,1.005l-1.244,0c-1.011,0 -1.589,0.334 -1.745,1c-0.094,0.456 -0.144,2.811 -0.144,7.095l0,7.294c0,1.972 0.083,4.317 0.255,7.039c-1.461,-0.222 -2.311,-0.378 -2.55,-0.489c-0.233,-0.105 -0.455,-0.278 -0.672,-0.511c-1.194,-1.333 -2.455,-2.8 -3.767,-4.428l-11.611,-14.389Z" style="fill:#010101;fill-rule:nonzero;"/><path d="M437.212,146.724l8.189,0l-4.089,-9.805l-4.1,9.805Zm8.767,1.295l-9.361,0l-1.111,2.672c-0.728,1.722 -1.089,2.783 -1.089,3.166c0,0.25 0.078,0.423 0.205,0.539c0.134,0.1 0.473,0.189 1.028,0.267l1.55,0.172l0,1.011c-1.033,-0.083 -2.194,-0.127 -3.489,-0.127c-1.544,0 -2.911,0.044 -4.078,0.127l0,-1.011l0.478,-0.022c0.745,-0.022 1.239,-0.094 1.45,-0.233c0.228,-0.128 0.456,-0.467 0.711,-1c0.761,-1.556 1.539,-3.234 2.334,-5.034l4.439,-10.077c1.188,-2.678 1.988,-4.617 2.422,-5.828l1.122,0l8.161,19.05c0.545,1.294 0.911,2.078 1.1,2.333c0.172,0.267 0.389,0.461 0.617,0.578c0.239,0.105 0.778,0.189 1.605,0.233l0,1.011c-1.389,-0.083 -2.694,-0.127 -3.961,-0.127c-1.161,0 -2.733,0.044 -4.7,0.127l0,-1.011l1.6,-0.105c0.572,-0.034 0.906,-0.095 1.017,-0.173c0.161,-0.116 0.239,-0.277 0.239,-0.455c0,-0.189 -0.156,-0.7 -0.484,-1.517l-1.805,-4.566Z" style="fill:#010101;fill-rule:nonzero;"/><path d="M485.666,127.551c0.489,0 0.9,0.178 1.25,0.517c0.339,0.344 0.506,0.761 0.506,1.244c0,0.5 -0.167,0.917 -0.506,1.267c-0.35,0.345 -0.761,0.522 -1.25,0.522c-0.478,0 -0.911,-0.177 -1.261,-0.522c-0.344,-0.35 -0.522,-0.767 -0.522,-1.267c0,-0.483 0.178,-0.9 0.511,-1.244c0.35,-0.339 0.778,-0.517 1.272,-0.517m-6.983,0c0.483,0 0.9,0.178 1.25,0.517c0.344,0.344 0.522,0.761 0.522,1.244c0,0.5 -0.178,0.917 -0.522,1.267c-0.35,0.345 -0.767,0.522 -1.25,0.522c-0.5,0 -0.917,-0.177 -1.256,-0.522c-0.355,-0.35 -0.528,-0.767 -0.528,-1.267c0,-0.483 0.173,-0.9 0.528,-1.244c0.339,-0.339 0.756,-0.517 1.256,-0.517m-9.478,6.273l0,-1.012c2.222,0.084 3.839,0.123 4.844,0.123c1.067,0 2.623,-0.039 4.689,-0.123l0,1.012l-1.183,0c-1.017,0 -1.622,0.194 -1.828,0.583c-0.205,0.383 -0.311,2.144 -0.311,5.267l0,6.333c0,2.311 0.128,3.917 0.378,4.828c0.267,0.905 0.911,1.672 1.983,2.294c1.056,0.628 2.472,0.928 4.245,0.928c1.833,0 3.366,-0.328 4.633,-1c0.861,-0.461 1.489,-1.178 1.9,-2.15c0.394,-0.978 0.594,-2.828 0.594,-5.55l0,-6.089c0,-2.822 -0.127,-4.439 -0.383,-4.833c-0.25,-0.411 -0.944,-0.611 -2.089,-0.611l-0.844,0l0,-1.012c2.244,0.084 3.661,0.123 4.272,0.123c0.978,0 2.194,-0.039 3.667,-0.123l0,1.012l-1.117,0c-0.861,0 -1.411,0.227 -1.65,0.683c-0.25,0.461 -0.367,2.072 -0.367,4.828l0,6.061c0,2.778 -0.15,4.639 -0.422,5.6c-0.272,0.972 -0.778,1.839 -1.511,2.616c-0.728,0.773 -1.711,1.389 -2.922,1.834c-1.217,0.466 -2.65,0.689 -4.295,0.689c-1.705,0 -3.189,-0.206 -4.466,-0.606c-1.284,-0.405 -2.239,-0.905 -2.884,-1.5c-0.639,-0.589 -1.105,-1.311 -1.4,-2.172c-0.283,-0.861 -0.427,-2.317 -0.427,-4.372l0.038,-3.073l0,-4.938c0,-3.028 -0.1,-4.739 -0.277,-5.106c-0.178,-0.361 -0.75,-0.544 -1.706,-0.544l-1.161,0Z" style="fill:#010101;fill-rule:nonzero;"/><path d="M503.434,154.222c1.055,0.05 2.089,0.072 3.1,0.072c2.022,0 3.611,-0.044 4.761,-0.161c0.794,-0.083 1.622,-0.239 2.472,-0.467l0.978,-3.811l1,0c-0.278,2.05 -0.494,3.967 -0.639,5.745c-0.983,0.166 -2.305,0.244 -3.994,0.244l-7.689,-0.122c-1.039,0 -2.65,0.039 -4.839,0.117l0,-0.828c0.867,-0.378 1.378,-0.784 1.544,-1.217c0.156,-0.428 0.234,-2.133 0.234,-5.122l0,-8.889c0,-3.228 -0.078,-5.028 -0.234,-5.406c-0.161,-0.372 -0.6,-0.555 -1.316,-0.555l-1.761,0l0,-1.011c2.566,0.083 4.277,0.116 5.116,0.116c1.134,0 2.656,-0.033 4.589,-0.116l0,1.011l-2.011,0c-0.567,0 -0.933,0.161 -1.083,0.494c-0.145,0.328 -0.228,1.695 -0.228,4.095l0,10.289l0.05,4.566l-0.05,0.956Z" style="fill:#010101;fill-rule:nonzero;"/><path d="M517.741,154.835l1.022,0c1.005,0 1.611,-0.244 1.816,-0.728c0.195,-0.483 0.295,-2.816 0.295,-6.983l0,-5.494c0,-4.323 -0.089,-6.7 -0.261,-7.145c-0.172,-0.439 -0.689,-0.661 -1.561,-0.661l-1.311,0l0,-1.005c1.8,0.077 3.588,0.122 5.35,0.122c1.466,0 2.805,-0.045 4,-0.122l0,1.005l-1.256,0c-0.783,0 -1.261,0.089 -1.456,0.272c-0.205,0.184 -0.311,0.65 -0.338,1.395c-0.062,1.155 -0.095,3.211 -0.095,6.166l0,5.595c0,4.2 0.1,6.517 0.289,6.944c0.178,0.423 0.778,0.639 1.778,0.639l1.078,0l0,1c-1.345,-0.072 -2.795,-0.116 -4.373,-0.116c-1.844,0 -3.494,0.044 -4.977,0.116l0,-1Z" style="fill:#010101;fill-rule:nonzero;"/><path d="M540.864,143.035l10.994,10.339l1.006,0.95c0.189,0.217 0.4,0.345 0.617,0.406c0.211,0.066 0.555,0.111 1.038,0.111l0,1c-0.883,-0.078 -1.655,-0.122 -2.327,-0.122c-0.706,0 -1.489,0.044 -2.306,0.122l-11.139,-10.595c-0.372,-0.355 -0.6,-0.533 -0.694,-0.533c-0.228,0 -0.334,0.206 -0.334,0.639l0,4.939c0,2.405 0.039,3.733 0.139,3.961c0.167,0.378 0.756,0.589 1.773,0.589l1.222,0l0,1c-1.772,-0.078 -3.345,-0.122 -4.734,-0.122c-1.422,0 -2.966,0.044 -4.627,0.122l0,-1l1.327,0c0.862,0 1.389,-0.172 1.556,-0.489c0.178,-0.317 0.261,-1.695 0.261,-4.122l0,-10.839c0,-2.967 -0.083,-4.639 -0.261,-5.011c-0.167,-0.373 -0.694,-0.561 -1.556,-0.561l-1.327,0l0,-1.006c2,0.078 3.444,0.122 4.333,0.122c0.639,0 2.322,-0.044 5.028,-0.122l0,1.006l-1.295,0.05c-0.744,0.033 -1.211,0.133 -1.4,0.3c-0.2,0.166 -0.322,0.5 -0.366,0.994c-0.05,0.5 -0.073,1.928 -0.073,4.289l0,4.367l0.228,0c0.884,-0.717 1.634,-1.378 2.284,-1.978c0.627,-0.6 1.672,-1.65 3.127,-3.145l4.578,-4.755l0,-1.128c1.195,0.078 2.178,0.122 2.961,0.122c0.806,0 1.695,-0.044 2.684,-0.122l0,1.006l-0.878,0c-0.784,0 -1.434,0.155 -1.978,0.45c-0.533,0.3 -1.778,1.338 -3.733,3.127l-6.128,5.639Z" style="fill:#010101;fill-rule:nonzero;"/><path d="M558.599,142.997c0,2.428 0.411,4.533 1.244,6.339c0.828,1.8 1.945,3.139 3.339,4.039c1.4,0.889 3,1.344 4.789,1.344c1.661,0 3.117,-0.383 4.367,-1.15c1.244,-0.755 2.222,-1.9 2.939,-3.405c0.711,-1.523 1.072,-3.356 1.072,-5.523c0,-2.277 -0.395,-4.216 -1.189,-5.827c-0.789,-1.623 -1.867,-2.834 -3.244,-3.656c-1.378,-0.817 -3.006,-1.217 -4.878,-1.217c-1.722,0 -3.2,0.356 -4.45,1.078c-1.245,0.722 -2.222,1.772 -2.934,3.161c-0.711,1.389 -1.055,2.995 -1.055,4.817m-3.322,1.322c0,-3.539 1.133,-6.394 3.427,-8.555c2.284,-2.167 5.328,-3.245 9.139,-3.245c3.723,0 6.634,1.006 8.767,3.006c2.111,2.016 3.172,4.683 3.172,8c0,3.589 -1.222,6.583 -3.689,8.989c-2.455,2.405 -5.555,3.622 -9.289,3.622c-2.338,0 -4.355,-0.478 -6.044,-1.417c-1.694,-0.95 -3.033,-2.339 -4.017,-4.155c-0.977,-1.817 -1.466,-3.9 -1.466,-6.245" style="fill:#010101;fill-rule:nonzero;"/><path d="M585.644,142.997c0,2.428 0.412,4.533 1.25,6.339c0.839,1.8 1.939,3.139 3.334,4.039c1.405,0.889 2.994,1.344 4.789,1.344c1.672,0 3.122,-0.383 4.372,-1.15c1.239,-0.755 2.222,-1.9 2.939,-3.405c0.716,-1.523 1.066,-3.356 1.066,-5.523c0,-2.277 -0.394,-4.216 -1.183,-5.827c-0.789,-1.623 -1.867,-2.834 -3.244,-3.656c-1.378,-0.817 -3.006,-1.217 -4.878,-1.217c-1.722,0 -3.206,0.356 -4.456,1.078c-1.244,0.722 -2.222,1.772 -2.927,3.161c-0.706,1.389 -1.062,2.995 -1.062,4.817m-3.311,1.322c0,-3.539 1.128,-6.394 3.423,-8.555c2.283,-2.167 5.333,-3.245 9.133,-3.245c3.728,0 6.65,1.006 8.761,3.006c2.128,2.016 3.178,4.683 3.178,8c0,3.589 -1.222,6.583 -3.684,8.989c-2.45,2.405 -5.555,3.622 -9.283,3.622c-2.35,0 -4.361,-0.478 -6.055,-1.417c-1.689,-0.95 -3.023,-2.339 -4,-4.155c-0.984,-1.817 -1.473,-3.9 -1.473,-6.245" style="fill:#010101;fill-rule:nonzero;"/><path d="M615.668,154.222c1.05,0.05 2.084,0.072 3.089,0.072c2.034,0 3.617,-0.044 4.767,-0.161c0.8,-0.083 1.617,-0.239 2.461,-0.467l0.978,-3.811l1.011,0c-0.272,2.05 -0.495,3.967 -0.645,5.745c-0.972,0.166 -2.3,0.244 -3.983,0.244l-7.7,-0.122c-1.033,0 -2.639,0.039 -4.839,0.117l0,-0.828c0.867,-0.378 1.389,-0.784 1.539,-1.217c0.172,-0.428 0.239,-2.133 0.239,-5.122l0,-8.889c0,-3.228 -0.067,-5.028 -0.233,-5.406c-0.156,-0.372 -0.589,-0.555 -1.317,-0.555l-1.761,0l0,-1.011c2.578,0.083 4.283,0.116 5.122,0.116c1.133,0 2.656,-0.033 4.589,-0.116l0,1.011l-2.011,0c-0.567,0 -0.939,0.161 -1.089,0.494c-0.139,0.328 -0.217,1.695 -0.217,4.095l0,10.289l0.045,4.566l-0.045,0.956Z" style="fill:#010101;fill-rule:nonzero;"/><clipPath id="_clip1"><path d="M293.012,454.352c2.967,-1.266 17.567,-16.672 25.384,-14.094c10.638,3.511 4.35,45.028 0.95,59.317c-3.839,16.122 -10.956,32.377 -17.312,41.244c-6.072,8.461 -11.805,5.195 -14.388,2.911c1.666,1.745 4.416,4.65 6.227,6.672c2.761,3.073 9.306,0 11.806,-2.355c3.778,-3.561 11.511,-7.106 25.028,-47.75c13.122,-39.428 7.905,-50.283 7.905,-50.283l-0.983,-11.089l-7.589,-3.05l-13.422,-0.695c0,0 -26.578,20.439 -23.606,19.172Zm-5.366,89.378c-0.867,-0.911 -1.445,-1.505 -1.445,-1.505c0,0 0.522,0.683 1.445,1.505Z"/></clipPath><g clip-path="url(#_clip1)"><path d="M281.478,553.475l10.35,-118.295l54.249,0l-10.351,118.295l-54.248,0Z" style="fill:url(#_Linear2);fill-rule:nonzero;"/></g><clipPath id="_clip3"><path d="M350.512,438.08c2.672,-1.144 14.806,-10.272 21.884,-8.072c10.472,3.256 4.15,35.906 1.094,48.772c-3.061,12.856 -11.483,30.789 -16.011,37.111c-7.411,10.323 -9.078,0.978 -9.078,0.978c0,0 0.411,4.883 2.889,7.65c2.483,2.767 8.378,0 10.622,-2.117c2.245,-2.116 12.184,-10.655 23.35,-42.977c12.228,-35.395 6.289,-45.256 6.289,-45.256l-1.994,-9.672l-4.995,-3.361l-12.805,-0.322c0,0 -23.917,18.405 -21.245,17.266Z"/></clipPath><g clip-path="url(#_clip3)"><path d="M340.134,527.286l9.317,-106.472l50.07,0l-9.316,106.472l-50.071,0Z" style="fill:url(#_Linear4);fill-rule:nonzero;"/></g><clipPath id="_clip5"><path d="M322.918,421.586c-27.189,0.044 -55.011,37.505 -74.511,81.194c-25.339,56.772 -31.573,123.061 -31.573,123.061l12.373,0.045c0,0 7.533,-65.145 32.3,-115.828c24.766,-50.672 53.439,-73.578 65.027,-73.25c4.7,0.133 11.628,6.256 11.656,13.033l0.472,-7.772c1.15,-4.683 -2.961,-20.483 -15.728,-20.483l-0.016,0Z"/></clipPath><g clip-path="url(#_clip5)"><path d="M234.707,421.586l106.488,0l-17.877,204.3l-106.487,0l17.876,-204.3Z" style="fill:url(#_Linear6);fill-rule:nonzero;"/></g><clipPath id="_clip7"><path d="M301.334,486.786c-30.966,54.222 -17.561,69.422 -7.533,69.544c8.545,0.1 18.139,-14.55 18.156,-14.583c-0.967,1.25 -6.484,8.289 -12.973,8.689c-6.711,0.411 -1.572,-29.311 17.306,-62.172c22.989,-40.045 55.861,-66.278 66.472,-64.012c5.778,1.228 5.172,1.612 9.2,13.134l0.145,-0.267c0.272,-10.139 -0.073,-25.239 -11.784,-26.733c-0.872,-0.117 -1.761,-0.167 -2.666,-0.167c-19.2,0 -46.75,24.8 -76.323,76.567Z"/></clipPath><g clip-path="url(#_clip7)"><path d="M281.811,410.219l112.649,0l-12.793,146.211l-112.649,0l12.793,-146.211Z" style="fill:url(#_Linear8);fill-rule:nonzero;"/></g><clipPath id="_clip9"><path d="M358.012,466.502c-26.722,49.3 -15.705,62.478 -6.678,62.584c7.895,0.094 16.273,-12.856 17.023,-14.034c-0.561,0.884 -5.461,8.234 -12.361,8.734c-8.312,0.611 0.127,-26.545 16.627,-55.956c18.267,-32.555 35.467,-44.172 56.606,-55.094l1.361,-14.839c-19.122,6.672 -48.994,25.083 -72.578,68.605Zm10.372,48.517l0.023,-0.044l-0.023,0.044Zm-0.027,0.033c0.011,-0.016 0.022,-0.022 0.027,-0.033c-0.005,0.011 -0.016,0.017 -0.027,0.033Z"/></clipPath><g clip-path="url(#_clip9)"><path d="M341.607,397.897l88.983,0l-11.487,131.283l-88.983,0l11.487,-131.283Z" style="fill:url(#_Linear10);fill-rule:nonzero;"/></g><path d="M300.955,652.806c0,1.673 -0.094,2.95 -0.278,3.828c-0.183,0.8 -0.522,1.595 -1.005,2.389c-1.495,2.389 -3.989,3.583 -7.5,3.583c-3.573,0 -6.078,-1.194 -7.5,-3.583c-0.511,-0.856 -0.839,-1.9 -0.984,-3.117c-0.083,-0.644 -0.122,-1.75 -0.122,-3.344l0,-11.761l4.289,0l0,11.394c0,1.384 0.028,2.345 0.089,2.872c0.128,1.123 0.394,2.023 0.833,2.7c0.75,1.2 1.956,1.806 3.611,1.806c2.123,0 3.539,-0.939 4.25,-2.817c0.328,-0.861 0.495,-2.416 0.495,-4.655l0,-11.3l3.822,0l0,12.005Z" style="fill:#69696f;fill-rule:nonzero;"/><path d="M318.772,662.23l-4.045,0l0,-8.756c0,-1.328 -0.161,-2.289 -0.483,-2.878c-0.489,-0.861 -1.322,-1.289 -2.483,-1.289c-1.673,0 -2.756,0.7 -3.245,2.112c-0.183,0.527 -0.278,1.383 -0.278,2.544l0,8.267l-4.066,0l0,-15.306l4.066,0l0,2.05c1.478,-1.617 3.223,-2.428 5.239,-2.428c2.45,0 4.056,0.967 4.834,2.884c0.311,0.777 0.461,2.144 0.461,4.105l0,8.695Z" style="fill:#69696f;fill-rule:nonzero;"/><path d="M325.784,662.23l-4.038,0l0,-15.305l4.038,0l0,15.305Zm0.284,-20.028c0,0.634 -0.222,1.184 -0.672,1.639c-0.45,0.467 -0.995,0.695 -1.628,0.695c-0.634,0 -1.178,-0.217 -1.639,-0.661c-0.456,-0.439 -0.689,-0.961 -0.689,-1.578c0,-0.711 0.211,-1.289 0.639,-1.722c0.439,-0.45 1.005,-0.673 1.722,-0.673c0.656,0 1.195,0.223 1.622,0.673c0.434,0.433 0.645,0.977 0.645,1.627" style="fill:#69696f;fill-rule:nonzero;"/><path d="M343.338,647.261l-6.589,14.967l-2.778,0l-6.122,-14.85l4.011,-0.733l3.972,10.716l4.228,-10.716l3.278,0.616Z" style="fill:#69696f;fill-rule:nonzero;"/><path d="M354.156,652.931l-0.034,-0.739c-0.166,-2.322 -1.155,-3.478 -2.972,-3.478c-2.144,0 -3.283,1.406 -3.4,4.217l6.406,0Zm3.605,1.533l-0.4,0.245l-0.4,0.277l-9.211,0c0.017,1.55 0.461,2.778 1.328,3.667c0.866,0.9 1.994,1.344 3.378,1.344c1.311,0 2.638,-0.405 3.983,-1.227l1.128,2.122c-2.017,1.144 -4.006,1.711 -5.967,1.711c-2.244,0 -4.1,-0.694 -5.572,-2.083c-1.7,-1.595 -2.545,-3.656 -2.545,-6.184c0,-2.339 0.756,-4.239 2.267,-5.7c1.433,-1.389 3.25,-2.089 5.456,-2.089c2.777,0 4.677,1.128 5.7,3.378c0.544,1.206 0.838,2.722 0.855,4.539" style="fill:#69696f;fill-rule:nonzero;"/><path d="M370.855,647.961l-1.5,2.911c-0.9,-0.433 -1.539,-0.655 -1.933,-0.655c-1.139,0 -1.939,0.617 -2.389,1.839c-0.267,0.739 -0.395,1.95 -0.395,3.65l0,6.522l-4.044,0l0,-15.306l4.044,0l0,2.695l0.578,-0.978c0.822,-1.394 1.75,-2.094 2.789,-2.094c0.883,0 1.828,0.477 2.85,1.416" style="fill:#69696f;fill-rule:nonzero;"/><path d="M381.613,658.015c0,1.344 -0.539,2.444 -1.622,3.305c-1.078,0.856 -2.461,1.284 -4.128,1.284c-1.883,0 -3.577,-0.589 -5.083,-1.778l1.311,-2.145c1.206,1.028 2.3,1.539 3.278,1.539c0.65,0 1.178,-0.172 1.572,-0.505c0.406,-0.334 0.606,-0.789 0.606,-1.356l-0.489,-1.322c-0.334,-0.395 -1.05,-0.989 -2.15,-1.783c-1.1,-0.795 -1.845,-1.412 -2.239,-1.839c-0.689,-0.795 -1.039,-1.678 -1.039,-2.639c0,-1.245 0.489,-2.261 1.472,-3.05c0.978,-0.784 2.234,-1.178 3.767,-1.178c1.594,0 3.05,0.422 4.383,1.256l-1.2,1.938c-0.816,-0.572 -1.672,-0.855 -2.572,-0.855c-0.556,0 -1.011,0.144 -1.367,0.433l-0.533,1.067c0,0.611 0.7,1.439 2.111,2.483c1.572,1.161 2.622,2.072 3.139,2.734c0.528,0.672 0.783,1.472 0.783,2.411" style="fill:#69696f;fill-rule:nonzero;"/><path d="M388.251,662.23l-4.044,0l0,-15.305l4.044,0l0,15.305Zm0.272,-20.028c0,0.634 -0.222,1.184 -0.672,1.639c-0.45,0.467 -0.989,0.695 -1.628,0.695c-0.633,0 -1.177,-0.217 -1.639,-0.661c-0.461,-0.439 -0.694,-0.961 -0.694,-1.578c0,-0.711 0.217,-1.289 0.65,-1.722c0.428,-0.45 1,-0.673 1.717,-0.673c0.65,0 1.194,0.223 1.622,0.673c0.428,0.433 0.644,0.977 0.644,1.627" style="fill:#69696f;fill-rule:nonzero;"/><path d="M401.682,661.622c-1.411,0.656 -2.789,0.984 -4.139,0.984c-1.795,0 -3.1,-0.595 -3.917,-1.784c-0.517,-0.727 -0.767,-2.055 -0.767,-3.95l0,-7.872l-2.138,0l0,-2.078l2.138,0l0,-3.7l4.039,-0.883l0,4.583l4.011,0l0,2.078l-4.011,0l0,7.05c0,1.534 0.161,2.606 0.478,3.206c0.317,0.6 0.872,0.9 1.667,0.9c0.655,0 1.3,-0.167 1.933,-0.5l0.706,1.966Z" style="fill:#69696f;fill-rule:nonzero;"/><path d="M417.41,647.283l-7.444,16.872c-0.956,2.184 -1.862,3.628 -2.723,4.345c-1.1,0.922 -2.689,1.377 -4.772,1.377l-0.95,0l0,-2.722l0.795,0c0.938,0 1.672,-0.128 2.205,-0.383c0.528,-0.256 1.017,-0.733 1.483,-1.433c0.456,-0.712 1.106,-2.084 1.945,-4.123l-5.939,-13.811l3.978,-0.761l3.922,10.778l4.317,-10.778l3.183,0.639Z" style="fill:#69696f;fill-rule:nonzero;"/><path d="M435.509,654.482c0,-1.794 -0.333,-3.2 -1.006,-4.2c-0.672,-1.005 -1.616,-1.5 -2.811,-1.5c-1.15,0 -2.061,0.512 -2.744,1.545c-0.684,1.033 -1.022,2.422 -1.022,4.155c0,1.845 0.338,3.289 1.005,4.323c0.678,1.05 1.611,1.572 2.817,1.572c1.183,0 2.105,-0.522 2.766,-1.572c0.667,-1.034 0.995,-2.478 0.995,-4.323m4.194,-0.027c0,2.366 -0.739,4.316 -2.227,5.85c-1.489,1.533 -3.4,2.3 -5.728,2.3c-2.345,0 -4.267,-0.756 -5.767,-2.261c-1.5,-1.517 -2.25,-3.473 -2.25,-5.862c0,-2.327 0.761,-4.233 2.261,-5.711c1.517,-1.477 3.45,-2.227 5.817,-2.227c2.267,0 4.144,0.755 5.65,2.272c1.5,1.511 2.244,3.394 2.244,5.639" style="fill:#69696f;fill-rule:nonzero;"/><path d="M451.931,640.431l-0.705,1.994c-0.556,-0.189 -1.078,-0.283 -1.595,-0.283c-1.044,0 -1.694,0.444 -1.961,1.344c-0.1,0.295 -0.15,0.828 -0.15,1.628l0,1.811l3.678,0l0,2.072l-3.678,0l0,13.234l-4.011,0l0,-13.234l-2.478,0l0,-2.072l2.478,0l0,-1.472c0,-1.756 0.411,-3.083 1.228,-3.983c1.044,-1.145 2.416,-1.717 4.127,-1.717c1.045,0 2.062,0.228 3.067,0.678" style="fill:#69696f;fill-rule:nonzero;"/><path d="M469.2,653.782l-2.822,-8.261l-3.117,8.261l5.939,0Zm7.467,8.45l-4.623,0l-1.988,-5.855l-7.712,0l-2.244,5.855l-3.544,0l8.755,-21.433l3.306,0l8.05,21.433Z" style="fill:#69696f;fill-rule:nonzero;"/><path d="M489.947,654.39c0,-1.678 -0.345,-3 -1.011,-3.972c-0.667,-0.967 -1.584,-1.456 -2.739,-1.456c-1.2,0 -2.156,0.523 -2.878,1.567c-0.722,1.045 -1.083,2.428 -1.083,4.172c0,1.695 0.35,3.045 1.05,4.028c0.7,0.995 1.666,1.495 2.877,1.495c1.306,0 2.295,-0.678 2.984,-2.023c0.533,-1.066 0.8,-2.333 0.8,-3.811m4.283,-0.15c0,2.389 -0.694,4.384 -2.083,5.972c-1.384,1.6 -3.134,2.395 -5.234,2.395c-1.733,0 -3.294,-0.811 -4.677,-2.422l0,9.694l-3.956,0l0,-22.955l3.956,0l0,2.238c1.361,-1.744 3.111,-2.616 5.233,-2.616c1.994,0 3.622,0.716 4.878,2.133c1.261,1.422 1.883,3.272 1.883,5.561" style="fill:#69696f;fill-rule:nonzero;"/><path d="M508.132,654.39c0,-1.678 -0.344,-3 -1.011,-3.972c-0.667,-0.967 -1.583,-1.456 -2.739,-1.456c-1.205,0 -2.155,0.523 -2.878,1.567c-0.722,1.045 -1.083,2.428 -1.083,4.172c0,1.695 0.35,3.045 1.05,4.028c0.7,0.995 1.661,1.495 2.872,1.495c1.311,0 2.3,-0.678 2.989,-2.023c0.534,-1.066 0.8,-2.333 0.8,-3.811m4.284,-0.15c0,2.389 -0.695,4.384 -2.084,5.972c-1.383,1.6 -3.128,2.395 -5.228,2.395c-1.733,0 -3.3,-0.811 -4.683,-2.422l0,9.694l-3.95,0l0,-22.955l3.95,0l0,2.238c1.361,-1.744 3.111,-2.616 5.233,-2.616c1.995,0 3.623,0.716 4.884,2.133c1.25,1.422 1.878,3.272 1.878,5.561" style="fill:#69696f;fill-rule:nonzero;"/><rect x="514.657" y="639.758" width="4.044" height="22.472" style="fill:#69696f;fill-rule:nonzero;"/><path d="M526.934,662.23l-4.044,0l0,-15.305l4.044,0l0,15.305Zm0.284,-20.028c0,0.634 -0.228,1.184 -0.678,1.639c-0.444,0.467 -0.989,0.695 -1.622,0.695c-0.634,0 -1.184,-0.217 -1.645,-0.661c-0.461,-0.439 -0.689,-0.961 -0.689,-1.578c0,-0.711 0.217,-1.289 0.645,-1.722c0.433,-0.45 1.005,-0.673 1.717,-0.673c0.655,0 1.2,0.223 1.627,0.673c0.428,0.433 0.645,0.977 0.645,1.627" style="fill:#69696f;fill-rule:nonzero;"/><path d="M540.088,652.931l-0.039,-0.739c-0.161,-2.322 -1.15,-3.478 -2.967,-3.478c-2.15,0 -3.283,1.406 -3.405,4.217l6.411,0Zm3.6,1.533l-0.4,0.245l-0.395,0.277l-9.216,0c0.022,1.55 0.461,2.778 1.327,3.667c0.867,0.9 1.995,1.344 3.384,1.344c1.311,0 2.633,-0.405 3.978,-1.227l1.133,2.122c-2.022,1.144 -4.006,1.711 -5.967,1.711c-2.244,0 -4.105,-0.694 -5.572,-2.083c-1.7,-1.595 -2.544,-3.656 -2.544,-6.184c0,-2.339 0.755,-4.239 2.266,-5.7c1.434,-1.389 3.25,-2.089 5.456,-2.089c2.778,0 4.678,1.128 5.694,3.378c0.55,1.206 0.845,2.722 0.856,4.539" style="fill:#69696f;fill-rule:nonzero;"/><path d="M557.536,654.39c0,-1.655 -0.356,-2.972 -1.078,-3.95c-0.722,-0.989 -1.684,-1.478 -2.884,-1.478c-1.161,0 -2.077,0.478 -2.755,1.445c-0.683,0.961 -1.028,2.278 -1.028,3.955c0,1.762 0.356,3.178 1.056,4.25c0.7,1.067 1.622,1.612 2.755,1.612c1.184,0 2.134,-0.545 2.856,-1.612c0.722,-1.072 1.078,-2.483 1.078,-4.222m3.916,7.839l-3.916,0l0,-2.261c-1.528,1.756 -3.256,2.639 -5.178,2.639c-2.134,0 -3.839,-0.822 -5.106,-2.45c-1.166,-1.489 -1.75,-3.35 -1.75,-5.583c0,-2.306 0.689,-4.223 2.056,-5.739c1.366,-1.523 3.089,-2.289 5.172,-2.289c1.978,0 3.583,0.794 4.806,2.372l0,-9.161l3.916,0l0,22.472Z" style="fill:#69696f;fill-rule:nonzero;"/><path d="M585.216,656.599c0,1.755 -0.695,3.2 -2.084,4.322c-1.389,1.122 -3.183,1.683 -5.389,1.683c-2.333,0 -4.45,-0.678 -6.366,-2.022l1.622,-2.578c1.505,1.15 2.978,1.717 4.405,1.717c0.995,0 1.817,-0.25 2.445,-0.778c0.633,-0.522 0.95,-1.211 0.95,-2.067c0,-1.022 -0.789,-2.233 -2.356,-3.639c-0.739,-0.661 -1.883,-1.611 -3.433,-2.855c-1.772,-1.406 -2.661,-2.945 -2.661,-4.617c0,-1.572 0.65,-2.855 1.939,-3.85c1.305,-0.983 2.961,-1.478 4.983,-1.478c1.961,0 3.772,0.578 5.45,1.739l-1.65,2.361c-1.211,-0.816 -2.361,-1.227 -3.467,-1.227c-0.827,0 -1.494,0.205 -2,0.616c-0.5,0.411 -0.755,0.95 -0.755,1.623c0,0.811 0.655,1.777 1.967,2.877c0.472,0.389 1.572,1.311 3.305,2.756c2.061,1.672 3.095,3.478 3.095,5.417" style="fill:#69696f;fill-rule:nonzero;"/><path d="M600.136,661.134c-1.589,0.978 -3.356,1.472 -5.289,1.472c-2.334,0 -4.261,-0.739 -5.789,-2.222c-1.534,-1.478 -2.295,-3.394 -2.295,-5.744c0,-2.328 0.795,-4.261 2.4,-5.795c1.6,-1.528 3.639,-2.3 6.106,-2.3c1.739,0 3.289,0.428 4.655,1.261l-1.188,2.15c-1.006,-0.477 -1.984,-0.716 -2.939,-0.716c-1.434,0 -2.578,0.477 -3.445,1.427c-0.872,0.956 -1.305,2.217 -1.305,3.789c0,1.634 0.439,2.95 1.322,3.956c0.872,0.994 2.028,1.5 3.455,1.5c0.973,0 2.056,-0.317 3.217,-0.961l1.095,2.183Z" style="fill:#69696f;fill-rule:nonzero;"/><path d="M605.99,662.23l-4.05,0l0,-15.305l4.05,0l0,15.305Zm0.278,-20.028c0,0.634 -0.222,1.184 -0.672,1.639c-0.456,0.467 -1,0.695 -1.628,0.695c-0.634,0 -1.178,-0.217 -1.639,-0.661c-0.461,-0.439 -0.695,-0.961 -0.695,-1.578c0,-0.711 0.217,-1.289 0.645,-1.722c0.428,-0.45 1.005,-0.673 1.722,-0.673c0.65,0 1.189,0.223 1.622,0.673c0.428,0.433 0.645,0.977 0.645,1.627" style="fill:#69696f;fill-rule:nonzero;"/><path d="M619.129,652.931l-0.027,-0.739c-0.161,-2.322 -1.156,-3.478 -2.973,-3.478c-2.15,0 -3.277,1.406 -3.405,4.217l6.405,0Zm3.606,1.533l-0.394,0.245l-0.395,0.277l-9.222,0c0.022,1.55 0.467,2.778 1.333,3.667c0.867,0.9 1.995,1.344 3.378,1.344c1.311,0 2.639,-0.405 3.983,-1.227l1.134,2.122c-2.023,1.144 -4.011,1.711 -5.973,1.711c-2.244,0 -4.1,-0.694 -5.572,-2.083c-1.694,-1.595 -2.539,-3.656 -2.539,-6.184c0,-2.339 0.756,-4.239 2.267,-5.7c1.428,-1.389 3.244,-2.089 5.456,-2.089c2.772,0 4.672,1.128 5.688,3.378c0.556,1.206 0.839,2.722 0.856,4.539" style="fill:#69696f;fill-rule:nonzero;"/><path d="M640.174,662.23l-4.038,0l0,-8.756c0,-1.328 -0.167,-2.289 -0.489,-2.878c-0.489,-0.861 -1.317,-1.289 -2.484,-1.289c-1.666,0 -2.75,0.7 -3.239,2.112c-0.183,0.527 -0.283,1.383 -0.283,2.544l0,8.267l-4.061,0l0,-15.306l4.061,0l0,2.05c1.478,-1.617 3.222,-2.428 5.239,-2.428c2.45,0 4.056,0.967 4.839,2.884c0.305,0.777 0.455,2.144 0.455,4.105l0,8.695Z" style="fill:#69696f;fill-rule:nonzero;"/><path d="M655.799,661.134c-1.594,0.978 -3.355,1.472 -5.3,1.472c-2.322,0 -4.255,-0.739 -5.783,-2.222c-1.533,-1.478 -2.294,-3.394 -2.294,-5.744c0,-2.328 0.8,-4.261 2.4,-5.795c1.605,-1.528 3.639,-2.3 6.111,-2.3c1.733,0 3.283,0.428 4.65,1.261l-1.195,2.15c-1,-0.477 -1.977,-0.716 -2.939,-0.716c-1.422,0 -2.572,0.477 -3.438,1.427c-0.873,0.956 -1.306,2.217 -1.306,3.789c0,1.634 0.444,2.95 1.322,3.956c0.878,0.994 2.028,1.5 3.456,1.5c0.978,0 2.05,-0.317 3.216,-0.961l1.1,2.183Z" style="fill:#69696f;fill-rule:nonzero;"/><path d="M666.927,652.931l-0.033,-0.739c-0.167,-2.322 -1.156,-3.478 -2.967,-3.478c-2.155,0 -3.289,1.406 -3.411,4.217l6.411,0Zm3.6,1.533l-0.394,0.245l-0.395,0.277l-9.222,0c0.022,1.55 0.467,2.778 1.333,3.667c0.862,0.9 1.989,1.344 3.384,1.344c1.305,0 2.628,-0.405 3.978,-1.227l1.127,2.122c-2.016,1.144 -4.005,1.711 -5.966,1.711c-2.245,0 -4.1,-0.694 -5.573,-2.083c-1.694,-1.595 -2.544,-3.656 -2.544,-6.184c0,-2.339 0.761,-4.239 2.267,-5.7c1.433,-1.389 3.25,-2.089 5.455,-2.089c2.778,0 4.678,1.128 5.7,3.378c0.55,1.206 0.839,2.722 0.85,4.539" style="fill:#69696f;fill-rule:nonzero;"/><path d="M682.259,658.015c0,1.344 -0.539,2.444 -1.622,3.305c-1.078,0.856 -2.45,1.284 -4.128,1.284c-1.883,0 -3.572,-0.589 -5.083,-1.778l1.311,-2.145c1.205,1.028 2.3,1.539 3.283,1.539c0.65,0 1.178,-0.172 1.572,-0.505c0.395,-0.334 0.6,-0.789 0.6,-1.356l-0.494,-1.322c-0.328,-0.395 -1.045,-0.989 -2.145,-1.783c-1.1,-0.795 -1.844,-1.412 -2.233,-1.839c-0.694,-0.795 -1.05,-1.678 -1.05,-2.639c0,-1.245 0.5,-2.261 1.478,-3.05c0.978,-0.784 2.233,-1.178 3.766,-1.178c1.595,0 3.056,0.422 4.384,1.256l-1.195,1.938c-0.822,-0.572 -1.677,-0.855 -2.577,-0.855c-0.556,0 -1.012,0.144 -1.367,0.433l-0.533,1.067c0,0.611 0.7,1.439 2.111,2.483c1.572,1.161 2.627,2.072 3.144,2.734c0.522,0.672 0.778,1.472 0.778,2.411" style="fill:#69696f;fill-rule:nonzero;"/><path d="M349.642,625.5l-11.734,0l0,-45.455l-0.183,0c-6.394,16.227 -13.078,30.894 -19.639,45.455l-6.333,0c-6.256,-14.561 -12.578,-29.228 -18.65,-45.455l-0.172,0l0,45.455l-9.412,0l0,-58.289l14.484,0c5.994,14.328 15.661,37.145 17.916,44.634l0.173,0c2.739,-7.817 13.244,-30.306 19.883,-44.634l13.667,0l0,58.289Z" style="fill:#69696f;fill-rule:nonzero;"/><path d="M384.944,599.692c0.417,-6.345 -1.833,-10.667 -7.322,-10.667c-6.339,0 -9.166,5.089 -9.083,10.667l16.405,0Zm-16.566,5.989c-0.25,7.839 5.239,13.666 12.155,13.666c4.073,0 8.406,-1.433 11.161,-3.338l3.156,5.838c-5.656,3.323 -11.572,4.656 -16.322,4.656c-12.572,0 -21.978,-8.9 -21.978,-22.65c0,-12.817 9.322,-20.989 21.239,-20.989c12.983,0 18.383,10.4 17.567,22.817l-26.978,0Z" style="fill:#69696f;fill-rule:nonzero;"/><path d="M415.826,583.866l10.922,0l0,5.661l-10.922,0l0,20.5c0,6.806 2.083,9.734 5.766,9.734c2.389,0 3.828,-0.661 5.317,-1.411l1.917,5.494c-3.245,1.745 -7.234,2.661 -10.917,2.661c-9.156,0 -13.161,-4.833 -13.161,-13.328l0,-23.65l-5.822,0l0,-5.661l5.822,0l0,-9.983l11.078,-2.506l0,12.489Z" style="fill:#69696f;fill-rule:nonzero;"/><path d="M444.472,591.19l0.177,0l2.245,-3.25c1.333,-1.733 3.744,-5.078 7.167,-5.078c2.488,0 5.144,1.345 7.488,3.756l-4.166,7.656c-1.828,-0.923 -2.989,-1.406 -5.256,-1.406c-3.822,0 -7.566,3.078 -7.566,12.072l0,20.561l-11.078,0l0,-41.633l10.989,0l0,7.322Z" style="fill:#69696f;fill-rule:nonzero;"/><path d="M491.536,604.2c0,-6.916 -2.433,-15.172 -10.178,-15.172c-7.566,0 -10.066,8.256 -10.066,15.172c0,7.311 2.155,16.15 10.066,16.15c8.089,0 10.178,-8.839 10.178,-16.15m-31.983,0c0,-13.494 10.655,-21.339 21.805,-21.339c11.245,0 21.906,7.845 21.906,21.339c0,12.889 -8.833,22.306 -21.906,22.306c-12.983,0 -21.805,-9.417 -21.805,-22.306" style="fill:#69696f;fill-rule:nonzero;"/><path d="M588.867,604.2c0,-6.916 -2.416,-15.172 -10.161,-15.172c-7.572,0 -10.072,8.256 -10.072,15.172c0,7.311 2.161,16.15 10.072,16.15c8.072,0 10.161,-8.839 10.161,-16.15m-31.994,0c0,-13.494 10.672,-21.339 21.833,-21.339c11.245,0 21.906,7.845 21.906,21.339c0,12.889 -8.834,22.306 -21.906,22.306c-13,0 -21.833,-9.417 -21.833,-22.306" style="fill:#69696f;fill-rule:nonzero;"/><rect x="607.934" y="564.291" width="11.072" height="61.211" style="fill:#69696f;fill-rule:nonzero;"/><path d="M639.74,625.502l-11.078,0l0,-41.633l11.078,0l0,41.633Zm-12.15,-54.127c0,-3.161 2.667,-6.411 6.406,-6.411c3.827,0 6.822,3.155 6.822,6.411c0,3.594 -2.572,7.011 -6.656,7.011c-3.905,0 -6.572,-3.417 -6.572,-7.011" style="fill:#69696f;fill-rule:nonzero;"/><path d="M664.724,603.365c-5.416,1.666 -8.172,4.816 -8.172,9.566c0,3.678 2.339,6.167 5.011,6.167c4.4,0 10.15,-5.494 9.323,-17.739l-6.162,2.006Zm3.5,18.155c-3.077,2.4 -6.833,4.984 -10.655,4.984c-6.5,0 -11.917,-4.984 -11.917,-12.662c0,-7.9 5.756,-12.405 15.417,-15.155l9.817,-2.906c-0.584,-3.839 -4.006,-6.255 -7.589,-6.255c-4.739,0 -8.073,1.739 -10.978,4.261l-3.583,-5.261c5.161,-4.256 10.238,-5.661 15.988,-5.661c7.667,0 17.062,2.5 17.062,15.489l0,17c0,3.316 0.416,7.238 1.755,10.144l-11.739,0c-0.839,-1.417 -1.083,-3.828 -1.083,-6.072l-2.495,2.094Z" style="fill:#69696f;fill-rule:nonzero;"/><path d="M530.246,619.831c-6,0 -10.25,-5.9 -10.25,-14.634c0,-9.588 3.672,-15.672 10.65,-15.672c6.345,0 9.5,7.167 9.5,14.328c0,7.328 -2.489,15.978 -9.9,15.978m3.245,-36.967c-5,0 -10.412,2.5 -13.323,6.75l-0.172,0l0,-5.75l-11.072,0l0,54.05l11.072,0l0,-17.567c3.083,3.667 7.406,6.156 12.489,6.156c11.917,0 19.406,-11.733 19.406,-22.739c0,-9.155 -5.328,-20.9 -18.4,-20.9" style="fill:#69696f;fill-rule:nonzero;"/><text x="363.202px" y="1981.85px" style="font-family:'TrebuchetMS', 'Trebuchet MS', sans-serif;font-size:47.626px;fill:#1d1d1b;">Euroopa</text><g transform="matrix(5.55556,0,0,5.55556,-8212.78,-3573.71)"><text x="1517.12px" y="1010.29px" style="font-family:'TrebuchetMS', 'Trebuchet MS', sans-serif;font-size:8.573px;fill:#1d1d1b;">R</text><text x="1521.76px" y="1010.29px" style="font-family:'TrebuchetMS', 'Trebuchet MS', sans-serif;font-size:8.573px;fill:#1d1d1b;">egionaalarengu Fond</text></g><g transform="matrix(5.55556,0,0,5.55556,-8212.78,-3573.71)"><text x="1521.88px" y="987.869px" style="font-family:'TrebuchetMS', 'Trebuchet MS', sans-serif;font-size:11.28px;fill:#1d1d1b;">E<tspan x="1528.52px " y="987.869px ">U</tspan></text><text x="1536.43px" y="987.869px" style="font-family:'TrebuchetMS', 'Trebuchet MS', sans-serif;font-size:11.28px;fill:#1d1d1b;">R</text><text x="1543.5px" y="987.869px" style="font-family:'TrebuchetMS', 'Trebuchet MS', sans-serif;font-size:11.28px;fill:#1d1d1b;">O<tspan x="1551.7px " y="987.869px ">O</tspan></text><text x="1559.9px" y="987.869px" style="font-family:'TrebuchetMS', 'Trebuchet MS', sans-serif;font-size:11.28px;fill:#1d1d1b;">P</text><text x="1565.44px" y="987.869px" style="font-family:'TrebuchetMS', 'Trebuchet MS', sans-serif;font-size:11.28px;fill:#1d1d1b;">A</text><text x="1576.07px" y="987.869px" style="font-family:'TrebuchetMS', 'Trebuchet MS', sans-serif;font-size:11.28px;fill:#1d1d1b;">L</text><text x="1582.23px" y="987.869px" style="font-family:'TrebuchetMS', 'Trebuchet MS', sans-serif;font-size:11.28px;fill:#1d1d1b;">I<tspan x="1585.97px " y="987.869px ">I</tspan></text><text x="1589.71px" y="987.869px" style="font-family:'TrebuchetMS', 'Trebuchet MS', sans-serif;font-size:11.28px;fill:#1d1d1b;">T</text></g><path d="M370.513,1339.24c-11.922,0 -20.716,-9.383 -20.716,-21.3c0,-11.794 8.739,-21.416 20.894,-21.416c7.489,0 11.978,2.644 16.111,6.55l-3.189,3.411c-3.483,-3.3 -7.377,-5.656 -12.977,-5.656c-9.156,0 -15.995,7.367 -15.995,16.995c0,9.611 6.9,17.111 15.995,17.111c5.655,0 9.377,-2.183 13.333,-5.961l3.072,3.005c-4.317,4.373 -9.033,7.261 -16.528,7.261" style="fill:#26358b;fill-rule:nonzero;"/><path d="M416.189,1321.59c-0.478,-5.544 -3.667,-10.383 -9.75,-10.383c-5.306,0 -9.322,4.416 -9.911,10.383l19.661,0Zm-8.917,13.695c4.195,0 7.15,-1.717 9.617,-4.312l2.839,2.539c-3.072,3.423 -6.784,5.723 -12.572,5.723c-8.384,0 -15.228,-6.434 -15.228,-15.928c0,-8.856 6.194,-15.945 14.639,-15.945c9.027,0 14.222,7.206 14.222,16.173c0,0.411 0,0.888 -0.061,1.416l-24.2,0c0.655,6.611 5.372,10.334 10.744,10.334" style="fill:#26358b;fill-rule:nonzero;"/><path d="M433.295,1338.53l-4.544,0l0,-30.5l4.544,0l0,5.305c2,-3.311 5.194,-5.966 10.45,-5.966c7.372,0 11.683,4.955 11.683,12.216l0,18.945l-4.544,0l0,-17.828c0,-5.667 -3.078,-9.2 -8.445,-9.2c-5.25,0 -9.144,3.828 -9.144,9.556l0,17.472Z" style="fill:#26358b;fill-rule:nonzero;"/><path d="M471.24,1329.85c0,3.723 2.061,5.078 5.133,5.078c1.534,0 2.834,-0.294 4.423,-1.05l0,3.895c-1.589,0.822 -3.306,1.288 -5.489,1.288c-4.889,0 -8.611,-2.416 -8.611,-8.616l0,-18.411l-4.256,0l0,-4.006l4.256,0l0,-9.222l4.544,0l0,9.222l9.678,0l0,4.006l-9.678,0l0,17.816Z" style="fill:#26358b;fill-rule:nonzero;"/><path d="M493.489,1338.53l-4.544,0l0,-30.5l4.544,0l0,7.95c2.234,-5.078 6.667,-8.733 12.445,-8.483l0,4.883l-0.345,0c-6.677,0 -12.1,4.783 -12.1,13.989l0,12.161Z" style="fill:#26358b;fill-rule:nonzero;"/><path d="M513.666,1329.44c0,3.895 3.55,6.139 7.678,6.139c5.611,0 10.211,-3.417 10.211,-8.256l0,-2.95c-2.244,-0.65 -5.256,-1.3 -8.967,-1.3c-5.733,0 -8.922,2.473 -8.922,6.367m-0.528,-15.572l-1.355,-3.722c3.372,-1.528 6.672,-2.539 11.094,-2.539c8.322,0 12.989,4.255 12.989,12.272l0,18.656l-4.367,0l0,-4.6c-2.127,2.766 -5.666,5.25 -11.033,5.25c-5.672,0 -11.394,-3.189 -11.394,-9.562c0,-6.5 5.311,-9.916 13.044,-9.916c3.889,0 6.667,0.533 9.383,1.289l0,-1.061c0,-5.478 -3.372,-8.312 -9.094,-8.312c-3.594,0 -6.433,0.945 -9.267,2.245" style="fill:#26358b;fill-rule:nonzero;"/><rect x="545.957" y="1295.45" width="4.533" height="43.078" style="fill:#26358b;fill-rule:nonzero;"/><path d="M608.154,1326.9c0,-4.533 -3.783,-7.128 -10.983,-7.128l-13.039,0l0,14.573l13.872,0c6.256,0 10.15,-2.778 10.15,-7.445m-2.305,-18.705c0,-4.123 -3.239,-6.795 -9.145,-6.795l-12.572,0l0,14.228l12.217,0c5.611,0 9.5,-2.528 9.5,-7.433m4.728,-0.65c0,5.433 -3.311,8.2 -6.556,9.622c4.9,1.478 8.85,4.305 8.85,10.028c0,7.15 -5.955,11.339 -14.989,11.339l-18.355,0l0,-41.312l17.594,0c8.139,0 13.456,4.017 13.456,10.323" style="fill:#26358b;fill-rule:nonzero;"/><path d="M623.671,1329.44c0,3.895 3.538,6.139 7.666,6.139c5.611,0 10.206,-3.417 10.206,-8.256l0,-2.95c-2.239,-0.65 -5.245,-1.3 -8.961,-1.3c-5.728,0 -8.911,2.473 -8.911,6.367m-0.534,-15.572l-1.355,-3.722c3.361,-1.528 6.661,-2.539 11.089,-2.539c8.322,0 12.988,4.255 12.988,12.272l0,18.656l-4.372,0l0,-4.6c-2.122,2.766 -5.661,5.25 -11.033,5.25c-5.667,0 -11.395,-3.189 -11.395,-9.562c0,-6.5 5.312,-9.916 13.045,-9.916c3.9,0 6.672,0.533 9.383,1.289l0,-1.061c0,-5.478 -3.361,-8.312 -9.089,-8.312c-3.594,0 -6.433,0.945 -9.261,2.245" style="fill:#26358b;fill-rule:nonzero;"/><rect x="655.94" y="1295.45" width="4.544" height="43.078" style="fill:#26358b;fill-rule:nonzero;"/><path d="M677.186,1329.85c0,3.723 2.067,5.078 5.139,5.078c1.533,0 2.833,-0.294 4.428,-1.05l0,3.895c-1.595,0.822 -3.311,1.288 -5.489,1.288c-4.895,0 -8.622,-2.416 -8.622,-8.616l0,-18.411l-4.25,0l0,-4.006l4.25,0l0,-9.222l4.544,0l0,9.222l9.678,0l0,4.006l-9.678,0l0,17.816Z" style="fill:#26358b;fill-rule:nonzero;"/><path d="M695.301,1308.03l4.545,0l0,30.5l-4.545,0l0,-30.5Zm-0.294,-11.694l5.2,0l0,5.011l-5.2,0l0,-5.011Z" style="fill:#26358b;fill-rule:nonzero;"/><path d="M724.159,1339.24c-8.911,0 -15.639,-7.261 -15.639,-15.861c0,-8.683 6.728,-16.005 15.639,-16.005c5.783,0 9.383,2.416 12.217,5.433l-3.006,3.178c-2.417,-2.539 -5.133,-4.6 -9.272,-4.6c-6.195,0 -10.922,5.255 -10.922,11.872c0,6.661 4.85,11.917 11.216,11.917c3.9,0 6.9,-1.956 9.334,-4.55l2.883,2.716c-3.067,3.428 -6.722,5.9 -12.45,5.9" style="fill:#26358b;fill-rule:nonzero;"/><path d="M366.547,1193.97l-16.755,0l0,51.444c5.444,-1.033 11.033,-2.027 16.755,-2.972l0,-48.472Z" style="fill:#69abde;fill-rule:nonzero;"/><path d="M468.891,1225.92l13.7,0l0,-14.128l-13.7,0l0,-14.9l-16.533,0l0,14.9l-6.95,0l0,14.128l6.95,0l0,6.4c5.461,-0.423 10.961,-0.812 16.533,-1.173l0,-5.227Z" style="fill:#69abde;fill-rule:nonzero;"/><path d="M520.752,1223.97c4.055,0 7.216,1.706 9.35,4.589c5.505,-0.117 11.027,-0.194 16.577,-0.261c-3.827,-10.144 -12.277,-17.589 -25.927,-17.589c-12.911,0 -22.839,7.933 -26.856,19.067c5.639,-0.261 11.322,-0.489 17.033,-0.684c2.239,-3.233 5.567,-5.122 9.823,-5.122" style="fill:#69abde;fill-rule:nonzero;"/><path d="M590.891,1228.5c1.494,-0.328 3.077,-0.5 4.772,-0.5l0.883,0l0,-17.294c-9.794,-0.434 -15.239,4.794 -18.605,12.833l0,-11.739l-16.523,0l0,16.428l0.9,0c9.6,0 19.128,0.089 28.573,0.272" style="fill:#69abde;fill-rule:nonzero;"/><path d="M641.113,1228l0.867,0l0,-17.295c-9.778,-0.433 -15.217,4.795 -18.578,12.834l0,-11.739l-16.539,0l0,17.078c8.6,0.261 17.111,0.577 25.523,0.966c2.477,-1.228 5.405,-1.844 8.727,-1.844" style="fill:#69abde;fill-rule:nonzero;"/><path d="M677.751,1223.97c6.122,0 10.216,3.861 11.788,9.811c5.4,0.495 10.75,1.039 16.017,1.595c-2.205,-13.578 -11.122,-24.667 -27.805,-24.667c-13.306,0 -23.439,8.445 -27.195,20.117c5.345,0.328 10.633,0.672 15.883,1.066c2.067,-4.905 5.95,-7.922 11.312,-7.922" style="fill:#69abde;fill-rule:nonzero;"/><path d="M730.17,1238.1l0,-0.206c0,-7.944 6.089,-13.488 14.128,-13.488c8.05,0 14.239,5.544 14.239,13.488l0,0.206c0,1.528 -0.234,2.972 -0.656,4.306c5.795,0.955 11.461,1.955 16.967,3.005l0,-33.611l-16.522,0l0,7.606c-4.456,-4.895 -9.784,-8.706 -18.806,-8.706c-12.95,0 -25.05,9.206 -25.811,25.578c5.572,0.65 11.067,1.322 16.472,2.028c0,-0.078 -0.011,-0.128 -0.011,-0.206" style="fill:#69abde;fill-rule:nonzero;"/><path d="M404.687,1226.04c1.084,-0.522 3.511,-1.033 4.706,-1.033c1.189,0 3.6,0.511 4.694,1.033c4.206,1.994 6.111,4.978 6.661,9.156c5.234,-0.55 10.545,-1.062 15.917,-1.562c-1.856,-8.472 -6.933,-15.622 -14.772,-19.605c-3.606,-1.833 -7.789,-3.333 -12.5,-3.333c-4.728,0 -8.911,1.5 -12.5,3.333c-9.778,4.967 -15.272,14.855 -15.556,26.083c5.406,-0.778 10.911,-1.528 16.506,-2.255c0.033,-5.634 1.783,-9.406 6.844,-11.817" style="fill:#69abde;fill-rule:nonzero;"/><path d="M366.547,1270.06l0,-27.628c-5.722,0.945 -11.311,1.934 -16.755,2.978l0,24.65l16.755,0Z" style="fill:#26358b;fill-rule:nonzero;"/><path d="M469.325,1271.05c5.544,0 9.572,-1.311 13.044,-3.372l0,-13.261c-2.4,1.289 -5.111,2.05 -8.155,2.05c-3.7,0 -5.322,-1.844 -5.322,-5.644l0,-19.673c-5.573,0.361 -11.073,0.75 -16.534,1.173l0,21.205c0,13.495 6.861,17.522 16.967,17.522" style="fill:#26358b;fill-rule:nonzero;"/><path d="M491.938,1241.26c0,17.828 12.939,30.122 30.439,30.122c10.55,0 18.383,-4.133 23.811,-10.883l-9.45,-8.367c-4.578,4.244 -8.595,5.978 -14.139,5.978c-7.395,0 -12.611,-3.917 -14.245,-11.411l40.556,0c0.106,-1.534 0.217,-3.039 0.217,-4.356c0,-4.933 -0.817,-9.722 -2.445,-14.039c-5.55,0.067 -11.078,0.139 -16.583,0.261c1.528,2.05 2.528,4.717 2.939,7.8l-24.9,0c0.5,-2.844 1.439,-5.305 2.794,-7.266c-5.711,0.194 -11.4,0.422 -17.033,0.683c-1.261,3.494 -1.961,7.278 -1.961,11.261l0,0.217Z" style="fill:#26358b;fill-rule:nonzero;"/><path d="M577.941,1270.06l0,-21.517c0,-11.761 4.827,-18.305 12.95,-20.061c-9.445,-0.177 -18.973,-0.261 -28.573,-0.261l-0.9,0l0,41.839l16.523,0Z" style="fill:#26358b;fill-rule:nonzero;"/><path d="M623.388,1270.06l0,-21.517c0,-9.711 3.289,-15.855 8.995,-18.705c-8.411,-0.395 -16.928,-0.706 -25.522,-0.967l0,41.189l16.527,0Z" style="fill:#26358b;fill-rule:nonzero;"/><path d="M648.953,1241.26c0,17.828 12.928,30.122 30.439,30.122c10.544,0 18.366,-4.133 23.816,-10.883l-9.466,-8.367c-4.567,4.244 -8.584,5.978 -14.134,5.978c-7.394,0 -12.616,-3.917 -14.239,-11.411l40.545,0c0.105,-1.534 0.222,-3.039 0.222,-4.356c0,-2.361 -0.2,-4.683 -0.583,-6.967c-5.261,-0.561 -10.606,-1.094 -16.011,-1.594c0.222,0.828 0.383,1.694 0.5,2.583l-24.895,0c0.284,-1.627 0.717,-3.122 1.289,-4.472c-5.239,-0.389 -10.533,-0.733 -15.878,-1.061c-1.033,3.2 -1.605,6.628 -1.605,10.211l0,0.217Z" style="fill:#26358b;fill-rule:nonzero;"/><path d="M713.644,1238.1c0,17.294 12.284,27.194 25.873,27.194c8.811,0 14.133,-3.605 19.027,-9.477l0,2.833c0,10.45 -5.322,15.878 -16.633,15.878c-7.717,0 -13.7,-1.956 -19.689,-5.328l-5.639,12.4c7.384,3.906 16.3,6.078 25.756,6.078c11.311,0 19.683,-2.389 25.128,-7.811c4.883,-4.906 7.389,-12.523 7.389,-22.95l0,-11.506c-5.517,-1.05 -11.178,-2.05 -16.973,-3.005c-1.8,5.555 -7.089,9.183 -13.583,9.183c-7.972,0 -14.022,-5.35 -14.117,-13.283c-5.405,-0.706 -10.894,-1.378 -16.472,-2.028c-0.011,0.544 -0.067,1.05 -0.067,1.616l0,0.206Z" style="fill:#26358b;fill-rule:nonzero;"/><path d="M420.936,1238.01l0,32.045l16.528,0l0,-28.822l0,-0.217c0,-2.539 -0.283,-5 -0.8,-7.378c-5.372,0.5 -10.683,1.011 -15.917,1.561c0.111,0.889 0.189,1.811 0.189,2.811" style="fill:#26358b;fill-rule:nonzero;"/><path d="M381.315,1241.23l0,28.816l16.528,0l0,-2.133l0,-24.233l0,-5.673c0,-0.055 0.005,-0.1 0.005,-0.15c-5.6,0.723 -11.1,1.473 -16.511,2.267c0,0.3 -0.022,0.594 -0.022,0.889l0,0.217Z" style="fill:#26358b;fill-rule:nonzero;"/><path d="M221.837,1273.6c-33.984,0 -61.523,-13.772 -61.523,-30.761c0,-16.994 27.539,-30.761 61.523,-30.761c33.972,0 61.522,13.767 61.522,30.761c0,16.989 -27.55,30.761 -61.522,30.761m0,-79.544c-53.884,0 -97.567,21.839 -97.567,48.783c0,26.945 43.683,48.784 97.567,48.784c53.877,0 97.561,-21.839 97.561,-48.784c0,-26.944 -43.684,-48.783 -97.561,-48.783" style="fill:#69abde;fill-rule:nonzero;"/><path d="M221.837,1219.47c-25.823,0 -46.756,10.462 -46.756,23.373c0,12.9 20.933,23.383 46.756,23.383c25.811,0 46.744,-10.483 46.744,-23.383c0,-12.911 -20.933,-23.373 -46.744,-23.373" style="fill:#26358b;fill-rule:nonzero;"/><path d="M319.396,1242.84c0,-2.017 -0.245,-4.006 -0.717,-5.956l-35.772,2.2c0.294,1.239 0.45,2.478 0.45,3.756c0,5.361 -3.011,10.644 -7.839,15.027c-6.289,5.612 -15.972,10.123 -27.672,12.862l15.222,16.327c18.489,-4.305 33.811,-11.439 43.789,-20.277l0.005,0c0.056,-0.045 0.1,-0.089 0.145,-0.134c0.061,-0.044 0.116,-0.105 0.177,-0.15l-0.016,-0.011c7.6,-6.933 12.228,-15.183 12.228,-23.644" style="fill:#26358b;fill-rule:nonzero;"/><path d="M124.267,1242.84c0,-8.573 4.422,-16.611 12.184,-23.623l31.611,8.662c-4.939,4.427 -7.75,9.522 -7.75,14.961c0,1.272 0.155,2.516 0.444,3.755l-35.767,2.2c-0.477,-1.95 -0.722,-3.939 -0.722,-5.955" style="fill:#26358b;fill-rule:nonzero;"/><path d="M240.478,1194.94c20.628,1.994 38.934,7.239 52.711,14.627l-26.405,12.273c-8.683,-4.656 -20.228,-7.956 -33.228,-9.211l6.922,-17.689Z" style="fill:#26358b;fill-rule:nonzero;"/><path d="M221.837,1216.03c11.944,0 21.627,7.512 21.627,19.467c0,1.672 -0.188,3.3 -0.55,4.861c-0.127,0.561 -0.277,1.117 -0.45,1.65c-2.072,4.75 -10.522,8.311 -20.627,8.311c-10.111,0 -18.567,-3.561 -20.634,-8.311c-0.172,-0.533 -0.322,-1.089 -0.45,-1.65c-0.361,-1.561 -0.555,-3.189 -0.555,-4.861c0,-11.955 9.689,-19.467 21.639,-19.467" style="fill:#e3003a;fill-rule:nonzero;"/><path d="M218.348,1203.83c0,-2.05 1.561,-3.711 3.489,-3.711c1.922,0 3.478,1.661 3.478,3.711l0,17.273c0,2.055 -1.556,3.711 -3.478,3.711c-1.928,0 -3.489,-1.656 -3.489,-3.711l0,-17.273Z" style="fill:#fff;fill-rule:nonzero;"/></g><defs><linearGradient id="_Linear2" x1="0" y1="0" x2="1" y2="0" gradientUnits="userSpaceOnUse" gradientTransform="matrix(10.2006,-116.58,116.58,0,309.961,551.553)"><stop offset="0" style="stop-color:#f19400;stop-opacity:1"/><stop offset="1" style="stop-color:#ffeb00;stop-opacity:1"/></linearGradient><linearGradient id="_Linear4" x1="0" y1="0" x2="1" y2="0" gradientUnits="userSpaceOnUse" gradientTransform="matrix(9.17169,-104.821,104.821,0,368.294,525.164)"><stop offset="0" style="stop-color:#f19400;stop-opacity:1"/><stop offset="1" style="stop-color:#ffeb00;stop-opacity:1"/></linearGradient><linearGradient id="_Linear6" x1="0" y1="0" x2="1" y2="0" gradientUnits="userSpaceOnUse" gradientTransform="matrix(105.819,0,-9.25945,105.819,225.065,523.688)"><stop offset="0" style="stop-color:#e1061b;stop-opacity:1"/><stop offset="1" style="stop-color:#ec7509;stop-opacity:1"/></linearGradient><linearGradient id="_Linear8" x1="0" y1="0" x2="1" y2="0" gradientUnits="userSpaceOnUse" gradientTransform="matrix(101.235,0,-8.85777,101.235,286.523,483.324)"><stop offset="0" style="stop-color:#e1061b;stop-opacity:1"/><stop offset="1" style="stop-color:#ec7509;stop-opacity:1"/></linearGradient><linearGradient id="_Linear10" x1="0" y1="0" x2="1" y2="0" gradientUnits="userSpaceOnUse" gradientTransform="matrix(79.39,0,-6.94646,79.39,345.942,463.532)"><stop offset="0" style="stop-color:#e1061b;stop-opacity:1"/><stop offset="1" style="stop-color:#ec7509;stop-opacity:1"/></linearGradient></defs></svg>